<svg width="262" height="226" viewBox="0 0 262 226" fill="none" xmlns="http://www.w3.org/2000/svg">
<path d="M20.9023 51.1931H104.567C107.715 51.1931 110.278 53.3428 110.278 56.0153V168H20.9023V51.1931Z" stroke="#054D94" stroke-width="2" stroke-miterlimit="10"/>
<path d="M110.062 56.5289C110.062 56.5289 151.506 54.683 153.423 58.418L176.776 109.727L206.976 118.912C216.736 123.08 210.695 168.029 191.912 167.712" stroke="#054D94" stroke-width="2" stroke-miterlimit="10"/>
<path d="M119.374 69.9833C119.374 69.9833 144.889 69.0892 146.461 69.9833C148.032 70.8774 166.584 108.876 164.783 109.236C162.981 109.597 119.374 109.236 119.374 109.236V69.9833Z" stroke="#054D94" stroke-miterlimit="10"/>
<path d="M120.138 119.273H131.295" stroke="#054D94" stroke-miterlimit="10"/>
<path d="M175.767 180.892C184.509 180.892 191.595 173.803 191.595 165.058C191.595 156.314 184.509 149.225 175.767 149.225C167.025 149.225 159.939 156.314 159.939 165.058C159.939 173.803 167.025 180.892 175.767 180.892Z" stroke="#054D94" stroke-width="2" stroke-miterlimit="10"/>
<path d="M175.767 172.081C179.644 172.081 182.787 168.937 182.787 165.058C182.787 161.18 179.644 158.036 175.767 158.036C171.89 158.036 168.747 161.18 168.747 165.058C168.747 168.937 171.89 172.081 175.767 172.081Z" stroke="#054D94" stroke-miterlimit="10"/>
<path d="M110.062 167.712H159.924" stroke="#054D94" stroke-width="2" stroke-miterlimit="10"/>
<path d="M39.9458 95.2981C40.3665 95.2981 40.8714 95.3433 41.4605 95.3885C41.8391 95.4337 42.1757 95.4337 42.4282 95.4337C43.1013 95.4337 43.3959 95.0721 43.3959 94.349C43.3959 93.8066 43.1434 93.5354 42.6385 93.5354C42.5544 93.5354 42.3861 93.5354 42.1757 93.5806C41.9653 93.6258 41.797 93.6258 41.6708 93.6258C41.3763 93.6258 41.0397 93.445 41.0397 92.5411V88.0667C41.0397 87.6599 41.1239 87.3435 41.2501 87.1627C41.3763 86.9819 41.6287 86.8915 41.9653 86.8915C42.6385 86.8915 42.7227 87.3435 42.7227 87.5695C42.7227 87.6599 42.7227 87.8407 42.6806 88.0667C42.6385 88.2474 42.6385 88.4282 42.6385 88.5638C42.6385 89.3773 42.933 89.7841 43.6062 89.7841C43.9008 89.7841 44.1111 89.6937 44.3215 89.4677C44.4898 89.287 44.5739 88.9706 44.5739 88.609C44.5739 88.5638 44.5739 88.2926 44.5319 87.8859C44.4898 87.5243 44.4898 87.2983 44.4898 87.1175C44.4898 86.9367 44.4898 86.7108 44.5319 86.3944C44.5739 86.1232 44.5739 85.8972 44.5739 85.7164C44.5739 85.3549 44.4056 85.1741 44.027 85.1741C43.8166 85.1741 43.5221 85.1741 43.1855 85.2193C42.4702 85.3097 41.3342 85.3549 39.9458 85.3549C38.5573 85.3549 37.4634 85.3097 36.664 85.2193C36.3274 85.2193 36.0329 85.1741 35.8225 85.1741C35.4859 85.1741 35.3176 85.3549 35.3176 85.7164C35.3176 85.852 35.3176 86.078 35.3597 86.304C35.4018 86.7108 35.4018 86.9367 35.4018 87.0723C35.4018 87.2983 35.4018 87.5695 35.3597 87.8407C35.3176 88.2474 35.3176 88.4734 35.3176 88.609C35.3176 88.9706 35.4018 89.2418 35.5701 89.4677C35.7384 89.6485 35.9908 89.7389 36.2853 89.7389C36.9585 89.7389 37.253 89.3322 37.253 88.4734C37.253 88.383 37.253 88.2474 37.211 88.0215C37.1689 87.8407 37.1268 87.6599 37.1268 87.5695C37.1268 87.2531 37.253 86.8915 37.9683 86.8915C38.347 86.8915 38.8098 87.1175 38.8098 88.0667V92.5411C38.8098 93.445 38.4732 93.6258 38.1787 93.6258C38.0524 93.6258 37.8842 93.6258 37.6738 93.5806C37.4634 93.5354 37.3372 93.5354 37.211 93.5354C36.7061 93.5354 36.4536 93.8066 36.4536 94.4394C36.4536 95.1173 36.7481 95.4337 37.4213 95.4337C37.7159 95.4337 38.0524 95.4337 38.389 95.3885C39.0202 95.2981 39.525 95.2981 39.9458 95.2981Z" fill="#054D94"/>
<path d="M48.571 93.9875C48.0661 93.9875 47.6875 93.7615 47.435 93.3547C47.1826 92.948 47.0563 92.3604 47.0563 91.6373C47.0563 90.9141 47.1826 90.3266 47.435 89.9198C47.6875 89.4678 48.0661 89.2419 48.571 89.2419C49.5808 89.2419 50.0857 90.0554 50.0857 91.6373C50.0436 93.174 49.5387 93.9875 48.571 93.9875ZM48.5289 87.5696C47.3929 87.5696 46.5094 87.9312 45.8783 88.6091C45.2472 89.3322 44.9526 90.3266 44.9526 91.5921C44.9526 92.8576 45.2892 93.8519 45.8783 94.575C46.5094 95.253 47.3929 95.6146 48.571 95.6146C49.6649 95.6146 50.5485 95.253 51.1796 94.5298C51.8107 93.8067 52.1052 92.8124 52.1052 91.5017C52.1052 90.2814 51.7686 89.287 51.1375 88.6091C50.5485 87.9312 49.6649 87.5696 48.5289 87.5696Z" fill="#054D94"/>
<path d="M61.8243 89.3774C62.245 89.3774 62.5395 89.513 62.6657 89.8294C62.792 90.1006 62.8761 90.5526 62.8761 91.2757V92.9028C62.8761 93.4451 62.834 93.5807 62.834 93.6259C62.792 93.7615 62.6237 93.8519 62.4133 93.8971C62.245 93.9423 61.9926 94.0327 61.9926 94.575C61.9926 94.8462 62.0767 95.027 62.2029 95.2078C62.3292 95.3886 62.4974 95.4338 62.6657 95.4338C62.792 95.4338 62.9603 95.4338 63.2548 95.3886C63.5493 95.3434 63.8438 95.3434 64.1804 95.3434C64.4329 95.3434 64.6432 95.3434 64.8115 95.3886L65.1481 95.4338C65.4847 95.479 65.5268 95.479 65.5689 95.479C65.7792 95.479 65.9475 95.3886 66.0738 95.2078C66.2 95.027 66.2841 94.801 66.2841 94.4847C66.2841 93.8971 66.0317 93.8067 65.7792 93.8067C65.6951 93.8067 65.653 93.8067 65.6109 93.8519C65.4847 93.8971 65.4006 93.9423 65.3164 93.9423C64.8957 93.9423 64.8957 93.2191 64.8957 92.9932V90.5977C64.8957 89.6486 64.7274 88.9707 64.4749 88.5187C64.0542 87.886 63.4231 87.6148 62.5395 87.6148C62.1188 87.6148 61.7401 87.7052 61.4035 87.8408C61.0669 88.0215 60.6462 88.2927 60.1834 88.7447L59.973 88.8351L59.8889 88.6995C59.426 87.9312 58.8791 87.5696 58.1638 87.5696C57.3223 87.5696 56.5229 88.0215 55.8497 88.9255L55.6394 89.2419V88.1571C55.6394 87.886 55.5552 87.8408 55.3869 87.8408C55.2607 87.8408 55.1345 87.8408 54.882 87.886C54.6296 87.9312 54.4613 87.9312 54.3351 87.9312C54.2088 87.9312 54.0405 87.9312 53.8722 87.886C53.5357 87.8408 53.4515 87.7956 53.4094 87.7956C53.1991 87.7956 53.0308 87.886 52.8625 88.0215C52.7362 88.2023 52.6521 88.4283 52.6521 88.6995C52.6521 89.3322 52.9466 89.4226 53.1991 89.4226C53.2411 89.4226 53.2832 89.4226 53.4094 89.3774C53.5777 89.3322 53.6198 89.3322 53.6619 89.3322C53.9985 89.3322 54.0405 89.8746 54.0405 90.3718V92.9028C54.0405 93.3547 53.9985 93.8971 53.6619 93.8971C53.5777 93.8971 53.4936 93.8971 53.4094 93.8519C53.4094 93.8067 53.3253 93.8067 53.2411 93.8067C52.9887 93.8067 52.6942 93.8971 52.6942 94.575C52.6942 94.8462 52.7783 95.0722 52.9045 95.2078C53.0308 95.3886 53.1991 95.4338 53.4515 95.4338C53.5357 95.4338 53.7881 95.3886 54.1668 95.3434C54.4192 95.2982 54.6296 95.2982 54.882 95.2982C55.0503 95.2982 55.3028 95.2982 55.6394 95.3434C55.976 95.3886 56.1863 95.3886 56.3546 95.3886C56.6491 95.3886 57.0278 95.2982 57.0278 94.5298C57.0278 94.1231 56.9016 93.8971 56.565 93.8519C56.3546 93.8067 56.2705 93.7615 56.1863 93.6711C56.1443 93.5807 56.1022 93.4903 56.1022 93.2643V91.3661C56.1022 90.0102 56.565 89.3322 57.4906 89.3322C57.8693 89.3322 58.1638 89.4678 58.29 89.739C58.4163 90.0102 58.5004 90.417 58.5004 91.0497V92.8124C58.5004 92.8576 58.5004 93.0384 58.5004 93.3095C58.5004 93.5807 58.3742 93.7615 58.1217 93.8067C57.9534 93.8519 57.7851 93.9875 57.7851 94.4847C57.7851 95.253 58.1217 95.3434 58.3742 95.3434C58.5004 95.3434 58.6266 95.3434 58.8791 95.2982C59.1315 95.253 59.2998 95.253 59.426 95.253C59.5523 95.253 59.7626 95.2982 60.0992 95.3434C60.2675 95.3886 60.4358 95.3886 60.52 95.3886C60.8145 95.3886 61.1932 95.2982 61.1932 94.4847C61.1932 93.9875 60.9828 93.8971 60.8566 93.8519C60.6462 93.8067 60.562 93.6711 60.52 93.5807C60.4779 93.4903 60.4779 93.3547 60.4779 92.8576V91.4113C60.4358 90.1006 60.8986 89.3774 61.8243 89.3774Z" fill="#054D94"/>
<path d="M79.7058 93.8067C79.6217 93.8067 79.5796 93.8067 79.5375 93.8519C79.4113 93.8971 79.3272 93.9423 79.243 93.9423L78.8643 93.4451C78.8223 93.2643 78.8223 93.0835 78.8223 92.9931V90.5977C78.8223 89.6486 78.654 88.9706 78.4015 88.5187C77.9808 87.8859 77.3497 87.6147 76.4661 87.6147C76.0454 87.6147 75.6667 87.7051 75.3301 87.8407C74.9935 88.0215 74.5728 88.2927 74.11 88.7447L73.9837 88.8351L73.8996 88.6995C73.4368 87.9763 72.8898 87.6147 72.1746 87.6147C71.3331 87.6147 70.5337 88.0667 69.8605 88.9706L69.6501 89.287V88.1571C69.6501 87.8859 69.566 87.8407 69.3977 87.8407C69.2714 87.8407 69.1452 87.8407 68.8928 87.8859C68.6403 87.9311 68.472 87.9311 68.3458 87.9311C68.2196 87.9311 68.0513 87.9311 67.883 87.8859C67.5464 87.8407 67.4623 87.7955 67.4202 87.7955C67.2098 87.7955 67.0415 87.8859 66.8732 88.0215C66.747 88.2023 66.6628 88.4283 66.6628 88.6995C66.6628 89.3322 66.9574 89.4226 67.2098 89.4226C67.2519 89.4226 67.294 89.4226 67.4202 89.3774C67.5885 89.3322 67.6305 89.3322 67.6726 89.3322C68.0092 89.3322 68.0513 89.8746 68.0513 90.3717V92.9027C68.0513 93.3547 68.0092 93.8971 67.6726 93.8971C67.5885 93.8971 67.5043 93.8971 67.4202 93.8519C67.3781 93.8067 67.294 93.8067 67.2519 93.8067C66.9994 93.8067 66.7049 93.8971 66.7049 94.575C66.7049 94.8462 66.7891 95.0722 66.9153 95.2078C67.0415 95.3886 67.2098 95.4337 67.4623 95.4337C67.5464 95.4337 67.7988 95.3886 68.1775 95.3434C68.43 95.2982 68.6403 95.2982 68.8928 95.2982C69.0611 95.2982 69.3135 95.2982 69.6501 95.3434C69.9867 95.3886 70.1971 95.3886 70.3654 95.3886C70.6599 95.3886 71.0386 95.2982 71.0386 94.5298C71.0386 94.123 70.9123 93.8971 70.5757 93.8519C70.3654 93.8067 70.2812 93.7615 70.1971 93.6711C70.155 93.5807 70.1129 93.4903 70.1129 93.2643V91.3661C70.1129 90.0102 70.5757 89.3322 71.5014 89.3322C71.88 89.3322 72.1746 89.4678 72.3008 89.739C72.427 90.0102 72.5112 90.4169 72.5112 91.0497V92.8123C72.5112 92.8575 72.5112 93.0383 72.5112 93.3095C72.5112 93.5807 72.3849 93.7615 72.1325 93.8067C71.9642 93.8519 71.7959 93.9875 71.7959 94.4846C71.7959 95.253 72.1325 95.3434 72.3849 95.3434C72.5111 95.3434 72.6374 95.3434 72.8898 95.2982C73.1423 95.253 73.3106 95.253 73.4368 95.253C73.563 95.253 73.7734 95.2982 74.11 95.3434C74.2783 95.3886 74.4466 95.3886 74.5307 95.3886C74.8252 95.3886 75.2039 95.2982 75.2039 94.4846C75.2039 93.9875 74.9935 93.8971 74.8673 93.8519C74.6569 93.8067 74.5728 93.6711 74.5307 93.5807C74.4886 93.5355 74.4466 93.3547 74.4466 92.8575V91.4113C74.4466 90.0554 74.9094 89.3774 75.7929 89.3774L76.8448 90.7785C76.8448 90.9141 76.8448 91.0949 76.8448 91.2757V92.9027C76.8448 93.4451 76.8027 93.5807 76.8027 93.6259C76.7606 93.7615 76.5923 93.8519 76.382 93.8971C76.2137 93.9423 75.9612 94.0327 75.9612 94.575C75.9612 94.8462 76.0454 95.027 76.1716 95.2078C76.2978 95.3886 76.4661 95.4337 76.6344 95.4337C76.7606 95.4337 76.9289 95.4337 77.2235 95.3886C77.518 95.3434 77.8125 95.3434 78.1491 95.3434C78.4015 95.3434 78.6119 95.3434 78.7802 95.3886L79.1168 95.4337C79.4534 95.4789 79.4955 95.4789 79.5375 95.4789C79.7479 95.4789 79.9162 95.3886 80.0424 95.2078C80.1686 95.027 80.2528 94.801 80.2528 94.4846C80.2107 93.8519 79.9162 93.8067 79.7058 93.8067Z" fill="#054D94"/>
<path d="M82.9877 84.3606C82.6511 84.3606 82.3565 84.4962 82.1462 84.7222C81.8937 84.9933 81.8096 85.2645 81.8096 85.6261C81.8096 85.9877 81.9358 86.2589 82.1462 86.53C82.3986 86.8012 82.6511 86.8916 82.9877 86.8916C83.3243 86.8916 83.6188 86.756 83.8291 86.53C84.0816 86.2589 84.1657 85.9877 84.1657 85.6261C84.1657 85.2645 84.0395 84.9482 83.8291 84.7222C83.6188 84.4962 83.3243 84.3606 82.9877 84.3606ZM82.9877 95.2982C83.3243 95.2982 83.6608 95.2982 83.9133 95.3434C84.334 95.3885 84.6286 95.4337 84.7127 95.4337C85.0072 95.4337 85.428 95.3434 85.428 94.4846C85.428 93.8971 85.1755 93.8067 84.9651 93.8067C84.9231 93.8067 84.8389 93.8067 84.7548 93.8519C84.5865 93.8971 84.5444 93.8971 84.5023 93.8971C84.0816 93.8971 84.0816 93.1739 84.0816 92.9479V88.2927C84.0816 87.8407 83.8712 87.8407 83.7871 87.8407C83.7871 87.8407 83.7029 87.8407 83.3663 87.8859C83.156 87.9311 82.9035 87.9311 82.7352 87.9311C82.5248 87.9311 82.2303 87.8859 81.8937 87.8407C81.6834 87.7955 81.5571 87.7955 81.4309 87.7955C81.1785 87.7955 81.0102 87.8859 80.884 88.0215C80.7577 88.2023 80.6736 88.3831 80.6736 88.6995C80.6736 89.3322 80.9681 89.4226 81.2205 89.4226C81.2626 89.4226 81.3468 89.4226 81.4309 89.3774C81.6413 89.287 81.6834 89.287 81.7254 89.287C82.062 89.287 82.1041 89.8294 82.1041 90.3265V92.9027C82.1041 93.1739 82.1041 93.8971 81.7254 93.8971C81.6834 93.8971 81.6413 93.8971 81.5992 93.8971L81.2205 93.8067C80.9681 93.8067 80.6736 93.8971 80.6736 94.575C80.6736 94.8462 80.7577 95.0722 80.884 95.2078C81.0102 95.3885 81.2205 95.4337 81.4309 95.4337C81.5992 95.4337 81.8517 95.4337 82.1883 95.3885C82.5669 95.3434 82.8194 95.2982 82.9877 95.2982Z" fill="#054D94"/>
<path d="M87.2371 84.9934C86.9005 84.9934 86.606 85.129 86.3535 85.4002C86.1011 85.6714 85.9749 86.0329 85.9749 86.4397C85.9749 87.1628 86.3114 87.6148 86.9426 87.7956C87.2791 87.9312 87.3633 88.112 87.3633 88.2476C87.3633 88.4283 87.2791 88.8351 86.4797 90.0554C86.3114 90.3718 86.1852 90.5978 86.1852 90.869C86.1852 91.2305 86.3114 91.3661 86.606 91.3661C86.7743 91.3661 86.9846 91.2305 87.195 90.9142C88.2048 89.5583 88.7097 88.2928 88.7097 87.0724C88.7097 86.4849 88.5414 85.9877 88.2469 85.581C88.0365 85.1742 87.6578 84.9934 87.2371 84.9934Z" fill="#054D94"/>
<path d="M90.603 94.6202L90.8134 94.801C91.4866 95.3434 92.2439 95.6598 93.0433 95.6598C93.8428 95.6598 94.558 95.3886 95.0629 94.8914C95.6099 94.3943 95.8623 93.7615 95.8623 93.0384C95.8623 92.5864 95.7361 92.1796 95.5257 91.8181C95.3574 91.5469 95.105 91.3209 94.8105 91.1853C94.5159 91.0497 94.0531 90.9141 93.422 90.7785C92.6226 90.6429 92.1177 90.5074 91.9494 90.417C91.7391 90.3266 91.6128 90.1006 91.6128 89.8294C91.6128 89.4678 91.7811 89.0611 92.5805 89.0611C93.0854 89.0611 93.5482 89.3322 93.8848 89.8294C94.1373 90.191 94.4318 90.3718 94.7263 90.3718C95.1891 90.3718 95.3574 90.1458 95.3574 89.6938V89.287C95.3574 89.1515 95.3574 89.0611 95.3574 89.0159C95.3574 88.8351 95.3574 88.6543 95.3995 88.4735C95.4416 88.3379 95.4416 88.2023 95.4416 88.0667C95.4416 87.886 95.3574 87.66 94.8105 87.66C94.2635 87.66 94.1794 87.9763 94.1373 88.2023L94.1793 88.3831L94.0111 88.2023C93.5062 87.7956 92.9171 87.5696 92.2019 87.5696C91.4866 87.5696 90.8555 87.7956 90.3927 88.2475C89.9299 88.6995 89.7195 89.287 89.7195 90.0554C89.7195 90.4622 89.8036 90.8237 89.9719 91.1401C90.1402 91.4565 90.3506 91.6825 90.603 91.8181C90.8976 91.9536 91.3604 92.1344 92.0336 92.27L92.8751 92.4508C93.5062 92.5864 93.8007 92.8576 93.8007 93.2643C93.8007 93.6259 93.5903 94.1231 92.6226 94.1231C92.2019 94.1231 91.8653 94.0779 91.6549 93.9423C91.4445 93.8067 91.1921 93.5355 90.9396 93.1288C90.8134 92.9028 90.6451 92.7672 90.561 92.6768C90.4348 92.5864 90.2665 92.5864 90.014 92.5864C89.425 92.5864 89.3408 92.9028 89.3408 93.1288C89.3408 93.2191 89.3408 93.3547 89.3829 93.5355C89.3829 93.7163 89.425 93.8519 89.425 93.9875C89.425 94.0779 89.425 94.2587 89.3829 94.4846C89.3829 94.7106 89.3408 94.8462 89.3408 94.9366C89.3408 95.2078 89.425 95.479 90.014 95.479C90.4348 95.479 90.603 95.2982 90.603 94.8462V94.6202Z" fill="#054D94"/>
<path d="M55.2188 100.496C55.7657 100.496 56.6493 100.451 56.6493 99.6371C56.6493 99.0043 56.1023 98.8687 55.5974 98.8687C55.3871 98.8687 55.0505 98.8687 54.798 98.9591C54.6718 99.0043 54.5877 99.0043 54.5877 99.1399C54.5877 99.2303 54.5877 99.5919 54.5877 99.6823C54.5456 100.496 54.5035 100.496 55.2188 100.496ZM55.0926 100.948C54.5456 100.948 54.5456 100.993 54.5456 101.535V102.123C54.5456 102.304 54.5035 102.665 54.6718 102.801C54.8401 102.936 55.345 102.936 55.5554 102.936C55.8499 102.936 56.2286 102.891 56.481 102.71C56.7334 102.53 56.8597 102.213 56.8597 101.852C56.8597 101.038 56.1444 100.903 55.5133 100.903H55.0926V100.948ZM53.9986 100.044C53.9986 99.8178 53.9986 99.3659 53.9566 99.1399C53.9145 98.9591 53.7883 98.8687 53.62 98.8687C53.4937 98.8687 53.4096 98.9139 53.2834 98.9139C53.1571 98.9139 53.073 98.8235 53.073 98.6879C53.073 98.5523 53.1571 98.4167 53.3675 98.4167C53.662 98.4167 53.8303 98.5071 54.3352 98.5071C54.8822 98.5071 55.2609 98.4167 55.7237 98.4167C56.0603 98.4167 56.481 98.4619 56.7334 98.6427C57.07 98.8687 57.2383 99.2303 57.2383 99.6371C57.2383 100.179 56.9017 100.541 56.4389 100.677C57.028 100.857 57.4487 101.264 57.4487 101.942C57.4487 102.394 57.2383 102.801 56.9017 103.072C56.5652 103.343 56.1023 103.388 55.6816 103.388C55.1767 103.388 54.8401 103.298 54.2931 103.298C53.8724 103.298 53.5358 103.388 53.3254 103.388C53.1571 103.388 53.1151 103.298 53.073 103.117C53.073 102.982 53.1571 102.891 53.2834 102.891C53.4096 102.891 53.4937 102.936 53.62 102.936C53.7883 102.936 53.9145 102.846 53.9566 102.665C53.9986 102.439 53.9986 101.987 53.9986 101.761V100.044Z" fill="#054D94"/>
<path d="M58.5004 100.722C58.5004 100.27 58.4163 100.134 58.29 100.134C58.1638 100.134 58.0797 100.179 57.9955 100.179C57.8693 100.179 57.7852 100.089 57.7852 99.9533C57.7852 99.7725 57.9535 99.6821 58.1217 99.6821C58.248 99.6821 58.3742 99.7725 58.5004 99.7725C58.6266 99.7725 58.7529 99.6821 58.8791 99.6821C59.0474 99.6821 59.0895 99.8177 59.0895 99.9985C59.0895 100.586 59.0474 100.767 59.0474 101.264V101.58C59.0474 101.852 59.0474 102.304 59.1315 102.53C59.2157 102.891 59.5523 103.027 59.8889 103.027C60.3096 103.027 60.6462 102.846 60.7724 102.394C60.8566 102.078 60.8986 101.58 60.8986 101.219V100.722C60.8986 100.315 60.7724 100.134 60.6462 100.134C60.52 100.134 60.4358 100.179 60.3517 100.179C60.2255 100.179 60.1413 100.089 60.1413 99.9533C60.1413 99.7725 60.2675 99.6821 60.4358 99.6821C60.6041 99.6821 60.7303 99.7725 60.8566 99.7725C60.9828 99.7725 61.109 99.6821 61.2352 99.6821C61.3615 99.6821 61.4456 99.7725 61.4456 99.9081C61.4456 100.27 61.4456 100.586 61.4456 100.993V102.349C61.4456 102.846 61.5298 102.936 61.656 102.936C61.7822 102.936 61.8663 102.891 61.9505 102.891C62.0767 102.891 62.1609 102.981 62.1609 103.117C62.1609 103.298 62.0346 103.388 61.8663 103.388C61.7401 103.388 61.6139 103.298 61.4877 103.298C61.3615 103.298 61.2352 103.388 61.109 103.388C60.9828 103.388 60.9407 103.253 60.9407 102.936C60.6883 103.343 60.3096 103.479 59.8468 103.479C59.5523 103.479 59.2157 103.388 58.9632 103.162C58.6687 102.936 58.5846 102.575 58.5846 102.213V100.722H58.5004Z" fill="#054D94"/>
<path d="M63.0025 100.722C63.0025 100.225 62.9605 100.134 62.7922 100.134C62.6659 100.134 62.5818 100.179 62.4135 100.179C62.2873 100.179 62.2031 100.089 62.2031 99.9534C62.2031 99.7726 62.3293 99.6822 62.4976 99.6822C62.6239 99.6822 62.708 99.7726 62.8763 99.7726C63.0446 99.7726 63.1288 99.6822 63.255 99.6822C63.4233 99.6822 63.4654 99.8178 63.4233 100.134C63.6336 99.7726 63.9702 99.5918 64.3489 99.5918C64.8959 99.5918 65.4428 99.9534 65.4428 100.586C65.4428 100.948 65.2745 101.309 64.8959 101.309C64.7276 101.309 64.5172 101.174 64.5172 100.948C64.5172 100.812 64.6434 100.631 64.7696 100.631C64.8117 100.631 64.8117 100.631 64.8538 100.631C64.8959 100.586 64.8959 100.541 64.8959 100.451C64.8959 100.134 64.5593 99.9534 64.3068 99.9534C63.8019 99.9534 63.4654 100.27 63.4654 101.309V102.258C63.4654 102.801 63.5495 102.846 63.6757 102.846C63.8019 102.846 63.8861 102.801 63.9702 102.801C64.0965 102.801 64.1806 102.891 64.1806 103.027C64.1806 103.208 64.0123 103.298 63.8861 103.298C63.6757 103.298 63.4654 103.208 63.2129 103.208C62.9184 103.208 62.7922 103.298 62.4976 103.298C62.3293 103.298 62.2031 103.208 62.2031 103.027C62.2031 102.891 62.2873 102.801 62.4135 102.801C62.4976 102.801 62.6239 102.846 62.708 102.846C62.8342 102.846 62.8763 102.756 62.8763 102.258V100.722H63.0025Z" fill="#054D94"/>
<path d="M68.1355 100.767C68.1355 100.315 67.7568 100.044 67.336 100.044C66.9153 100.044 66.5787 100.36 66.5787 100.767C66.5787 101.219 66.9153 101.49 67.336 101.49C67.7568 101.535 68.1355 101.264 68.1355 100.767ZM66.5366 103.072C66.3263 103.162 66.2 103.343 66.2 103.614C66.2 103.885 66.4104 104.066 66.6208 104.157C66.8312 104.247 67.1257 104.247 67.336 104.247C67.7147 104.247 68.5141 104.157 68.5141 103.569C68.5141 102.982 67.7989 102.936 67.3781 102.936C67.1257 102.936 66.7891 102.982 66.5366 103.072ZM67.1677 102.439C67.5464 102.439 67.9251 102.439 68.2617 102.575C68.6824 102.71 69.0611 103.072 69.0611 103.569C69.0611 104.473 68.0092 104.699 67.336 104.699C66.6629 104.699 65.6531 104.518 65.6531 103.569C65.6531 103.162 65.9055 102.846 66.2842 102.71C65.9897 102.575 65.7372 102.394 65.7372 102.032C65.7372 101.671 65.9897 101.4 66.2842 101.309C66.158 101.129 66.1159 100.903 66.1159 100.677C66.1159 99.9534 66.747 99.5014 67.3781 99.5014C67.5043 99.5014 67.6306 99.5014 67.7989 99.5466C67.7989 99.0947 68.1775 98.8235 68.5562 98.8235C68.9349 98.8235 69.3135 99.0495 69.3135 99.4562C69.3135 99.6822 69.1452 99.863 68.9349 99.863C68.8086 99.863 68.6824 99.7274 68.6824 99.5918C68.6824 99.5014 68.7666 99.411 68.8086 99.3658C68.7245 99.2755 68.6403 99.2303 68.5141 99.2303C68.2617 99.2303 68.1355 99.4562 68.1355 99.7274C68.472 99.9534 68.6403 100.315 68.6403 100.722C68.6403 101.49 68.0092 101.942 67.3781 101.942C67.1257 101.942 66.8732 101.852 66.6208 101.761C66.5787 101.761 66.4946 101.716 66.4525 101.716C66.3263 101.716 66.2 101.897 66.2 102.032C66.2 102.394 66.6629 102.394 66.9153 102.394H67.1677V102.439Z" fill="#054D94"/>
<path d="M71.9642 101.083C71.9222 100.496 71.6276 100.044 71.0386 100.044C70.4496 100.044 70.0709 100.496 70.0288 101.083H71.9642ZM69.9447 101.626C69.9026 102.349 70.2813 103.027 71.0386 103.027C71.5014 103.027 71.838 102.801 71.9642 102.304C72.0063 102.168 72.0484 101.987 72.2167 101.987C72.3429 101.987 72.4691 102.078 72.4691 102.258C72.4691 102.575 72.2587 102.891 72.0905 103.072C71.7959 103.343 71.3752 103.479 70.9965 103.479C69.9447 103.479 69.3977 102.62 69.3977 101.58C69.3977 101.083 69.5239 100.586 69.7764 100.179C70.0709 99.7726 70.5337 99.5466 70.9965 99.5466C71.8801 99.5466 72.5112 100.225 72.5112 101.219C72.5112 101.58 72.5112 101.626 72.1746 101.626H69.9447Z" fill="#054D94"/>
<path d="M73.6893 100.722C73.6893 100.225 73.6472 100.134 73.4789 100.134C73.3527 100.134 73.2686 100.179 73.1003 100.179C72.974 100.179 72.8899 100.089 72.8899 99.9534C72.8899 99.7726 73.0161 99.6822 73.1844 99.6822C73.3106 99.6822 73.3948 99.7726 73.5631 99.7726C73.7314 99.7726 73.8155 99.6822 73.9417 99.6822C74.11 99.6822 74.1521 99.8178 74.11 100.134C74.3204 99.7726 74.657 99.5918 75.0357 99.5918C75.5826 99.5918 76.1296 99.9534 76.1296 100.586C76.1296 100.948 75.9613 101.309 75.5826 101.309C75.4143 101.309 75.204 101.174 75.204 100.948C75.204 100.812 75.3302 100.631 75.4564 100.631C75.4985 100.631 75.4985 100.631 75.5406 100.631C75.5826 100.586 75.5826 100.541 75.5826 100.451C75.5826 100.134 75.246 99.9534 74.9936 99.9534C74.4887 99.9534 74.1521 100.27 74.1521 101.309V102.258C74.1521 102.801 74.2363 102.846 74.3625 102.846C74.4887 102.846 74.5729 102.801 74.657 102.801C74.7832 102.801 74.8674 102.891 74.8674 103.027C74.8674 103.208 74.7412 103.298 74.5729 103.298C74.3625 103.298 74.1521 103.208 73.8997 103.208C73.6052 103.208 73.4789 103.298 73.1844 103.298C73.0161 103.298 72.8899 103.208 72.8899 103.027C72.8899 102.891 72.974 102.801 73.1003 102.801C73.1844 102.801 73.3106 102.846 73.3948 102.846C73.521 102.846 73.5631 102.756 73.5631 102.258V100.722H73.6893Z" fill="#054D94"/>
<path d="M81.389 100.044C81.389 99.8178 81.389 99.3659 81.3469 99.1399C81.3048 98.9591 81.1786 98.8687 81.0103 98.8687C80.8841 98.8687 80.7999 98.9139 80.6737 98.9139C80.5475 98.9139 80.4633 98.8235 80.4633 98.6879C80.4633 98.5071 80.5895 98.4167 80.7158 98.4167C81.0103 98.4167 81.2627 98.5071 81.5993 98.5071C81.9359 98.5071 82.1463 98.4167 82.4829 98.4167C82.6512 98.4167 82.7774 98.5071 82.7774 98.6879C82.7774 98.8235 82.6933 98.9139 82.567 98.9139C82.4408 98.9139 82.3567 98.8687 82.2304 98.8687C82.0621 98.8687 81.9359 98.9591 81.8938 99.1399C81.8518 99.3659 81.8518 99.8178 81.8518 100.044V100.496C81.8518 101.038 81.8938 102.078 81.7256 102.53C81.431 103.208 80.7999 103.524 80.1267 103.524C79.2852 103.524 78.4858 103.072 78.4858 102.078C78.4858 101.49 78.9066 100.993 79.4535 100.993C79.7901 100.993 80.1267 101.219 80.1267 101.581C80.1267 101.806 79.9584 102.032 79.7481 102.032C79.5798 102.032 79.4115 101.897 79.4115 101.716C79.4115 101.626 79.4535 101.581 79.4956 101.535C79.4535 101.49 79.4535 101.49 79.3694 101.49C79.159 101.49 78.9907 101.852 78.9907 102.032C78.9907 102.665 79.4956 103.027 80.0426 103.027C80.4213 103.027 80.842 102.891 81.0524 102.53C81.2627 102.123 81.2627 101.671 81.2627 101.219V100.044H81.389Z" fill="#054D94"/>
<path d="M84.4601 103.027C85.3016 103.027 85.5541 102.258 85.5541 101.49C85.5541 101.174 85.4699 100.767 85.3016 100.451C85.1333 100.134 84.7967 100.044 84.5022 100.044C84.1236 100.044 83.829 100.179 83.6607 100.541C83.4924 100.812 83.4504 101.219 83.4504 101.535C83.4083 102.213 83.6607 103.027 84.4601 103.027ZM84.4601 99.5918C84.923 99.5918 85.3858 99.7274 85.6803 100.134C85.9748 100.541 86.101 101.038 86.101 101.535C86.101 102.62 85.5541 103.524 84.4601 103.524C83.4083 103.524 82.8613 102.62 82.8613 101.58C82.8613 100.496 83.3662 99.5918 84.4601 99.5918Z" fill="#054D94"/>
<path d="M87.742 98.8687C87.742 99.0947 87.5737 99.2755 87.3633 99.2755C87.1529 99.2755 86.9846 99.0947 86.9846 98.8687C86.9846 98.6427 87.1529 98.4619 87.3633 98.4619C87.5737 98.4619 87.742 98.6427 87.742 98.8687ZM87.2371 100.722C87.2371 100.225 87.195 100.134 87.0267 100.134C86.9005 100.134 86.8163 100.179 86.7322 100.179C86.606 100.179 86.5218 100.089 86.5218 99.9534C86.5218 99.7726 86.648 99.6822 86.7743 99.6822C86.9426 99.6822 87.0688 99.7726 87.195 99.7726C87.3633 99.7726 87.4474 99.6822 87.5737 99.6822C87.742 99.6822 87.742 99.863 87.742 99.9986V102.665C87.742 102.846 87.784 102.982 87.9103 102.982C87.9944 102.982 88.0786 102.936 88.1627 102.936C88.2889 102.936 88.3731 103.027 88.3731 103.162C88.3731 103.343 88.2469 103.434 88.0786 103.434C87.8682 103.434 87.6578 103.343 87.4054 103.343C87.1109 103.343 86.9426 103.434 86.6901 103.434C86.5639 103.434 86.4797 103.298 86.4797 103.162C86.4797 103.027 86.5639 102.936 86.6901 102.936C86.7743 102.936 86.9005 102.982 86.9846 102.982C87.1529 102.982 87.195 102.846 87.195 102.394V100.722H87.2371Z" fill="#054D94"/>
<path d="M89.3409 100.722C89.3409 100.225 89.2988 100.134 89.1305 100.134C89.0043 100.134 88.9202 100.179 88.836 100.179C88.7098 100.179 88.6257 100.089 88.6257 99.9534C88.6257 99.8178 88.7519 99.6822 88.8781 99.6822C89.0043 99.6822 89.0464 99.7726 89.2568 99.7726C89.4671 99.7726 89.5092 99.6822 89.6775 99.6822C89.8037 99.6822 89.8037 99.8178 89.8037 100.134C90.0562 99.7726 90.519 99.5918 90.8977 99.5918C91.2343 99.5918 91.6129 99.7274 91.8654 99.9986C92.1599 100.27 92.1599 100.631 92.1599 101.038V102.349C92.1599 102.801 92.202 102.936 92.3703 102.936C92.4965 102.936 92.5806 102.891 92.6648 102.891C92.791 102.891 92.8751 102.982 92.8751 103.117C92.8751 103.298 92.7489 103.388 92.5806 103.388C92.3703 103.388 92.202 103.298 91.9074 103.298C91.5708 103.298 91.4446 103.388 91.1922 103.388C91.0239 103.388 90.8977 103.298 90.8977 103.117C90.8977 102.982 90.9818 102.891 91.108 102.891C91.1922 102.891 91.3184 102.936 91.4025 102.936C91.5708 102.936 91.6129 102.801 91.6129 102.349V101.309C91.6129 100.857 91.6129 100.722 91.4867 100.496C91.3605 100.225 91.0239 100.089 90.7714 100.089C90.4769 100.089 90.1403 100.225 89.972 100.496C89.8879 100.631 89.8037 100.812 89.8037 101.49V102.349C89.8037 102.801 89.8458 102.936 90.0141 102.936C90.1403 102.936 90.2245 102.891 90.3086 102.891C90.4348 102.891 90.519 102.982 90.519 103.117C90.519 103.298 90.3928 103.388 90.2245 103.388C90.0141 103.388 89.8458 103.298 89.5513 103.298C89.2147 103.298 89.0885 103.388 88.836 103.388C88.6677 103.388 88.5415 103.298 88.5415 103.117C88.5415 102.982 88.6257 102.891 88.7519 102.891C88.836 102.891 88.9622 102.936 89.0464 102.936C89.2147 102.936 89.2568 102.801 89.2568 102.349V100.722H89.3409Z" fill="#054D94"/>
<path d="M93.5061 100.451C93.5061 100.225 93.464 100.179 93.2537 100.179C93.0012 100.179 92.875 100.134 92.875 99.9082C92.875 99.7726 93.0012 99.637 93.1274 99.637H93.3799C93.5061 99.637 93.5061 99.5918 93.5061 99.411V98.8235C93.5061 98.6427 93.5482 98.4619 93.7586 98.4619C93.9689 98.4619 94.011 98.6427 94.011 98.8235V99.5466C94.011 99.637 94.011 99.6822 94.1372 99.6822H94.8104C95.0629 99.6822 95.147 99.7726 95.147 99.9534C95.147 100.089 95.1049 100.225 94.7683 100.225H94.1793C94.011 100.225 94.011 100.225 94.011 100.36V102.078C94.011 102.71 94.1372 102.936 94.5159 102.936C94.9366 102.936 94.9787 102.575 94.9787 102.213V101.987C94.9787 101.671 95.0629 101.535 95.2312 101.535C95.3994 101.535 95.4836 101.716 95.4836 101.897C95.4836 102.71 95.3574 103.434 94.4317 103.434C94.1372 103.434 93.8006 103.298 93.6323 102.982C93.5482 102.756 93.5061 102.62 93.5061 102.032V100.451Z" fill="#054D94"/>
</svg>
