<svg width="262" height="226" viewBox="0 0 262 226" fill="none" xmlns="http://www.w3.org/2000/svg">
<path d="M36 48H119.665C122.813 48 125.376 50.1496 125.376 52.8222V164.807H36V48Z" stroke="#054D94" stroke-width="2" stroke-miterlimit="10"/>
<path d="M125.159 53.3357C125.159 53.3357 166.603 51.4899 168.521 55.2248L191.874 106.533L222.074 115.719C231.833 119.887 225.793 164.836 207.01 164.519" stroke="#054D94" stroke-width="2" stroke-miterlimit="10"/>
<path d="M134.472 66.7902C134.472 66.7902 159.987 65.8961 161.558 66.7902C163.13 67.6843 181.682 105.683 179.88 106.043C178.078 106.404 134.472 106.043 134.472 106.043V66.7902Z" stroke="#054D94" stroke-miterlimit="10"/>
<path d="M135.236 116.08H146.393" stroke="#054D94" stroke-miterlimit="10"/>
<path d="M190.865 177.699C199.606 177.699 206.693 170.61 206.693 161.865C206.693 153.121 199.606 146.031 190.865 146.031C182.123 146.031 175.037 153.121 175.037 161.865C175.037 170.61 182.123 177.699 190.865 177.699Z" stroke="#054D94" stroke-width="2" stroke-miterlimit="10"/>
<path d="M190.865 168.888C194.742 168.888 197.885 165.744 197.885 161.865C197.885 157.987 194.742 154.843 190.865 154.843C186.988 154.843 183.844 157.987 183.844 161.865C183.844 165.744 186.988 168.888 190.865 168.888Z" stroke="#054D94" stroke-miterlimit="10"/>
<path d="M125.159 164.519H175.022" stroke="#054D94" stroke-width="2" stroke-miterlimit="10"/>
<path d="M55.0434 92.105C55.4642 92.105 55.9691 92.1502 56.5581 92.1954C56.9368 92.2406 57.2734 92.2406 57.5258 92.2406C58.199 92.2406 58.4935 91.879 58.4935 91.1559C58.4935 90.6135 58.2411 90.3423 57.7362 90.3423C57.652 90.3423 57.4837 90.3423 57.2734 90.3875C57.063 90.4327 56.8947 90.4327 56.7685 90.4327C56.474 90.4327 56.1374 90.2519 56.1374 89.348V84.8735C56.1374 84.4668 56.2215 84.1504 56.3477 83.9696C56.474 83.7888 56.7264 83.6984 57.063 83.6984C57.7362 83.6984 57.8203 84.1504 57.8203 84.3764C57.8203 84.4668 57.8203 84.6476 57.7783 84.8735C57.7362 85.0543 57.7362 85.2351 57.7362 85.3707C57.7362 86.1842 58.0307 86.591 58.7039 86.591C58.9984 86.591 59.2088 86.5006 59.4192 86.2746C59.5874 86.0938 59.6716 85.7775 59.6716 85.4159C59.6716 85.3707 59.6716 85.0995 59.6295 84.6927C59.5874 84.3312 59.5874 84.1052 59.5874 83.9244C59.5874 83.7436 59.5874 83.5176 59.6295 83.2013C59.6716 82.9301 59.6716 82.7041 59.6716 82.5233C59.6716 82.1617 59.5033 81.981 59.1246 81.981C58.9143 81.981 58.6197 81.981 58.2832 82.0262C57.5679 82.1165 56.4319 82.1617 55.0434 82.1617C53.655 82.1617 52.5611 82.1165 51.7617 82.0262C51.4251 82.0262 51.1305 81.981 50.9202 81.981C50.5836 81.981 50.4153 82.1617 50.4153 82.5233C50.4153 82.6589 50.4153 82.8849 50.4574 83.1109C50.4994 83.5176 50.4994 83.7436 50.4994 83.8792C50.4994 84.1052 50.4994 84.3764 50.4574 84.6476C50.4153 85.0543 50.4153 85.2803 50.4153 85.4159C50.4153 85.7775 50.4994 86.0486 50.6677 86.2746C50.836 86.4554 51.0885 86.5458 51.383 86.5458C52.0562 86.5458 52.3507 86.139 52.3507 85.2803C52.3507 85.1899 52.3507 85.0543 52.3086 84.8283C52.2665 84.6476 52.2245 84.4668 52.2245 84.3764C52.2245 84.06 52.3507 83.6984 53.066 83.6984C53.4446 83.6984 53.9074 83.9244 53.9074 84.8735V89.348C53.9074 90.2519 53.5708 90.4327 53.2763 90.4327C53.1501 90.4327 52.9818 90.4327 52.7714 90.3875C52.5611 90.3423 52.4348 90.3423 52.3086 90.3423C51.8037 90.3423 51.5513 90.6135 51.5513 91.2462C51.5513 91.9242 51.8458 92.2406 52.519 92.2406C52.8135 92.2406 53.1501 92.2406 53.4867 92.1954C54.1178 92.105 54.6227 92.105 55.0434 92.105Z" fill="#054D94"/>
<path d="M63.6687 90.7944C63.1638 90.7944 62.7851 90.5684 62.5327 90.1616C62.2802 89.7549 62.154 89.1673 62.154 88.4442C62.154 87.721 62.2802 87.1335 62.5327 86.7267C62.7851 86.2747 63.1638 86.0487 63.6687 86.0487C64.6785 86.0487 65.1833 86.8623 65.1833 88.4442C65.1413 89.9808 64.6364 90.7944 63.6687 90.7944ZM63.6266 84.3765C62.4906 84.3765 61.607 84.738 60.9759 85.416C60.3448 86.1391 60.0503 87.1335 60.0503 88.399C60.0503 89.6645 60.3869 90.6588 60.9759 91.3819C61.607 92.0599 62.4906 92.4214 63.6687 92.4214C64.7626 92.4214 65.6462 92.0599 66.2773 91.3367C66.9084 90.6136 67.2029 89.6193 67.2029 88.3086C67.2029 87.0883 66.8663 86.0939 66.2352 85.416C65.6462 84.738 64.7626 84.3765 63.6266 84.3765Z" fill="#054D94"/>
<path d="M76.9219 86.1843C77.3427 86.1843 77.6372 86.3199 77.7634 86.6363C77.8896 86.9075 77.9738 87.3594 77.9738 88.0826V89.7097C77.9738 90.252 77.9317 90.3876 77.9317 90.4328C77.8896 90.5684 77.7213 90.6588 77.511 90.704C77.3427 90.7492 77.0902 90.8396 77.0902 91.3819C77.0902 91.6531 77.1744 91.8339 77.3006 92.0147C77.4268 92.1955 77.5951 92.2407 77.7634 92.2407C77.8896 92.2407 78.0579 92.2407 78.3524 92.1955C78.647 92.1503 78.9415 92.1503 79.2781 92.1503C79.5305 92.1503 79.7409 92.1503 79.9092 92.1955L80.2458 92.2407C80.5824 92.2859 80.6244 92.2859 80.6665 92.2859C80.8769 92.2859 81.0452 92.1955 81.1714 92.0147C81.2976 91.8339 81.3818 91.6079 81.3818 91.2915C81.3818 90.704 81.1293 90.6136 80.8769 90.6136C80.7927 90.6136 80.7507 90.6136 80.7086 90.6588C80.5824 90.704 80.4982 90.7492 80.4141 90.7492C79.9933 90.7492 79.9933 90.026 79.9933 89.8001V87.4046C79.9933 86.4555 79.825 85.7776 79.5726 85.3256C79.1519 84.6928 78.5207 84.4217 77.6372 84.4217C77.2164 84.4217 76.8378 84.5121 76.5012 84.6476C76.1646 84.8284 75.7438 85.0996 75.281 85.5516L75.0707 85.642L74.9865 85.5064C74.5237 84.738 73.9767 84.3765 73.2615 84.3765C72.42 84.3765 71.6206 84.8284 70.9474 85.7324L70.737 86.0487V84.964C70.737 84.6928 70.6529 84.6476 70.4846 84.6476C70.3584 84.6476 70.2321 84.6476 69.9797 84.6928C69.7272 84.738 69.5589 84.738 69.4327 84.738C69.3065 84.738 69.1382 84.738 68.9699 84.6928C68.6333 84.6476 68.5492 84.6024 68.5071 84.6024C68.2967 84.6024 68.1284 84.6928 67.9601 84.8284C67.8339 85.0092 67.7498 85.2352 67.7498 85.5064C67.7498 86.1391 68.0443 86.2295 68.2967 86.2295C68.3388 86.2295 68.3809 86.2295 68.5071 86.1843C68.6754 86.1391 68.7175 86.1391 68.7595 86.1391C69.0961 86.1391 69.1382 86.6815 69.1382 87.1787V89.7097C69.1382 90.1616 69.0961 90.704 68.7595 90.704C68.6754 90.704 68.5912 90.704 68.5071 90.6588C68.5071 90.6136 68.4229 90.6136 68.3388 90.6136C68.0863 90.6136 67.7918 90.704 67.7918 91.3819C67.7918 91.6531 67.876 91.8791 68.0022 92.0147C68.1284 92.1955 68.2967 92.2407 68.5492 92.2407C68.6333 92.2407 68.8858 92.1955 69.2644 92.1503C69.5169 92.1051 69.7272 92.1051 69.9797 92.1051C70.148 92.1051 70.4004 92.1051 70.737 92.1503C71.0736 92.1955 71.284 92.1955 71.4523 92.1955C71.7468 92.1955 72.1255 92.1051 72.1255 91.3367C72.1255 90.93 71.9992 90.704 71.6627 90.6588C71.4523 90.6136 71.3681 90.5684 71.284 90.478C71.2419 90.3876 71.1998 90.2972 71.1998 90.0712V88.173C71.1998 86.8171 71.6627 86.1391 72.5883 86.1391C72.9669 86.1391 73.2615 86.2747 73.3877 86.5459C73.5139 86.8171 73.5981 87.2238 73.5981 87.8566V89.6193C73.5981 89.6645 73.5981 89.8452 73.5981 90.1164C73.5981 90.3876 73.4718 90.5684 73.2194 90.6136C73.0511 90.6588 72.8828 90.7944 72.8828 91.2915C72.8828 92.0599 73.2194 92.1503 73.4718 92.1503C73.5981 92.1503 73.7243 92.1503 73.9767 92.1051C74.2292 92.0599 74.3975 92.0599 74.5237 92.0599C74.6499 92.0599 74.8603 92.1051 75.1969 92.1503C75.3652 92.1955 75.5335 92.1955 75.6176 92.1955C75.9121 92.1955 76.2908 92.1051 76.2908 91.2915C76.2908 90.7944 76.0804 90.704 75.9542 90.6588C75.7438 90.6136 75.6597 90.478 75.6176 90.3876C75.5755 90.2972 75.5755 90.1616 75.5755 89.6645V88.2182C75.5335 86.9075 75.9963 86.1843 76.9219 86.1843Z" fill="#054D94"/>
<path d="M94.8035 90.6136C94.7193 90.6136 94.6773 90.6136 94.6352 90.6588C94.509 90.7039 94.4248 90.7491 94.3407 90.7491L93.962 90.252C93.9199 90.0712 93.9199 89.8904 93.9199 89.8V87.4046C93.9199 86.4555 93.7516 85.7775 93.4992 85.3256C93.0784 84.6928 92.4473 84.4216 91.5638 84.4216C91.143 84.4216 90.7644 84.512 90.4278 84.6476C90.0912 84.8284 89.6704 85.0996 89.2076 85.5515L89.0814 85.6419L88.9973 85.5063C88.5344 84.7832 87.9875 84.4216 87.2722 84.4216C86.4307 84.4216 85.6313 84.8736 84.9581 85.7775L84.7478 86.0939V84.964C84.7478 84.6928 84.6636 84.6476 84.4953 84.6476C84.3691 84.6476 84.2429 84.6476 83.9904 84.6928C83.738 84.738 83.5697 84.738 83.4435 84.738C83.3172 84.738 83.1489 84.738 82.9806 84.6928C82.6441 84.6476 82.5599 84.6024 82.5178 84.6024C82.3075 84.6024 82.1392 84.6928 81.9709 84.8284C81.8446 85.0092 81.7605 85.2352 81.7605 85.5063C81.7605 86.1391 82.055 86.2295 82.3075 86.2295C82.3495 86.2295 82.3916 86.2295 82.5178 86.1843C82.6861 86.1391 82.7282 86.1391 82.7703 86.1391C83.1069 86.1391 83.1489 86.6815 83.1489 87.1786V89.7096C83.1489 90.1616 83.1069 90.7039 82.7703 90.7039C82.6861 90.7039 82.602 90.7039 82.5178 90.6588C82.4758 90.6136 82.3916 90.6136 82.3495 90.6136C82.0971 90.6136 81.8026 90.7039 81.8026 91.3819C81.8026 91.6531 81.8867 91.8791 82.0129 92.0146C82.1392 92.1954 82.3075 92.2406 82.5599 92.2406C82.6441 92.2406 82.8965 92.1954 83.2752 92.1502C83.5276 92.105 83.738 92.105 83.9904 92.105C84.1587 92.105 84.4112 92.105 84.7478 92.1502C85.0844 92.1954 85.2947 92.1954 85.463 92.1954C85.7575 92.1954 86.1362 92.105 86.1362 91.3367C86.1362 90.9299 86.01 90.7039 85.6734 90.6588C85.463 90.6136 85.3789 90.5684 85.2947 90.478C85.2527 90.3876 85.2106 90.2972 85.2106 90.0712V88.1729C85.2106 86.817 85.6734 86.1391 86.599 86.1391C86.9777 86.1391 87.2722 86.2747 87.3984 86.5459C87.5247 86.817 87.6088 87.2238 87.6088 87.8566V89.6192C87.6088 89.6644 87.6088 89.8452 87.6088 90.1164C87.6088 90.3876 87.4826 90.5684 87.2301 90.6136C87.0618 90.6588 86.8935 90.7943 86.8935 91.2915C86.8935 92.0598 87.2301 92.1502 87.4826 92.1502C87.6088 92.1502 87.735 92.1502 87.9875 92.105C88.2399 92.0598 88.4082 92.0598 88.5344 92.0598C88.6607 92.0598 88.871 92.105 89.2076 92.1502C89.3759 92.1954 89.5442 92.1954 89.6284 92.1954C89.9229 92.1954 90.3016 92.105 90.3016 91.2915C90.3016 90.7943 90.0912 90.7039 89.965 90.6588C89.7546 90.6136 89.6704 90.478 89.6284 90.3876C89.5863 90.3424 89.5442 90.1616 89.5442 89.6644V88.2181C89.5442 86.8622 90.007 86.1843 90.8906 86.1843L91.9424 87.5854C91.9424 87.721 91.9424 87.9018 91.9424 88.0826V89.7096C91.9424 90.252 91.9004 90.3876 91.9004 90.4328C91.8583 90.5684 91.69 90.6588 91.4796 90.7039C91.3113 90.7491 91.0589 90.8395 91.0589 91.3819C91.0589 91.6531 91.143 91.8339 91.2693 92.0146C91.3955 92.1954 91.5638 92.2406 91.7321 92.2406C91.8583 92.2406 92.0266 92.2406 92.3211 92.1954C92.6156 92.1502 92.9102 92.1502 93.2467 92.1502C93.4992 92.1502 93.7096 92.1502 93.8779 92.1954L94.2144 92.2406C94.551 92.2858 94.5931 92.2858 94.6352 92.2858C94.8456 92.2858 95.0139 92.1954 95.1401 92.0146C95.2663 91.8339 95.3505 91.6079 95.3505 91.2915C95.3084 90.6588 95.0139 90.6136 94.8035 90.6136Z" fill="#054D94"/>
<path d="M98.0853 81.1675C97.7487 81.1675 97.4542 81.3031 97.2438 81.5291C96.9914 81.8002 96.9072 82.0714 96.9072 82.433C96.9072 82.7946 97.0335 83.0657 97.2438 83.3369C97.4963 83.6081 97.7487 83.6985 98.0853 83.6985C98.4219 83.6985 98.7164 83.5629 98.9268 83.3369C99.1792 83.0657 99.2634 82.7946 99.2634 82.433C99.2634 82.0714 99.1372 81.755 98.9268 81.5291C98.7164 81.3031 98.4219 81.1675 98.0853 81.1675ZM98.0853 92.105C98.4219 92.105 98.7585 92.105 99.0109 92.1502C99.4317 92.1954 99.7262 92.2406 99.8104 92.2406C100.105 92.2406 100.526 92.1502 100.526 91.2915C100.526 90.7039 100.273 90.6136 100.063 90.6136C100.021 90.6136 99.9366 90.6136 99.8524 90.6588C99.6841 90.7039 99.6421 90.7039 99.6 90.7039C99.1792 90.7039 99.1792 89.9808 99.1792 89.7548V85.0996C99.1792 84.6476 98.9689 84.6476 98.8847 84.6476C98.8847 84.6476 98.8006 84.6476 98.464 84.6928C98.2536 84.738 98.0012 84.738 97.8329 84.738C97.6225 84.738 97.328 84.6928 96.9914 84.6476C96.781 84.6024 96.6548 84.6024 96.5286 84.6024C96.2761 84.6024 96.1078 84.6928 95.9816 84.8284C95.8554 85.0092 95.7712 85.19 95.7712 85.5063C95.7712 86.1391 96.0658 86.2295 96.3182 86.2295C96.3603 86.2295 96.4444 86.2295 96.5286 86.1843C96.7389 86.0939 96.781 86.0939 96.8231 86.0939C97.1597 86.0939 97.2018 86.6363 97.2018 87.1334V89.7096C97.2018 89.9808 97.2018 90.7039 96.8231 90.7039C96.781 90.7039 96.7389 90.7039 96.6969 90.7039L96.3182 90.6136C96.0658 90.6136 95.7712 90.7039 95.7712 91.3819C95.7712 91.6531 95.8554 91.8791 95.9816 92.0146C96.1078 92.1954 96.3182 92.2406 96.5286 92.2406C96.6969 92.2406 96.9493 92.2406 97.2859 92.1954C97.6646 92.1502 97.917 92.105 98.0853 92.105Z" fill="#054D94"/>
<path d="M102.335 81.8003C101.998 81.8003 101.704 81.9359 101.451 82.2071C101.199 82.4782 101.073 82.8398 101.073 83.2466C101.073 83.9697 101.409 84.4217 102.04 84.6025C102.377 84.7381 102.461 84.9189 102.461 85.0544C102.461 85.2352 102.377 85.642 101.577 86.8623C101.409 87.1787 101.283 87.4047 101.283 87.6758C101.283 88.0374 101.409 88.173 101.704 88.173C101.872 88.173 102.082 88.0374 102.293 87.721C103.302 86.3651 103.807 85.0996 103.807 83.8793C103.807 83.2918 103.639 82.7946 103.345 82.3878C103.134 81.9811 102.755 81.8003 102.335 81.8003Z" fill="#054D94"/>
<path d="M105.701 91.4271L105.911 91.6079C106.584 92.1503 107.342 92.4666 108.141 92.4666C108.94 92.4666 109.656 92.1955 110.161 91.6983C110.708 91.2011 110.96 90.5684 110.96 89.8452C110.96 89.3933 110.834 88.9865 110.623 88.6249C110.455 88.3538 110.203 88.1278 109.908 87.9922C109.614 87.8566 109.151 87.721 108.52 87.5854C107.72 87.4498 107.215 87.3142 107.047 87.2238C106.837 87.1335 106.71 86.9075 106.71 86.6363C106.71 86.2747 106.879 85.868 107.678 85.868C108.183 85.868 108.646 86.1391 108.982 86.6363C109.235 86.9979 109.529 87.1786 109.824 87.1786C110.287 87.1786 110.455 86.9527 110.455 86.5007V86.0939C110.455 85.9583 110.455 85.868 110.455 85.8228C110.455 85.642 110.455 85.4612 110.497 85.2804C110.539 85.1448 110.539 85.0092 110.539 84.8736C110.539 84.6928 110.455 84.4669 109.908 84.4669C109.361 84.4669 109.277 84.7832 109.235 85.0092L109.277 85.19L109.109 85.0092C108.604 84.6024 108.015 84.3765 107.3 84.3765C106.584 84.3765 105.953 84.6024 105.49 85.0544C105.028 85.5064 104.817 86.0939 104.817 86.8623C104.817 87.269 104.901 87.6306 105.07 87.947C105.238 88.2634 105.448 88.4893 105.701 88.6249C105.995 88.7605 106.458 88.9413 107.131 89.0769L107.973 89.2577C108.604 89.3933 108.898 89.6645 108.898 90.0712C108.898 90.4328 108.688 90.93 107.72 90.93C107.3 90.93 106.963 90.8848 106.753 90.7492C106.542 90.6136 106.29 90.3424 106.037 89.9356C105.911 89.7097 105.743 89.5741 105.659 89.4837C105.532 89.3933 105.364 89.3933 105.112 89.3933C104.523 89.3933 104.438 89.7097 104.438 89.9356C104.438 90.026 104.438 90.1616 104.481 90.3424C104.481 90.5232 104.523 90.6588 104.523 90.7944C104.523 90.8848 104.523 91.0656 104.481 91.2915C104.481 91.5175 104.438 91.6531 104.438 91.7435C104.438 92.0147 104.523 92.2859 105.112 92.2859C105.532 92.2859 105.701 92.1051 105.701 91.6531V91.4271Z" fill="#054D94"/>
<path d="M70.3164 97.3027C70.8634 97.3027 71.747 97.2575 71.747 96.4439C71.747 95.8112 71.2 95.6756 70.6951 95.6756C70.4847 95.6756 70.1481 95.6756 69.8957 95.766C69.7695 95.8112 69.6853 95.8112 69.6853 95.9468C69.6853 96.0372 69.6853 96.3987 69.6853 96.4891C69.6432 97.3027 69.6012 97.3027 70.3164 97.3027ZM70.1902 97.7546C69.6432 97.7546 69.6432 97.7998 69.6432 98.3422V98.9297C69.6432 99.1105 69.6012 99.4721 69.7695 99.6077C69.9378 99.7433 70.4427 99.7433 70.653 99.7433C70.9475 99.7433 71.3262 99.6981 71.5787 99.5173C71.8311 99.3365 71.9573 99.0201 71.9573 98.6586C71.9573 97.845 71.2421 97.7094 70.611 97.7094H70.1902V97.7546ZM69.0963 96.8507C69.0963 96.6247 69.0963 96.1728 69.0542 95.9468C69.0121 95.766 68.8859 95.6756 68.7176 95.6756C68.5914 95.6756 68.5072 95.7208 68.381 95.7208C68.2548 95.7208 68.1707 95.6304 68.1707 95.4948C68.1707 95.3592 68.2548 95.2236 68.4652 95.2236C68.7597 95.2236 68.928 95.314 69.4329 95.314C69.9798 95.314 70.3585 95.2236 70.8213 95.2236C71.1579 95.2236 71.5787 95.2688 71.8311 95.4496C72.1677 95.6756 72.336 96.0372 72.336 96.4439C72.336 96.9863 71.9994 97.3479 71.5366 97.4835C72.1256 97.6642 72.5464 98.071 72.5464 98.749C72.5464 99.2009 72.336 99.6077 71.9994 99.8789C71.6628 100.15 71.2 100.195 70.7793 100.195C70.2744 100.195 69.9378 100.105 69.3908 100.105C68.9701 100.105 68.6335 100.195 68.4231 100.195C68.2548 100.195 68.2127 100.105 68.1707 99.9241C68.1707 99.7885 68.2548 99.6981 68.381 99.6981C68.5072 99.6981 68.5914 99.7433 68.7176 99.7433C68.8859 99.7433 69.0121 99.6529 69.0542 99.4721C69.0963 99.2461 69.0963 98.7942 69.0963 98.5682V96.8507Z" fill="#054D94"/>
<path d="M73.5981 97.5285C73.5981 97.0766 73.5139 96.941 73.3877 96.941C73.2615 96.941 73.1773 96.9862 73.0932 96.9862C72.967 96.9862 72.8828 96.8958 72.8828 96.7602C72.8828 96.5794 73.0511 96.489 73.2194 96.489C73.3456 96.489 73.4718 96.5794 73.5981 96.5794C73.7243 96.5794 73.8505 96.489 73.9767 96.489C74.145 96.489 74.1871 96.6246 74.1871 96.8054C74.1871 97.3929 74.145 97.5737 74.145 98.0709V98.3873C74.145 98.6584 74.145 99.1104 74.2292 99.3364C74.3133 99.698 74.6499 99.8336 74.9865 99.8336C75.4073 99.8336 75.7439 99.6528 75.8701 99.2008C75.9542 98.8844 75.9963 98.3873 75.9963 98.0257V97.5285C75.9963 97.1218 75.8701 96.941 75.7439 96.941C75.6176 96.941 75.5335 96.9862 75.4493 96.9862C75.3231 96.9862 75.239 96.8958 75.239 96.7602C75.239 96.5794 75.3652 96.489 75.5335 96.489C75.7018 96.489 75.828 96.5794 75.9542 96.5794C76.0804 96.5794 76.2067 96.489 76.3329 96.489C76.4591 96.489 76.5433 96.5794 76.5433 96.715C76.5433 97.0766 76.5433 97.3929 76.5433 97.7997V99.1556C76.5433 99.6528 76.6274 99.7432 76.7536 99.7432C76.8799 99.7432 76.964 99.698 77.0482 99.698C77.1744 99.698 77.2585 99.7884 77.2585 99.9239C77.2585 100.105 77.1323 100.195 76.964 100.195C76.8378 100.195 76.7116 100.105 76.5853 100.105C76.4591 100.105 76.3329 100.195 76.2067 100.195C76.0804 100.195 76.0384 100.06 76.0384 99.7432C75.7859 100.15 75.4073 100.286 74.9444 100.286C74.6499 100.286 74.3133 100.195 74.0609 99.9691C73.7664 99.7432 73.6822 99.3816 73.6822 99.02V97.5285H73.5981Z" fill="#054D94"/>
<path d="M78.1002 97.5286C78.1002 97.0314 78.0581 96.941 77.8898 96.941C77.7636 96.941 77.6794 96.9862 77.5112 96.9862C77.3849 96.9862 77.3008 96.8958 77.3008 96.7603C77.3008 96.5795 77.427 96.4891 77.5953 96.4891C77.7215 96.4891 77.8057 96.5795 77.974 96.5795C78.1423 96.5795 78.2264 96.4891 78.3526 96.4891C78.5209 96.4891 78.563 96.6247 78.5209 96.941C78.7313 96.5795 79.0679 96.3987 79.4466 96.3987C79.9935 96.3987 80.5405 96.7603 80.5405 97.393C80.5405 97.7546 80.3722 98.1161 79.9935 98.1161C79.8252 98.1161 79.6149 97.9806 79.6149 97.7546C79.6149 97.619 79.7411 97.4382 79.8673 97.4382C79.9094 97.4382 79.9094 97.4382 79.9515 97.4382C79.9935 97.393 79.9935 97.3478 79.9935 97.2574C79.9935 96.941 79.6569 96.7603 79.4045 96.7603C78.8996 96.7603 78.563 97.0766 78.563 98.1161V99.0653C78.563 99.6076 78.6472 99.6528 78.7734 99.6528C78.8996 99.6528 78.9837 99.6076 79.0679 99.6076C79.1941 99.6076 79.2783 99.698 79.2783 99.8336C79.2783 100.014 79.11 100.105 78.9837 100.105C78.7734 100.105 78.563 100.014 78.3106 100.014C78.016 100.014 77.8898 100.105 77.5953 100.105C77.427 100.105 77.3008 100.014 77.3008 99.8336C77.3008 99.698 77.3849 99.6076 77.5112 99.6076C77.5953 99.6076 77.7215 99.6528 77.8057 99.6528C77.9319 99.6528 77.974 99.5624 77.974 99.0653V97.5286H78.1002Z" fill="#054D94"/>
<path d="M83.2331 97.5738C83.2331 97.1219 82.8544 96.8507 82.4337 96.8507C82.013 96.8507 81.6764 97.1671 81.6764 97.5738C81.6764 98.0258 82.013 98.297 82.4337 98.297C82.8544 98.3422 83.2331 98.071 83.2331 97.5738ZM81.6343 99.8788C81.4239 99.9692 81.2977 100.15 81.2977 100.421C81.2977 100.692 81.5081 100.873 81.7184 100.964C81.9288 101.054 82.2233 101.054 82.4337 101.054C82.8124 101.054 83.6118 100.964 83.6118 100.376C83.6118 99.7885 82.8965 99.7433 82.4758 99.7433C82.2233 99.7433 81.8867 99.7885 81.6343 99.8788ZM82.2654 99.2461C82.6441 99.2461 83.0227 99.2461 83.3593 99.3817C83.7801 99.5173 84.1587 99.8788 84.1587 100.376C84.1587 101.28 83.1069 101.506 82.4337 101.506C81.7605 101.506 80.7507 101.325 80.7507 100.376C80.7507 99.9692 81.0032 99.6529 81.3818 99.5173C81.0873 99.3817 80.8349 99.2009 80.8349 98.8393C80.8349 98.4778 81.0873 98.2066 81.3818 98.1162C81.2556 97.9354 81.2135 97.7094 81.2135 97.4834C81.2135 96.7603 81.8447 96.3083 82.4758 96.3083C82.602 96.3083 82.7282 96.3083 82.8965 96.3535C82.8965 95.9016 83.2752 95.6304 83.6538 95.6304C84.0325 95.6304 84.4112 95.8564 84.4112 96.2631C84.4112 96.4891 84.2429 96.6699 84.0325 96.6699C83.9063 96.6699 83.7801 96.5343 83.7801 96.3987C83.7801 96.3083 83.8642 96.2179 83.9063 96.1727C83.8221 96.0823 83.738 96.0371 83.6118 96.0371C83.3593 96.0371 83.2331 96.2631 83.2331 96.5343C83.5697 96.7603 83.738 97.1219 83.738 97.5286C83.738 98.297 83.1069 98.7489 82.4758 98.7489C82.2233 98.7489 81.9709 98.6585 81.7184 98.5681C81.6764 98.5681 81.5922 98.523 81.5501 98.523C81.4239 98.523 81.2977 98.7037 81.2977 98.8393C81.2977 99.2009 81.7605 99.2009 82.013 99.2009H82.2654V99.2461Z" fill="#054D94"/>
<path d="M87.0619 97.8902C87.0198 97.3026 86.7253 96.8507 86.1363 96.8507C85.5472 96.8507 85.1685 97.3026 85.1265 97.8902H87.0619ZM85.0423 98.4326C85.0003 99.1557 85.3789 99.8336 86.1363 99.8336C86.5991 99.8336 86.9357 99.6077 87.0619 99.1105C87.104 98.9749 87.146 98.7941 87.3143 98.7941C87.4406 98.7941 87.5668 98.8845 87.5668 99.0653C87.5668 99.3817 87.3564 99.6981 87.1881 99.8788C86.8936 100.15 86.4728 100.286 86.0942 100.286C85.0423 100.286 84.4954 99.4269 84.4954 98.3874C84.4954 97.8902 84.6216 97.393 84.874 96.9863C85.1685 96.5795 85.6314 96.3535 86.0942 96.3535C86.9777 96.3535 87.6088 97.0315 87.6088 98.0258C87.6088 98.3874 87.6088 98.4326 87.2723 98.4326H85.0423Z" fill="#054D94"/>
<path d="M88.787 97.5286C88.787 97.0314 88.7449 96.941 88.5766 96.941C88.4504 96.941 88.3662 96.9862 88.1979 96.9862C88.0717 96.9862 87.9875 96.8958 87.9875 96.7603C87.9875 96.5795 88.1138 96.4891 88.2821 96.4891C88.4083 96.4891 88.4924 96.5795 88.6607 96.5795C88.829 96.5795 88.9132 96.4891 89.0394 96.4891C89.2077 96.4891 89.2498 96.6247 89.2077 96.941C89.4181 96.5795 89.7547 96.3987 90.1333 96.3987C90.6803 96.3987 91.2273 96.7603 91.2273 97.393C91.2273 97.7546 91.059 98.1161 90.6803 98.1161C90.512 98.1161 90.3016 97.9806 90.3016 97.7546C90.3016 97.619 90.4278 97.4382 90.5541 97.4382C90.5961 97.4382 90.5961 97.4382 90.6382 97.4382C90.6803 97.393 90.6803 97.3478 90.6803 97.2574C90.6803 96.941 90.3437 96.7603 90.0913 96.7603C89.5864 96.7603 89.2498 97.0766 89.2498 98.1161V99.0653C89.2498 99.6076 89.3339 99.6528 89.4601 99.6528C89.5864 99.6528 89.6705 99.6076 89.7547 99.6076C89.8809 99.6076 89.965 99.698 89.965 99.8336C89.965 100.014 89.8388 100.105 89.6705 100.105C89.4601 100.105 89.2498 100.014 88.9973 100.014C88.7028 100.014 88.5766 100.105 88.2821 100.105C88.1138 100.105 87.9875 100.014 87.9875 99.8336C87.9875 99.698 88.0717 99.6076 88.1979 99.6076C88.2821 99.6076 88.4083 99.6528 88.4924 99.6528C88.6187 99.6528 88.6607 99.5624 88.6607 99.0653V97.5286H88.787Z" fill="#054D94"/>
<path d="M96.4866 96.8507C96.4866 96.6247 96.4866 96.1728 96.4445 95.9468C96.4025 95.766 96.2762 95.6756 96.1079 95.6756C95.9817 95.6756 95.8976 95.7208 95.7714 95.7208C95.6451 95.7208 95.561 95.6304 95.561 95.4948C95.561 95.314 95.6872 95.2236 95.8134 95.2236C96.1079 95.2236 96.3604 95.314 96.697 95.314C97.0336 95.314 97.2439 95.2236 97.5805 95.2236C97.7488 95.2236 97.8751 95.314 97.8751 95.4948C97.8751 95.6304 97.7909 95.7208 97.6647 95.7208C97.5385 95.7208 97.4543 95.6756 97.3281 95.6756C97.1598 95.6756 97.0336 95.766 96.9915 95.9468C96.9494 96.1728 96.9494 96.6247 96.9494 96.8507V97.3027C96.9494 97.845 96.9915 98.8846 96.8232 99.3365C96.5287 100.014 95.8976 100.331 95.2244 100.331C94.3829 100.331 93.5835 99.8789 93.5835 98.8846C93.5835 98.297 94.0042 97.7998 94.5512 97.7998C94.8878 97.7998 95.2244 98.0258 95.2244 98.3874C95.2244 98.6134 95.0561 98.8394 94.8457 98.8394C94.6774 98.8394 94.5091 98.7038 94.5091 98.523C94.5091 98.4326 94.5512 98.3874 94.5933 98.3422C94.5512 98.297 94.5512 98.297 94.4671 98.297C94.2567 98.297 94.0884 98.6586 94.0884 98.8394C94.0884 99.4721 94.5933 99.8337 95.1402 99.8337C95.5189 99.8337 95.9396 99.6981 96.15 99.3365C96.3604 98.9297 96.3604 98.4778 96.3604 98.0258V96.8507H96.4866Z" fill="#054D94"/>
<path d="M99.5578 99.8336C100.399 99.8336 100.652 99.0653 100.652 98.2969C100.652 97.9806 100.568 97.5738 100.399 97.2574C100.231 96.941 99.8944 96.8506 99.5999 96.8506C99.2212 96.8506 98.9267 96.9862 98.7584 97.3478C98.5901 97.619 98.548 98.0258 98.548 98.3421C98.5059 99.0201 98.7584 99.8336 99.5578 99.8336ZM99.5578 96.3987C100.021 96.3987 100.483 96.5343 100.778 96.941C101.072 97.3478 101.199 97.845 101.199 98.3421C101.199 99.4268 100.652 100.331 99.5578 100.331C98.5059 100.331 97.959 99.4269 97.959 98.3873C97.959 97.3026 98.4639 96.3987 99.5578 96.3987Z" fill="#054D94"/>
<path d="M102.84 95.6756C102.84 95.9016 102.671 96.0823 102.461 96.0823C102.251 96.0823 102.082 95.9016 102.082 95.6756C102.082 95.4496 102.251 95.2688 102.461 95.2688C102.671 95.2688 102.84 95.4496 102.84 95.6756ZM102.335 97.5286C102.335 97.0315 102.293 96.9411 102.124 96.9411C101.998 96.9411 101.914 96.9863 101.83 96.9863C101.704 96.9863 101.619 96.8959 101.619 96.7603C101.619 96.5795 101.746 96.4891 101.872 96.4891C102.04 96.4891 102.166 96.5795 102.293 96.5795C102.461 96.5795 102.545 96.4891 102.671 96.4891C102.84 96.4891 102.84 96.6699 102.84 96.8055V99.4721C102.84 99.6529 102.882 99.7885 103.008 99.7885C103.092 99.7885 103.176 99.7433 103.26 99.7433C103.387 99.7433 103.471 99.8336 103.471 99.9692C103.471 100.15 103.345 100.24 103.176 100.24C102.966 100.24 102.755 100.15 102.503 100.15C102.209 100.15 102.04 100.24 101.788 100.24C101.662 100.24 101.577 100.105 101.577 99.9692C101.577 99.8336 101.662 99.7433 101.788 99.7433C101.872 99.7433 101.998 99.7885 102.082 99.7885C102.251 99.7885 102.293 99.6529 102.293 99.2009V97.5286H102.335Z" fill="#054D94"/>
<path d="M104.439 97.5286C104.439 97.0314 104.396 96.941 104.228 96.941C104.102 96.941 104.018 96.9862 103.934 96.9862C103.807 96.9862 103.723 96.8958 103.723 96.7603C103.723 96.6247 103.85 96.4891 103.976 96.4891C104.102 96.4891 104.144 96.5795 104.354 96.5795C104.565 96.5795 104.607 96.4891 104.775 96.4891C104.901 96.4891 104.901 96.6247 104.901 96.941C105.154 96.5795 105.617 96.3987 105.995 96.3987C106.332 96.3987 106.711 96.5343 106.963 96.8055C107.258 97.0766 107.258 97.4382 107.258 97.845V99.1557C107.258 99.6076 107.3 99.7432 107.468 99.7432C107.594 99.7432 107.678 99.698 107.762 99.698C107.889 99.698 107.973 99.7884 107.973 99.924C107.973 100.105 107.847 100.195 107.678 100.195C107.468 100.195 107.3 100.105 107.005 100.105C106.668 100.105 106.542 100.195 106.29 100.195C106.122 100.195 105.995 100.105 105.995 99.924C105.995 99.7884 106.079 99.698 106.206 99.698C106.29 99.698 106.416 99.7432 106.5 99.7432C106.669 99.7432 106.711 99.6076 106.711 99.1557V98.1161C106.711 97.6642 106.711 97.5286 106.584 97.3026C106.458 97.0314 106.122 96.8958 105.869 96.8958C105.575 96.8958 105.238 97.0314 105.07 97.3026C104.986 97.4382 104.901 97.619 104.901 98.2969V99.1557C104.901 99.6076 104.943 99.7432 105.112 99.7432C105.238 99.7432 105.322 99.698 105.406 99.698C105.532 99.698 105.617 99.7884 105.617 99.924C105.617 100.105 105.49 100.195 105.322 100.195C105.112 100.195 104.943 100.105 104.649 100.105C104.312 100.105 104.186 100.195 103.934 100.195C103.765 100.195 103.639 100.105 103.639 99.924C103.639 99.7884 103.723 99.698 103.85 99.698C103.934 99.698 104.06 99.7432 104.144 99.7432C104.312 99.7432 104.354 99.6076 104.354 99.1557V97.5286H104.439Z" fill="#054D94"/>
<path d="M108.604 97.2574C108.604 97.0315 108.562 96.9863 108.351 96.9863C108.099 96.9863 107.973 96.9411 107.973 96.7151C107.973 96.5795 108.099 96.4439 108.225 96.4439H108.478C108.604 96.4439 108.604 96.3987 108.604 96.2179V95.6304C108.604 95.4496 108.646 95.2688 108.856 95.2688C109.067 95.2688 109.109 95.4496 109.109 95.6304V96.3535C109.109 96.4439 109.109 96.4891 109.235 96.4891H109.908C110.161 96.4891 110.245 96.5795 110.245 96.7603C110.245 96.8959 110.203 97.0315 109.866 97.0315H109.277C109.109 97.0315 109.109 97.0315 109.109 97.1671V98.8845C109.109 99.5173 109.235 99.7433 109.614 99.7433C110.034 99.7433 110.076 99.3817 110.076 99.0201V98.7941C110.076 98.4778 110.161 98.3422 110.329 98.3422C110.497 98.3422 110.581 98.5229 110.581 98.7037C110.581 99.5173 110.455 100.24 109.529 100.24C109.235 100.24 108.898 100.105 108.73 99.7885C108.646 99.5625 108.604 99.4269 108.604 98.8393V97.2574Z" fill="#054D94"/>
</svg>
