<svg width="1388" height="177" viewBox="0 0 1388 177" fill="none" xmlns="http://www.w3.org/2000/svg">
<g clip-path="url(#clip0_667_2495)">
<path d="M56.4694 99.5916H22.4436L22.3298 74.7477H51.2347C55.7866 74.7477 59.504 73.9665 62.387 72.404C65.3458 70.7635 67.5079 68.3805 68.8735 65.2556C70.3149 62.0525 71.0357 58.1853 71.0357 53.654C71.0357 48.4196 70.3528 44.24 68.9872 41.1149C67.6976 37.9119 65.6112 35.5681 62.7284 34.0837C59.9213 32.5993 56.2039 31.8572 51.5761 31.8572H33.8234V174.006H0.480469V3.38061H51.5761C59.7696 3.38061 67.1286 4.31812 73.6531 6.19311C80.1774 8.06812 85.7157 10.9587 90.2676 14.8649C94.8195 18.6931 98.3094 23.5368 100.737 29.3963C103.165 35.1775 104.379 42.0525 104.379 50.0212C104.379 57.0525 103.013 63.5368 100.282 69.4744C97.5508 75.4119 93.2643 80.2947 87.4226 84.1228C81.581 87.8728 74.0323 89.9431 64.7767 90.3337L56.4694 99.5916ZM55.2177 174.006H12.9984L26.3128 145.646H55.2177C59.6937 145.646 63.2594 144.67 65.9147 142.716C68.57 140.763 70.5046 138.146 71.7184 134.866C73.0081 131.506 73.6531 127.677 73.6531 123.381C73.6531 118.537 73.084 114.318 71.946 110.724C70.8839 107.131 69.101 104.396 66.5975 102.521C64.094 100.568 60.7179 99.5916 56.4694 99.5916H27.7921L28.0197 74.7477H62.8422L70.6943 84.5916C79.5706 84.2791 86.664 86.0368 91.9747 89.8649C97.2852 93.6149 101.079 98.5368 103.354 104.631C105.706 110.646 106.882 117.053 106.882 123.849C106.882 134.787 104.872 144.006 100.851 151.506C96.906 158.927 91.1021 164.552 83.4398 168.38C75.7773 172.131 66.37 174.006 55.2177 174.006ZM247.764 75.4509V103.927C247.764 115.959 246.323 126.506 243.441 135.568C240.634 144.552 236.613 152.091 231.378 158.186C226.219 164.2 219.96 168.732 212.601 171.779C205.318 174.826 197.238 176.35 188.363 176.35C179.486 176.35 171.369 174.826 164.009 171.779C156.726 168.732 150.43 164.2 145.118 158.186C139.884 152.091 135.825 144.552 132.942 135.568C130.059 126.506 128.618 115.959 128.618 103.927V75.4509C128.618 63.1072 130.021 52.3259 132.828 43.1072C135.636 33.8103 139.695 26.0759 145.005 19.904C150.316 13.6541 156.612 8.96655 163.895 5.84155C171.178 2.63843 179.258 1.03687 188.135 1.03687C197.011 1.03687 205.09 2.63843 212.373 5.84155C219.656 8.96655 225.954 13.6541 231.264 19.904C236.575 26.0759 240.634 33.8103 243.441 43.1072C246.323 52.3259 247.764 63.1072 247.764 75.4509ZM214.649 103.927V75.2165C214.649 67.0916 214.081 60.1775 212.943 54.4744C211.805 48.6931 210.098 43.9665 207.822 40.2947C205.546 36.6228 202.776 33.9275 199.515 32.2087C196.252 30.49 192.459 29.6307 188.135 29.6307C183.81 29.6307 179.979 30.49 176.641 32.2087C173.378 33.9275 170.61 36.6228 168.334 40.2947C166.134 43.9665 164.464 48.6931 163.327 54.4744C162.264 60.1775 161.733 67.0916 161.733 75.2165V103.927C161.733 111.74 162.303 118.42 163.44 123.967C164.578 129.513 166.286 134.044 168.562 137.56C170.837 141.076 173.606 143.694 176.869 145.412C180.207 147.052 184.038 147.872 188.363 147.872C192.611 147.872 196.366 147.052 199.629 145.412C202.967 143.694 205.735 141.076 207.936 137.56C210.136 134.044 211.805 129.513 212.943 123.967C214.081 118.42 214.649 111.74 214.649 103.927ZM272.118 3.38061H325.262C336.339 3.38061 345.784 5.33373 353.598 9.23999C361.412 13.1462 367.406 18.9275 371.577 26.5837C375.751 34.24 377.836 43.6931 377.836 54.9431C377.836 64.1619 376.623 72.0525 374.195 78.6149C371.768 85.0993 368.316 90.5291 363.84 94.904C359.364 99.2009 354.015 102.638 347.794 105.217L337.666 111.427H294.536L294.423 82.9509H324.352C328.903 82.9509 332.659 81.9353 335.618 79.904C338.653 77.7947 340.89 74.8649 342.332 71.1149C343.849 67.2868 344.607 62.8337 344.607 57.7556C344.607 52.3649 343.925 47.7556 342.559 43.9275C341.269 40.0212 339.183 37.0525 336.3 35.0212C333.493 32.9119 329.814 31.8572 325.262 31.8572H305.461V174.006H272.118V3.38061ZM347.339 174.006L316.955 97.9509L351.89 97.8337L382.957 172.366V174.006H347.339ZM516.899 3.38061V174.006H484.694L432.688 67.2477V174.006H401.052V3.38061H432.802L485.263 111.31V3.38061H516.899ZM689.304 72.5212V100.881H621.366V72.5212H689.304ZM630.811 3.38061V174.006H597.468V3.38061H630.811ZM713.429 3.38061V174.006H680.428V3.38061H713.429ZM815.051 3.38061H848.28V120.568C848.28 133.693 845.929 144.396 841.225 152.678C836.598 160.88 830.187 166.896 821.994 170.724C813.799 174.475 804.43 176.35 793.886 176.35C783.263 176.35 773.818 174.475 765.549 170.724C757.28 166.896 750.832 160.88 746.203 152.678C741.652 144.396 739.375 133.693 739.375 120.568V3.38061H772.605V120.568C772.605 127.99 773.401 133.693 774.995 137.678C776.664 141.662 779.053 144.396 782.164 145.88C785.35 147.287 789.257 147.99 793.886 147.99C798.588 147.99 802.458 147.287 805.492 145.88C808.603 144.396 810.955 141.662 812.548 137.678C814.217 133.693 815.051 127.99 815.051 120.568V3.38061ZM989.618 3.38061V174.006H957.413L905.407 67.2477V174.006H873.772V3.38061H905.521L957.983 111.31V3.38061H989.618ZM1129.02 84.3572V154.67C1126.67 157.248 1123.22 160.256 1118.67 163.694C1114.19 167.052 1108.31 170.022 1101.03 172.599C1093.82 175.099 1085.02 176.35 1074.63 176.35C1065.45 176.35 1057.1 174.866 1049.59 171.896C1042.16 168.927 1035.74 164.435 1030.36 158.42C1025.05 152.326 1020.99 144.748 1018.18 135.686C1015.38 126.545 1013.97 115.724 1013.97 103.224V74.1619C1013.97 61.8181 1015.3 51.0759 1017.95 41.9353C1020.69 32.7165 1024.63 25.0603 1029.79 18.9665C1034.95 12.8728 1041.09 8.34155 1048.22 5.3728C1055.43 2.40405 1063.55 0.919678 1072.58 0.919678C1085.02 0.919678 1095.22 3.06811 1103.19 7.36499C1111.23 11.6619 1117.3 18.0291 1121.4 26.4665C1125.57 34.904 1128.07 45.2556 1128.91 57.5212H1096.7C1096.17 50.3337 1095 44.7087 1093.18 40.6463C1091.43 36.5837 1088.96 33.6931 1085.78 31.9744C1082.59 30.1775 1078.46 29.2791 1073.37 29.2791C1068.97 29.2791 1065.14 30.0993 1061.88 31.74C1058.62 33.3025 1055.89 35.8805 1053.69 39.4744C1051.49 43.0681 1049.86 47.6775 1048.79 53.3025C1047.73 58.9275 1047.2 65.8025 1047.2 73.9275V103.224C1047.2 111.271 1047.81 118.146 1049.02 123.849C1050.24 129.553 1052.02 134.2 1054.37 137.795C1056.8 141.388 1059.83 144.006 1063.47 145.646C1067.19 147.208 1071.55 147.99 1076.56 147.99C1080.58 147.99 1083.81 147.56 1086.23 146.7C1088.66 145.842 1090.6 144.943 1092.04 144.006C1093.56 142.99 1094.81 142.208 1095.79 141.662V110.256H1072.01V84.3572H1129.02ZM1153.15 3.38061H1206.29C1217.37 3.38061 1226.81 5.33373 1234.63 9.23999C1242.44 13.1462 1248.43 18.9275 1252.61 26.5837C1256.78 34.24 1258.87 43.6931 1258.87 54.9431C1258.87 64.1619 1257.65 72.0525 1255.22 78.6149C1252.8 85.0993 1249.35 90.5291 1244.87 94.904C1240.39 99.2009 1235.04 102.638 1228.82 105.217L1218.7 111.427H1175.57L1175.45 82.9509H1205.38C1209.93 82.9509 1213.69 81.9353 1216.65 79.904C1219.68 77.7947 1221.92 74.8649 1223.36 71.1149C1224.88 67.2868 1225.64 62.8337 1225.64 57.7556C1225.64 52.3649 1224.95 47.7556 1223.59 43.9275C1222.3 40.0212 1220.21 37.0525 1217.33 35.0212C1214.52 32.9119 1210.84 31.8572 1206.29 31.8572H1186.49V174.006H1153.15V3.38061ZM1228.37 174.006L1197.98 97.9509L1232.92 97.8337L1263.99 172.366V174.006H1228.37ZM1301.2 3.38061L1326.46 80.2556L1351.5 3.38061H1387.81L1343.19 112.013V174.006H1309.61V112.013L1265.01 3.38061H1301.2Z" fill="#1C1C1B"/>
</g>
<defs>
<clipPath id="clip0_667_2495">
<rect width="1388" height="176" fill="white" transform="translate(0 0.672363)"/>
</clipPath>
</defs>
</svg>
