<svg width="21" height="21" viewBox="0 0 21 21" fill="none" xmlns="http://www.w3.org/2000/svg">
<path d="M1.47461 10.5C1.47461 6.25768 1.47461 4.13558 2.7924 2.81779C4.11019 1.5 6.23135 1.5 10.4746 1.5C14.7169 1.5 16.839 1.5 18.1568 2.81779C19.4746 4.13558 19.4746 6.25674 19.4746 10.5C19.4746 14.7423 19.4746 16.8644 18.1568 18.1822C16.839 19.5 14.7179 19.5 10.4746 19.5C6.23229 19.5 4.11019 19.5 2.7924 18.1822C1.47461 16.8644 1.47461 14.7433 1.47461 10.5Z" stroke="#1C1C1B" stroke-width="1.5" stroke-linecap="round" stroke-linejoin="round"/>
<path d="M15.6922 5.28955H15.6827M14.7373 10.5001C14.7373 11.6307 14.2881 12.7151 13.4886 13.5146C12.6891 14.3141 11.6048 14.7632 10.4741 14.7632C9.34344 14.7632 8.25908 14.3141 7.45959 13.5146C6.66009 12.7151 6.21094 11.6307 6.21094 10.5001C6.21094 9.36942 6.66009 8.28507 7.45959 7.48557C8.25908 6.68607 9.34344 6.23692 10.4741 6.23692C11.6048 6.23692 12.6891 6.68607 13.4886 7.48557C14.2881 8.28507 14.7373 9.36942 14.7373 10.5001Z" stroke="#1C1C1B" stroke-width="1.5" stroke-linecap="round" stroke-linejoin="round"/>
</svg>
