<svg width="261" height="226" viewBox="0 0 261 226" fill="none" xmlns="http://www.w3.org/2000/svg">
<path d="M66.0901 25.2217L165.636 37.162V180.878L67.5322 200.778" stroke="#054D94" stroke-width="2" stroke-miterlimit="10"/>
<path d="M66.0901 52.7217L148.302 59.3552L155.859 59.9608L158.036 170.74L67.5322 188.117L66.0901 52.7217Z" stroke="#054D94" stroke-miterlimit="10"/>
<path d="M67.3735 173.581L148.62 162.044L146.053 59.3552" stroke="#054D94" stroke-miterlimit="10"/>
<path d="M158.036 170.74L148.62 162.044" stroke="#054D94" stroke-miterlimit="10"/>
<path d="M66.7678 116.317C66.7678 116.317 73.2716 120.412 76.4297 120.412C79.5878 120.412 88.9036 118.364 88.9036 118.364V121.984L103.021 124.032C107.449 124.839 105.992 128.17 103.021 127.536C103.021 127.536 91.8887 127.536 90.7494 127.536C89.6102 127.536 104.478 129.108 104.478 129.108C108.271 129.223 109.309 132.843 104.478 132.799C104.478 132.799 92.004 131.848 90.7062 131.934C89.4083 132.021 97.8011 133.117 102.517 133.535C107.232 133.953 107.088 137.717 102.387 137.227C102.387 137.227 90.9225 136.102 90.0284 136.116C89.1343 136.131 99.0125 137.227 99.0125 137.227C104.19 138.654 101.017 141.625 97.4118 141.106C97.4118 141.106 85.9762 140.76 82.645 140.053C79.3138 139.346 77.9006 136.534 75.4491 135.323C72.9976 134.112 67.3879 133.607 67.3879 133.607" stroke="#054D94" stroke-miterlimit="10"/>
<path d="M88.918 122.244V105.963H110.275H128.373L131.632 145.417L119.331 149.037L88.918 147.595V141.106" stroke="#054D94" stroke-miterlimit="10"/>
<path d="M121.105 149.037L120.744 105.963" stroke="#054D94" stroke-miterlimit="10"/>
<path d="M102.459 106.684C101.695 89.7107 120.975 90.7201 119.821 106.684" stroke="#054D94" stroke-miterlimit="10"/>
<path d="M96.1572 106.684C95.3929 89.7107 114.673 90.7201 113.52 106.684" stroke="#054D94" stroke-miterlimit="10"/>
<path d="M96.1048 122.563C96.255 122.569 96.4347 122.591 96.6445 122.614C96.7792 122.635 96.8994 122.639 96.9895 122.642C97.2299 122.65 97.3394 122.525 97.3483 122.267C97.3549 122.073 97.268 121.973 97.0878 121.967C97.0577 121.966 96.9976 121.964 96.922 121.978C96.8463 121.991 96.7862 121.989 96.7411 121.988C96.636 121.984 96.518 121.915 96.529 121.593L96.5836 119.996C96.5885 119.85 96.6224 119.738 96.6697 119.675C96.717 119.613 96.8082 119.583 96.9284 119.587C97.1688 119.596 97.1933 119.758 97.1906 119.839C97.1895 119.871 97.1873 119.935 97.1695 120.016C97.1522 120.08 97.15 120.144 97.1484 120.193C97.1385 120.483 97.2387 120.632 97.479 120.64C97.5842 120.643 97.6604 120.614 97.7383 120.536C97.8006 120.473 97.8345 120.361 97.8389 120.232C97.8395 120.216 97.8428 120.119 97.8327 119.974C97.8221 119.844 97.8248 119.763 97.827 119.699C97.8293 119.634 97.832 119.554 97.8509 119.441C97.8692 119.345 97.872 119.264 97.8742 119.2C97.8786 119.071 97.8207 119.004 97.6855 119C97.6104 118.997 97.5052 118.993 97.3845 119.005C97.128 119.029 96.7218 119.031 96.226 119.014C95.7303 118.997 95.3402 118.968 95.0559 118.926C94.9357 118.922 94.8311 118.902 94.756 118.899C94.6358 118.895 94.5735 118.958 94.5691 119.087C94.5674 119.135 94.5647 119.216 94.5769 119.297C94.587 119.443 94.5842 119.523 94.5826 119.572C94.5798 119.653 94.5765 119.749 94.5582 119.846C94.5382 119.99 94.5355 120.071 94.5338 120.119C94.5294 120.248 94.5561 120.346 94.6135 120.429C94.6714 120.496 94.7604 120.531 94.8656 120.534C95.1059 120.543 95.216 120.401 95.2265 120.095C95.2276 120.062 95.2293 120.014 95.217 119.933C95.2042 119.868 95.1914 119.803 95.1925 119.77C95.1963 119.657 95.2458 119.53 95.5012 119.539C95.6364 119.543 95.7989 119.63 95.7873 119.968L95.7328 121.565C95.7218 121.888 95.5994 121.949 95.4942 121.945C95.4491 121.943 95.389 121.941 95.3145 121.923C95.2399 121.904 95.1948 121.902 95.1498 121.901C94.9695 121.895 94.876 121.988 94.8683 122.214C94.8601 122.456 94.9614 122.573 95.2017 122.581C95.3069 122.585 95.4271 122.589 95.5478 122.577C95.7743 122.552 95.9546 122.558 96.1048 122.563Z" fill="#054D94"/>
<path d="M99.2006 122.201C99.0203 122.195 98.8878 122.109 98.8026 121.961C98.7175 121.813 98.6796 121.602 98.6884 121.344C98.6972 121.085 98.7494 120.877 98.8445 120.735C98.9402 120.577 99.0781 120.501 99.2584 120.507C99.619 120.519 99.7893 120.816 99.77 121.38C99.7363 121.928 99.5461 122.213 99.2006 122.201ZM99.2638 119.91C98.8582 119.896 98.5383 120.014 98.3047 120.248C98.0705 120.499 97.9532 120.85 97.9378 121.302C97.9223 121.753 98.0304 122.112 98.2319 122.378C98.449 122.627 98.7601 122.767 99.1807 122.782C99.5713 122.795 99.8912 122.677 100.125 122.426C100.36 122.176 100.477 121.825 100.493 121.357C100.508 120.921 100.4 120.562 100.183 120.312C99.9805 120.063 99.6694 119.923 99.2638 119.91Z" fill="#054D94"/>
<path d="M103.989 120.717C104.139 120.722 104.243 120.774 104.284 120.889C104.326 120.987 104.35 121.149 104.342 121.408L104.322 121.988C104.315 122.182 104.298 122.23 104.298 122.246C104.281 122.294 104.22 122.324 104.144 122.338C104.084 122.352 103.992 122.381 103.986 122.574C103.983 122.671 104.01 122.737 104.053 122.803C104.096 122.869 104.156 122.887 104.216 122.889C104.261 122.891 104.321 122.893 104.427 122.88C104.532 122.868 104.637 122.871 104.758 122.875C104.848 122.878 104.923 122.881 104.982 122.899L105.102 122.919C105.222 122.94 105.237 122.94 105.252 122.941C105.327 122.943 105.388 122.913 105.435 122.85C105.483 122.787 105.515 122.707 105.519 122.594C105.526 122.385 105.437 122.349 105.347 122.346C105.317 122.345 105.302 122.345 105.287 122.36C105.241 122.375 105.21 122.39 105.18 122.389C105.03 122.384 105.039 122.126 105.042 122.045L105.071 121.19C105.082 120.851 105.031 120.607 104.946 120.443C104.804 120.212 104.581 120.107 104.266 120.097C104.116 120.092 103.979 120.119 103.858 120.164C103.735 120.224 103.582 120.316 103.411 120.471L103.335 120.501L103.306 120.452C103.15 120.172 102.96 120.036 102.704 120.027C102.404 120.017 102.113 120.168 101.861 120.483L101.782 120.593L101.796 120.206C101.799 120.109 101.769 120.092 101.709 120.09C101.664 120.089 101.619 120.087 101.528 120.1C101.438 120.113 101.378 120.111 101.333 120.11C101.288 120.108 101.227 120.106 101.168 120.088C101.048 120.068 101.019 120.05 101.004 120.05C100.929 120.047 100.867 120.078 100.806 120.124C100.758 120.187 100.726 120.266 100.722 120.363C100.715 120.589 100.819 120.625 100.909 120.628C100.924 120.629 100.939 120.629 100.984 120.614C101.045 120.6 101.06 120.601 101.075 120.601C101.195 120.606 101.204 120.8 101.198 120.977L101.167 121.88C101.161 122.042 101.14 122.235 101.019 122.231C100.989 122.23 100.959 122.229 100.93 122.212C100.93 122.195 100.9 122.194 100.87 122.193C100.78 122.19 100.674 122.219 100.666 122.461C100.662 122.558 100.69 122.639 100.733 122.689C100.776 122.755 100.835 122.774 100.926 122.777C100.956 122.778 101.046 122.765 101.182 122.753C101.273 122.74 101.348 122.743 101.438 122.746C101.498 122.748 101.588 122.751 101.708 122.771C101.828 122.791 101.903 122.794 101.963 122.796C102.068 122.8 102.204 122.772 102.214 122.498C102.219 122.353 102.176 122.27 102.057 122.25C101.982 122.231 101.953 122.214 101.924 122.181C101.91 122.148 101.896 122.115 101.899 122.035L101.922 121.357C101.938 120.873 102.112 120.637 102.442 120.648C102.577 120.653 102.681 120.705 102.723 120.803C102.765 120.901 102.79 121.048 102.782 121.273L102.76 121.903C102.76 121.919 102.758 121.983 102.754 122.08C102.751 122.177 102.704 122.24 102.613 122.253C102.552 122.267 102.491 122.313 102.485 122.491C102.475 122.765 102.594 122.801 102.684 122.804C102.73 122.806 102.775 122.808 102.865 122.795C102.956 122.781 103.016 122.784 103.061 122.785C103.106 122.787 103.181 122.805 103.3 122.826C103.36 122.844 103.42 122.846 103.45 122.847C103.555 122.85 103.692 122.823 103.701 122.532C103.708 122.355 103.634 122.32 103.589 122.302C103.514 122.284 103.486 122.234 103.472 122.202C103.458 122.169 103.46 122.12 103.466 121.943L103.484 121.427C103.485 120.958 103.659 120.706 103.989 120.717Z" fill="#054D94"/>
<path d="M110.32 122.516C110.29 122.515 110.275 122.515 110.259 122.53C110.214 122.545 110.183 122.56 110.153 122.559L110.024 122.377C110.011 122.312 110.013 122.247 110.014 122.215L110.044 121.36C110.055 121.021 110.003 120.777 109.919 120.613C109.776 120.382 109.554 120.277 109.239 120.267C109.088 120.261 108.952 120.289 108.83 120.333C108.708 120.394 108.554 120.485 108.384 120.641L108.337 120.672L108.309 120.622C108.153 120.359 107.962 120.223 107.706 120.214C107.406 120.204 107.115 120.356 106.864 120.67L106.785 120.78L106.798 120.377C106.802 120.28 106.772 120.263 106.712 120.261C106.667 120.259 106.622 120.258 106.531 120.271C106.441 120.284 106.38 120.282 106.335 120.28C106.29 120.279 106.23 120.277 106.171 120.259C106.051 120.238 106.022 120.221 106.006 120.221C105.931 120.218 105.87 120.248 105.808 120.295C105.761 120.358 105.728 120.437 105.725 120.534C105.717 120.76 105.821 120.796 105.912 120.799C105.927 120.799 105.942 120.8 105.987 120.785C106.048 120.771 106.063 120.772 106.078 120.772C106.198 120.776 106.206 120.971 106.2 121.148L106.17 122.051C106.164 122.213 106.142 122.406 106.022 122.402C105.992 122.401 105.962 122.4 105.933 122.382C105.918 122.366 105.888 122.365 105.873 122.364C105.783 122.361 105.677 122.39 105.668 122.632C105.665 122.729 105.692 122.81 105.736 122.86C105.779 122.926 105.838 122.945 105.928 122.948C105.958 122.949 106.049 122.936 106.185 122.924C106.276 122.911 106.351 122.914 106.441 122.917C106.501 122.919 106.591 122.922 106.711 122.942C106.83 122.962 106.905 122.965 106.966 122.967C107.071 122.97 107.207 122.943 107.216 122.669C107.221 122.523 107.179 122.441 107.059 122.421C106.985 122.402 106.955 122.385 106.926 122.352C106.912 122.319 106.899 122.286 106.901 122.206L106.924 121.528C106.941 121.044 107.114 120.808 107.445 120.819C107.58 120.824 107.684 120.876 107.725 120.974C107.767 121.072 107.792 121.219 107.785 121.444L107.763 122.074C107.763 122.09 107.76 122.154 107.757 122.251C107.754 122.348 107.706 122.411 107.616 122.424C107.555 122.438 107.493 122.484 107.487 122.662C107.478 122.936 107.597 122.972 107.687 122.975C107.732 122.977 107.777 122.978 107.868 122.965C107.959 122.952 108.019 122.954 108.064 122.956C108.109 122.957 108.184 122.976 108.303 122.996C108.363 123.015 108.423 123.017 108.453 123.018C108.558 123.021 108.694 122.994 108.704 122.703C108.71 122.526 108.636 122.491 108.592 122.473C108.517 122.455 108.489 122.405 108.475 122.372C108.46 122.356 108.448 122.291 108.454 122.113L108.471 121.597C108.488 121.113 108.661 120.877 108.977 120.887L109.335 121.4C109.334 121.449 109.331 121.513 109.329 121.578L109.309 122.159C109.303 122.352 109.286 122.4 109.286 122.416C109.269 122.464 109.208 122.494 109.132 122.508C109.071 122.522 108.98 122.551 108.974 122.745C108.97 122.842 108.998 122.907 109.041 122.973C109.084 123.039 109.143 123.057 109.203 123.059C109.249 123.061 109.309 123.063 109.414 123.051C109.52 123.038 109.625 123.042 109.745 123.046C109.836 123.049 109.911 123.051 109.97 123.07L110.09 123.09C110.209 123.11 110.224 123.111 110.239 123.111C110.315 123.114 110.376 123.083 110.423 123.02C110.47 122.957 110.503 122.878 110.507 122.765C110.5 122.538 110.395 122.519 110.32 122.516Z" fill="#054D94"/>
<path d="M111.607 119.184C111.487 119.18 111.38 119.225 111.302 119.303C111.209 119.397 111.175 119.493 111.171 119.622C111.167 119.751 111.208 119.849 111.28 119.949C111.367 120.048 111.456 120.084 111.576 120.088C111.696 120.092 111.803 120.047 111.881 119.969C111.974 119.875 112.008 119.78 112.012 119.651C112.017 119.521 111.975 119.407 111.903 119.324C111.831 119.241 111.727 119.189 111.607 119.184ZM111.474 123.088C111.594 123.093 111.714 123.097 111.804 123.116C111.953 123.137 112.058 123.157 112.088 123.158C112.193 123.162 112.344 123.134 112.355 122.828C112.362 122.618 112.273 122.583 112.198 122.58C112.183 122.58 112.153 122.579 112.122 122.594C112.062 122.608 112.047 122.607 112.032 122.607C111.881 122.602 111.89 122.344 111.893 122.263L111.95 120.601C111.955 120.44 111.88 120.437 111.85 120.436C111.85 120.436 111.82 120.435 111.699 120.447C111.624 120.461 111.533 120.458 111.473 120.456C111.398 120.453 111.294 120.434 111.174 120.413C111.099 120.395 111.054 120.393 111.009 120.392C110.919 120.388 110.858 120.419 110.811 120.466C110.764 120.529 110.732 120.592 110.728 120.705C110.72 120.931 110.824 120.967 110.914 120.97C110.929 120.97 110.959 120.971 110.99 120.956C111.066 120.926 111.081 120.927 111.096 120.927C111.216 120.932 111.225 121.126 111.219 121.303L111.187 122.223C111.184 122.319 111.175 122.578 111.04 122.573C111.025 122.572 111.01 122.572 110.995 122.571L110.861 122.535C110.771 122.531 110.664 122.56 110.656 122.802C110.653 122.899 110.68 122.981 110.724 123.031C110.766 123.097 110.841 123.115 110.916 123.118C110.976 123.12 111.066 123.123 111.187 123.111C111.323 123.099 111.414 123.086 111.474 123.088Z" fill="#054D94"/>
<path d="M113.117 119.462C112.997 119.458 112.89 119.503 112.796 119.597C112.703 119.69 112.653 119.818 112.648 119.963C112.64 120.221 112.754 120.387 112.977 120.459C113.096 120.511 113.124 120.577 113.122 120.625C113.12 120.69 113.085 120.834 112.785 121.26C112.721 121.371 112.673 121.45 112.669 121.547C112.665 121.676 112.708 121.726 112.814 121.729C112.874 121.731 112.951 121.685 113.029 121.575C113.407 121.103 113.602 120.658 113.617 120.222C113.624 120.012 113.57 119.833 113.47 119.684C113.4 119.536 113.267 119.467 113.117 119.462Z" fill="#054D94"/>
<path d="M114.201 122.939L114.274 123.007C114.508 123.208 114.774 123.331 115.06 123.34C115.345 123.35 115.604 123.262 115.79 123.091C115.992 122.92 116.09 122.697 116.098 122.439C116.104 122.278 116.064 122.131 115.993 121.999C115.936 121.9 115.849 121.817 115.745 121.765C115.642 121.713 115.478 121.659 115.255 121.603C114.971 121.544 114.792 121.49 114.733 121.456C114.659 121.421 114.617 121.339 114.62 121.242C114.625 121.113 114.69 120.97 114.975 120.979C115.155 120.986 115.317 121.088 115.431 121.27C115.517 121.402 115.62 121.47 115.725 121.473C115.89 121.479 115.953 121.4 115.959 121.239L115.964 121.094C115.965 121.045 115.967 121.013 115.967 120.997C115.969 120.933 115.972 120.868 115.989 120.804C116.005 120.756 116.007 120.708 116.009 120.659C116.011 120.595 115.984 120.513 115.788 120.506C115.593 120.5 115.559 120.612 115.541 120.692L115.554 120.757L115.496 120.69C115.321 120.539 115.113 120.451 114.858 120.442C114.603 120.434 114.375 120.507 114.204 120.662C114.033 120.818 113.951 121.025 113.941 121.299C113.936 121.445 113.962 121.575 114.018 121.69C114.074 121.805 114.147 121.888 114.235 121.939C114.339 121.991 114.502 122.061 114.741 122.118L115.039 122.193C115.263 122.249 115.364 122.349 115.359 122.495C115.355 122.624 115.274 122.798 114.928 122.787C114.778 122.782 114.658 122.761 114.585 122.71C114.512 122.659 114.425 122.56 114.34 122.411C114.297 122.329 114.239 122.279 114.21 122.245C114.166 122.211 114.106 122.209 114.016 122.206C113.805 122.199 113.771 122.311 113.769 122.392C113.768 122.424 113.766 122.472 113.779 122.537C113.776 122.602 113.79 122.651 113.788 122.699C113.787 122.732 113.785 122.796 113.767 122.876C113.764 122.957 113.748 123.005 113.747 123.037C113.743 123.134 113.77 123.232 113.98 123.239C114.131 123.244 114.193 123.181 114.198 123.02L114.201 122.939Z" fill="#054D94"/>
<path d="M108.087 124.911C108.093 124.733 108.079 124.701 108.019 124.699C107.974 124.697 107.944 124.712 107.884 124.71C107.839 124.709 107.81 124.675 107.811 124.627C107.813 124.562 107.86 124.532 107.92 124.534C107.965 124.535 107.994 124.568 108.054 124.571C108.114 124.573 108.145 124.541 108.19 124.543C108.25 124.545 108.264 124.594 108.245 124.706C108.324 124.58 108.447 124.519 108.582 124.524C108.777 124.531 108.968 124.666 108.96 124.892C108.956 125.021 108.891 125.148 108.756 125.144C108.696 125.142 108.623 125.091 108.625 125.01C108.627 124.962 108.674 124.899 108.719 124.9C108.734 124.901 108.734 124.901 108.749 124.901C108.765 124.886 108.766 124.869 108.767 124.837C108.771 124.724 108.653 124.656 108.562 124.653C108.382 124.646 108.258 124.755 108.245 125.126L108.234 125.465C108.227 125.659 108.257 125.676 108.302 125.677C108.347 125.679 108.377 125.664 108.408 125.665C108.453 125.666 108.482 125.7 108.48 125.748C108.478 125.813 108.432 125.843 108.371 125.841C108.296 125.839 108.222 125.804 108.132 125.801C108.027 125.797 107.981 125.828 107.876 125.824C107.816 125.822 107.772 125.788 107.774 125.724C107.775 125.675 107.807 125.644 107.852 125.646C107.882 125.647 107.926 125.664 107.956 125.665C108.001 125.667 108.017 125.635 108.024 125.458L108.042 124.909L108.087 124.911Z" fill="#054D94"/>
<path d="M110.845 124.763C110.848 124.682 110.853 124.521 110.841 124.44C110.828 124.375 110.784 124.341 110.724 124.339C110.679 124.337 110.648 124.352 110.603 124.351C110.558 124.349 110.529 124.316 110.531 124.268C110.533 124.203 110.579 124.172 110.624 124.174C110.73 124.178 110.819 124.213 110.939 124.217C111.059 124.221 111.135 124.191 111.255 124.195C111.315 124.198 111.359 124.231 111.357 124.296C111.356 124.344 111.324 124.376 111.279 124.374C111.234 124.372 111.205 124.355 111.16 124.354C111.1 124.352 111.053 124.382 111.036 124.446C111.018 124.527 111.013 124.688 111.01 124.769L111.005 124.93C110.998 125.123 111 125.495 110.935 125.654C110.821 125.893 110.592 125.998 110.352 125.99C110.051 125.979 109.771 125.808 109.783 125.453C109.791 125.244 109.947 125.071 110.142 125.078C110.262 125.082 110.38 125.167 110.375 125.296C110.373 125.377 110.31 125.455 110.235 125.453C110.175 125.451 110.116 125.4 110.118 125.336C110.12 125.303 110.135 125.288 110.151 125.272C110.136 125.256 110.136 125.256 110.106 125.254C110.031 125.252 109.967 125.379 109.964 125.443C109.957 125.669 110.132 125.805 110.328 125.811C110.463 125.816 110.615 125.773 110.694 125.646C110.774 125.503 110.78 125.342 110.785 125.181L110.8 124.761L110.845 124.763Z" fill="#054D94"/>
<path d="M111.905 125.865C112.206 125.875 112.305 125.604 112.315 125.33C112.318 125.217 112.293 125.071 112.237 124.956C112.181 124.841 112.062 124.805 111.957 124.801C111.821 124.796 111.715 124.841 111.65 124.968C111.587 125.063 111.567 125.208 111.563 125.32C111.54 125.562 111.62 125.855 111.905 125.865ZM111.947 124.639C112.112 124.645 112.276 124.699 112.376 124.848C112.476 124.996 112.515 125.175 112.509 125.353C112.496 125.74 112.29 126.056 111.899 126.043C111.524 126.03 111.339 125.7 111.352 125.329C111.365 124.942 111.556 124.626 111.947 124.639Z" fill="#054D94"/>
<path d="M113.128 124.421C113.125 124.502 113.063 124.564 112.987 124.561C112.912 124.559 112.854 124.492 112.857 124.412C112.86 124.331 112.922 124.268 112.997 124.271C113.072 124.274 113.13 124.34 113.128 124.421ZM112.925 125.076C112.931 124.899 112.917 124.866 112.857 124.864C112.812 124.862 112.781 124.877 112.751 124.876C112.706 124.875 112.677 124.842 112.679 124.793C112.681 124.729 112.727 124.698 112.772 124.699C112.832 124.701 112.876 124.735 112.921 124.737C112.981 124.739 113.013 124.708 113.058 124.709C113.118 124.711 113.115 124.776 113.114 124.824L113.081 125.776C113.079 125.84 113.092 125.889 113.138 125.891C113.168 125.892 113.198 125.877 113.228 125.878C113.273 125.879 113.302 125.913 113.301 125.961C113.298 126.026 113.252 126.056 113.192 126.054C113.117 126.052 113.043 126.017 112.953 126.014C112.848 126.01 112.787 126.04 112.696 126.037C112.651 126.036 112.623 125.986 112.625 125.938C112.626 125.89 112.657 125.858 112.702 125.86C112.732 125.861 112.777 125.879 112.807 125.88C112.867 125.882 112.884 125.834 112.889 125.672L112.91 125.076L112.925 125.076Z" fill="#054D94"/>
<path d="M113.676 125.102C113.682 124.924 113.668 124.892 113.608 124.889C113.563 124.888 113.532 124.903 113.502 124.902C113.457 124.9 113.428 124.867 113.43 124.819C113.432 124.77 113.478 124.724 113.523 124.725C113.568 124.727 113.582 124.759 113.657 124.762C113.733 124.765 113.749 124.733 113.809 124.735C113.854 124.736 113.852 124.785 113.848 124.898C113.943 124.772 114.11 124.713 114.246 124.717C114.366 124.722 114.499 124.775 114.586 124.874C114.688 124.975 114.684 125.104 114.679 125.249L114.663 125.717C114.657 125.878 114.671 125.927 114.731 125.929C114.776 125.931 114.806 125.916 114.836 125.917C114.881 125.918 114.91 125.951 114.909 126C114.906 126.064 114.86 126.095 114.8 126.093C114.725 126.091 114.666 126.056 114.561 126.053C114.441 126.049 114.395 126.079 114.304 126.076C114.244 126.074 114.2 126.04 114.203 125.976C114.204 125.927 114.235 125.896 114.28 125.898C114.311 125.899 114.355 125.916 114.385 125.917C114.445 125.919 114.462 125.872 114.467 125.71L114.48 125.339C114.486 125.178 114.487 125.129 114.445 125.047C114.403 124.949 114.285 124.896 114.194 124.893C114.089 124.89 113.967 124.934 113.904 125.029C113.872 125.076 113.84 125.14 113.832 125.382L113.821 125.688C113.816 125.85 113.829 125.898 113.889 125.9C113.934 125.902 113.965 125.887 113.995 125.888C114.04 125.889 114.069 125.923 114.067 125.971C114.065 126.036 114.019 126.066 113.959 126.064C113.884 126.062 113.825 126.027 113.72 126.024C113.599 126.02 113.553 126.05 113.463 126.047C113.403 126.045 113.359 126.012 113.361 125.947C113.363 125.899 113.394 125.867 113.439 125.869C113.469 125.87 113.514 125.888 113.544 125.889C113.604 125.891 113.621 125.843 113.626 125.682L113.646 125.101L113.676 125.102Z" fill="#054D94"/>
<path d="M115.167 125.056C115.169 124.975 115.155 124.959 115.08 124.956C114.99 124.953 114.945 124.935 114.948 124.855C114.95 124.806 114.996 124.759 115.041 124.761L115.132 124.764C115.177 124.766 115.177 124.749 115.179 124.685L115.187 124.475C115.189 124.411 115.206 124.347 115.281 124.349C115.356 124.352 115.369 124.417 115.367 124.481L115.358 124.739C115.357 124.772 115.356 124.788 115.401 124.789L115.642 124.798C115.732 124.801 115.761 124.834 115.759 124.898C115.757 124.947 115.74 124.995 115.62 124.991L115.41 124.983C115.35 124.981 115.35 124.981 115.348 125.03L115.327 125.643C115.319 125.869 115.362 125.951 115.497 125.955C115.647 125.961 115.667 125.832 115.671 125.703L115.674 125.622C115.678 125.509 115.709 125.462 115.769 125.464C115.829 125.466 115.857 125.532 115.855 125.596C115.845 125.887 115.791 126.143 115.461 126.132C115.356 126.128 115.237 126.076 115.181 125.961C115.154 125.879 115.14 125.83 115.147 125.621L115.167 125.056Z" fill="#054D94"/>
</svg>
