<svg width="262" height="226" viewBox="0 0 262 226" fill="none" xmlns="http://www.w3.org/2000/svg">
<path d="M65.4314 71.8725L143.413 82.0823L196.626 70.4304V83.6253L143.802 98.5795L65.4314 86.1489V71.8725Z" stroke="#054D94" stroke-width="2" stroke-miterlimit="10"/>
<path d="M134.498 32.8213C135.811 53.0102 139.042 72.2473 143.052 82.832V112.178" stroke="#054D94" stroke-miterlimit="10"/>
<path d="M194.044 155.541L194.982 84.5049" stroke="#054D94" stroke-width="1.5" stroke-miterlimit="10"/>
<path d="M118.594 94.6255V129.786" stroke="#054D94" stroke-width="1.4701" stroke-miterlimit="10"/>
<path d="M67.4365 86.4661V160.675" stroke="#054D94" stroke-width="1.5" stroke-miterlimit="10"/>
<path d="M64.9265 71.7283C87.2563 65.2102 116.121 47.4151 134.368 31.812C151.765 46.348 172.666 58.9228 196.439 69.8825C196.583 69.9401 197.001 70.142 197.073 70.1709" stroke="#054D94" stroke-width="2" stroke-miterlimit="10"/>
<path d="M71.6199 132.785L130.575 147.509L152.861 138.092L153.02 144.25L130.906 154.733L71.6631 139.39L71.6199 132.785Z" stroke="#054D94" stroke-miterlimit="10"/>
<path d="M70.6821 132.569L96.6759 125.459L152.991 137.703" stroke="#054D94" stroke-miterlimit="10"/>
<path d="M126.478 183.43V154.589" stroke="#054D94" stroke-miterlimit="10"/>
<path d="M149.558 171.894V145.937" stroke="#054D94" stroke-miterlimit="10"/>
<path d="M77.4331 169.01V141.611" stroke="#054D94" stroke-miterlimit="10"/>
<path d="M94.7429 160.357V145.937" stroke="#054D94" stroke-miterlimit="10"/>
<path d="M147.611 71.9094C147.804 71.8618 148.041 71.8254 148.317 71.7795C148.496 71.7574 148.65 71.7193 148.766 71.6908C149.075 71.6146 149.17 71.4154 149.088 71.0837C149.027 70.8348 148.88 70.739 148.648 70.7961C148.61 70.8056 148.532 70.8246 148.441 70.8692C148.349 70.9137 148.272 70.9327 148.214 70.947C148.079 70.9803 147.904 70.9355 147.802 70.5208L147.296 68.4679C147.25 68.2813 147.252 68.1266 147.29 68.0294C147.327 67.9322 147.433 67.8622 147.588 67.8241C147.897 67.748 147.986 67.9458 148.012 68.0495C148.022 68.091 148.043 68.1739 148.049 68.2823C148.05 68.37 148.071 68.453 148.086 68.5152C148.178 68.8884 148.359 69.0417 148.668 68.9656C148.803 68.9323 148.89 68.867 148.961 68.7395C149.018 68.6376 149.02 68.4829 148.98 68.317C148.974 68.2963 148.944 68.1719 148.878 67.99C148.818 67.8289 148.793 67.7252 148.772 67.6423C148.752 67.5593 148.726 67.4556 148.71 67.3057C148.698 67.1766 148.673 67.0729 148.652 66.9899C148.611 66.824 148.514 66.7601 148.34 66.803C148.243 66.8268 148.108 66.8601 147.959 66.9189C147.641 67.0413 147.124 67.1905 146.487 67.3475C145.849 67.5046 145.342 67.6076 144.965 67.6565C144.81 67.6946 144.67 67.7072 144.573 67.731C144.419 67.769 144.362 67.871 144.403 68.0369C144.418 68.0991 144.444 68.2028 144.489 68.3017C144.554 68.4836 144.58 68.5873 144.595 68.6495C144.62 68.7531 144.651 68.8776 144.662 69.0067C144.689 69.1981 144.715 69.3018 144.73 69.364C144.771 69.5299 144.84 69.6448 144.943 69.7294C145.041 69.7933 145.167 69.8062 145.302 69.7729C145.611 69.6968 145.7 69.4768 145.603 69.0829C145.593 69.0414 145.578 68.9792 145.533 68.8803C145.493 68.8021 145.453 68.7239 145.443 68.6824C145.407 68.5373 145.424 68.3571 145.753 68.2762C145.927 68.2334 146.165 68.2847 146.272 68.7202L146.778 70.773C146.88 71.1877 146.746 71.3087 146.611 71.342C146.553 71.3563 146.476 71.3753 146.374 71.3784C146.272 71.3815 146.214 71.3957 146.156 71.41C145.925 71.4671 145.839 71.6201 145.911 71.9104C145.988 72.2214 146.159 72.3332 146.468 72.2571C146.603 72.2238 146.757 72.1857 146.907 72.1269C147.186 72.0141 147.418 71.9569 147.611 71.9094Z" fill="#054D94"/>
<path d="M151.423 70.3323C151.191 70.3894 150.992 70.3286 150.83 70.1705C150.668 70.0124 150.544 69.7571 150.462 69.4254C150.38 69.0936 150.371 68.8098 150.441 68.5946C150.506 68.3587 150.654 68.2122 150.886 68.1551C151.35 68.0408 151.674 68.357 151.852 69.0827C152.007 69.7925 151.867 70.2228 151.423 70.3323ZM150.678 67.3926C150.156 67.5211 149.791 67.7869 149.578 68.1693C149.37 68.5725 149.348 69.062 149.491 69.6426C149.634 70.2232 149.901 70.6413 150.253 70.9064C150.62 71.1461 151.066 71.212 151.607 71.0788C152.109 70.955 152.474 70.6892 152.682 70.2861C152.89 69.8829 152.913 69.3934 152.764 68.7921C152.626 68.2322 152.359 67.8141 151.993 67.5745C151.646 67.3301 151.199 67.2641 150.678 67.3926Z" fill="#054D94"/>
<path d="M156.986 66.7182C157.179 66.6706 157.33 66.6995 157.423 66.8304C157.512 66.9405 157.602 67.1384 157.683 67.4701L157.867 68.2166C157.929 68.4655 157.925 68.5324 157.93 68.5532C157.926 68.6201 157.859 68.6806 157.767 68.7252C157.695 68.7649 157.59 68.835 157.651 69.0838C157.682 69.2082 157.741 69.2816 157.819 69.3503C157.898 69.4189 157.98 69.4206 158.057 69.4016C158.115 69.3873 158.192 69.3683 158.322 69.3142C158.453 69.2602 158.588 69.2269 158.742 69.1888C158.858 69.1603 158.955 69.1365 159.037 69.1382L159.197 69.1208C159.356 69.1035 159.376 69.0987 159.395 69.094C159.492 69.0702 159.559 69.0097 159.596 68.9125C159.634 68.8152 159.647 68.702 159.611 68.5569C159.545 68.2873 159.418 68.2744 159.303 68.303C159.264 68.3125 159.245 68.3172 159.23 68.3427C159.178 68.3777 159.144 68.408 159.105 68.4175C158.912 68.4651 158.83 68.1333 158.805 68.0297L158.534 66.9307C158.427 66.4952 158.273 66.2032 158.106 66.0244C157.841 65.7817 157.521 65.7287 157.115 65.8286C156.922 65.8762 156.758 65.9605 156.619 66.0608C156.485 66.1818 156.322 66.3538 156.161 66.6135L156.075 66.6788L156.021 66.6261C155.721 66.326 155.429 66.2219 155.101 66.3028C154.715 66.398 154.399 66.6958 154.192 67.1867L154.131 67.3556L154.008 66.8579C153.978 66.7335 153.934 66.7223 153.857 66.7413C153.799 66.7556 153.741 66.7699 153.63 66.8192C153.519 66.8685 153.442 66.8875 153.384 66.9018C153.326 66.9161 153.249 66.9351 153.166 66.9334C153.007 66.9507 152.963 66.9395 152.944 66.9443C152.847 66.9681 152.78 67.0286 152.718 67.1098C152.681 67.207 152.668 67.3202 152.698 67.4447C152.77 67.735 152.915 67.7431 153.031 67.7146C153.051 67.7098 153.07 67.705 153.123 67.67C153.195 67.6303 153.214 67.6255 153.233 67.6207C153.388 67.5827 153.469 67.8267 153.525 68.0548L153.811 69.216C153.862 69.4234 153.904 69.677 153.75 69.715C153.711 69.7245 153.673 69.7341 153.629 69.7228C153.624 69.7021 153.585 69.7116 153.546 69.7211C153.431 69.7497 153.306 69.8245 153.382 70.1355C153.413 70.2599 153.477 70.3541 153.55 70.402C153.629 70.4707 153.711 70.4724 153.827 70.4438C153.866 70.4343 153.976 70.385 154.145 70.3215C154.256 70.2722 154.353 70.2484 154.468 70.2198C154.546 70.2008 154.662 70.1722 154.821 70.1549C154.981 70.1376 155.077 70.1138 155.155 70.0947C155.29 70.0614 155.454 69.9771 155.367 69.6246C155.321 69.438 155.237 69.3486 155.077 69.3659C154.976 69.369 154.932 69.3578 154.883 69.3258C154.854 69.2891 154.824 69.2524 154.799 69.1487L154.584 68.2778C154.43 67.6558 154.566 67.2924 154.991 67.1877C155.165 67.1448 155.316 67.1737 155.404 67.2839C155.493 67.394 155.577 67.5711 155.649 67.8614L155.848 68.6701C155.854 68.6908 155.874 68.7738 155.905 68.8982C155.935 69.0226 155.898 69.1198 155.787 69.1691C155.715 69.2089 155.653 69.2901 155.709 69.5182C155.796 69.8707 155.961 69.8741 156.077 69.8456C156.135 69.8313 156.193 69.817 156.303 69.7677C156.414 69.7184 156.491 69.6994 156.549 69.6851C156.607 69.6708 156.709 69.6678 156.869 69.6504C156.951 69.6521 157.028 69.6331 157.067 69.6236C157.202 69.5903 157.366 69.506 157.274 69.1327C157.218 68.9046 157.111 68.887 157.048 68.8805C156.946 68.8836 156.892 68.8309 156.862 68.7942C156.833 68.7574 156.818 68.6952 156.761 68.4672L156.598 67.8036C156.43 67.207 156.561 66.8229 156.986 66.7182Z" fill="#054D94"/>
<path d="M165.696 66.7278C165.657 66.7373 165.638 66.7421 165.624 66.7676C165.571 66.8026 165.538 66.8328 165.499 66.8423L165.269 66.6571C165.229 66.5789 165.209 66.496 165.198 66.4545L164.927 65.3555C164.82 64.9201 164.666 64.6281 164.499 64.4493C164.234 64.2065 163.914 64.1535 163.508 64.2535C163.315 64.301 163.152 64.3854 163.012 64.4856C162.878 64.6066 162.716 64.7786 162.555 65.0384L162.507 65.0941L162.453 65.0414C162.159 64.762 161.867 64.658 161.538 64.7389C161.152 64.8341 160.836 65.1318 160.629 65.6227L160.568 65.7916L160.441 65.2732C160.41 65.1488 160.366 65.1376 160.289 65.1566C160.231 65.1709 160.173 65.1852 160.062 65.2345C159.951 65.2838 159.874 65.3028 159.816 65.3171C159.758 65.3314 159.681 65.3504 159.599 65.3487C159.439 65.366 159.395 65.3548 159.376 65.3596C159.279 65.3834 159.212 65.4439 159.15 65.5251C159.113 65.6223 159.1 65.7355 159.13 65.86C159.202 66.1503 159.347 66.1584 159.463 66.1299C159.483 66.1251 159.502 66.1203 159.555 66.0853C159.627 66.0456 159.646 66.0408 159.666 66.036C159.82 65.998 159.901 66.242 159.957 66.4701L160.243 67.6313C160.294 67.8387 160.336 68.0923 160.182 68.1303C160.143 68.1398 160.105 68.1494 160.061 68.1381C160.037 68.1222 159.998 68.1317 159.979 68.1364C159.863 68.165 159.738 68.2398 159.814 68.5508C159.845 68.6752 159.909 68.7694 159.982 68.8173C160.061 68.886 160.143 68.8877 160.259 68.8591C160.298 68.8496 160.409 68.8003 160.577 68.7368C160.688 68.6875 160.785 68.6637 160.901 68.6351C160.978 68.6161 161.094 68.5875 161.253 68.5702C161.413 68.5529 161.51 68.5291 161.587 68.51C161.722 68.4767 161.886 68.3924 161.799 68.0399C161.753 67.8533 161.669 67.7639 161.51 67.7812C161.408 67.7843 161.364 67.7731 161.315 67.7411C161.286 67.7044 161.256 67.6677 161.231 67.564L161.016 66.6931C160.863 66.0711 160.998 65.7077 161.423 65.603C161.597 65.5601 161.748 65.589 161.836 65.6992C161.925 65.8093 162.01 65.9864 162.081 66.2767L162.281 67.0854C162.286 67.1061 162.306 67.1891 162.337 67.3135C162.367 67.4379 162.33 67.5351 162.219 67.5844C162.147 67.6242 162.085 67.7054 162.141 67.9335C162.228 68.286 162.393 68.2894 162.509 68.2609C162.567 68.2466 162.625 68.2323 162.736 68.183C162.846 68.1337 162.924 68.1147 162.982 68.1004C163.04 68.0861 163.141 68.0831 163.301 68.0657C163.383 68.0674 163.46 68.0484 163.499 68.0389C163.634 68.0056 163.798 67.9213 163.706 67.548C163.65 67.3199 163.543 67.3023 163.48 67.2958C163.378 67.2989 163.324 67.2462 163.295 67.2095C163.27 67.1935 163.23 67.1153 163.174 66.8872L163.011 66.2237C162.857 65.6016 162.993 65.2382 163.399 65.1383L164.04 65.6621C164.055 65.7243 164.076 65.8073 164.096 65.8902L164.28 66.6367C164.342 66.8855 164.338 66.9525 164.343 66.9732C164.339 67.0402 164.272 67.1007 164.18 67.1452C164.108 67.185 164.002 67.255 164.064 67.5038C164.094 67.6283 164.154 67.7017 164.232 67.7703C164.31 67.839 164.393 67.8407 164.47 67.8217C164.528 67.8074 164.605 67.7884 164.735 67.7343C164.865 67.6803 165.001 67.6469 165.155 67.6089C165.271 67.5803 165.368 67.5565 165.45 67.5582L165.61 67.5409C165.769 67.5236 165.789 67.5188 165.808 67.514C165.904 67.4902 165.972 67.4297 166.009 67.3325C166.047 67.2353 166.06 67.1221 166.024 66.9769C165.933 66.6914 165.793 66.704 165.696 66.7278Z" fill="#054D94"/>
<path d="M166.134 62.0229C165.98 62.061 165.86 62.1565 165.789 62.284C165.704 62.437 165.696 62.5709 165.737 62.7368C165.778 62.9027 165.866 63.0128 165.993 63.1134C166.14 63.2093 166.266 63.2222 166.421 63.1841C166.575 63.146 166.695 63.0505 166.766 62.923C166.851 62.7701 166.859 62.6362 166.818 62.4703C166.777 62.3044 166.684 62.1735 166.562 62.0936C166.439 62.0137 166.289 61.9849 166.134 62.0229ZM167.371 67.0409C167.526 67.0028 167.681 66.9648 167.802 66.957C168 66.9301 168.14 66.9175 168.179 66.908C168.314 66.8747 168.497 66.7856 168.4 66.3917C168.333 66.1221 168.207 66.1092 168.111 66.133C168.091 66.1377 168.053 66.1473 168.019 66.1775C167.947 66.2173 167.928 66.222 167.908 66.2268C167.715 66.2744 167.633 65.9426 167.608 65.8389L167.081 63.7032C167.03 63.4958 166.934 63.5196 166.895 63.5291C166.895 63.5291 166.856 63.5387 166.707 63.5975C166.615 63.642 166.5 63.6705 166.422 63.6896C166.326 63.7134 166.185 63.726 166.026 63.7433C165.924 63.7464 165.866 63.7606 165.808 63.7749C165.692 63.8035 165.625 63.864 165.583 63.9405C165.545 64.0377 165.527 64.1301 165.563 64.2753C165.634 64.5656 165.78 64.5737 165.896 64.5452C165.915 64.5404 165.954 64.5309 165.987 64.5006C166.073 64.4354 166.093 64.4306 166.112 64.4259C166.267 64.3878 166.347 64.6319 166.404 64.86L166.695 66.0419C166.726 66.1663 166.807 66.4981 166.634 66.5409C166.614 66.5456 166.595 66.5504 166.576 66.5552L166.392 66.5565C166.276 66.5851 166.151 66.6599 166.227 66.9709C166.258 67.0953 166.322 67.1895 166.395 67.2374C166.474 67.3061 166.576 67.303 166.672 67.2792C166.749 67.2602 166.865 67.2316 167.015 67.1728C167.183 67.1092 167.294 67.06 167.371 67.0409Z" fill="#054D94"/>
<path d="M168.157 61.8326C168.002 61.8706 167.882 61.9662 167.797 62.1191C167.712 62.2721 167.695 62.4523 167.741 62.6389C167.823 62.9706 168.028 63.1399 168.338 63.1515C168.508 63.1756 168.567 63.249 168.583 63.3113C168.603 63.3942 168.61 63.5903 168.381 64.2406C168.34 64.4048 168.308 64.5228 168.338 64.6472C168.379 64.813 168.452 64.861 168.588 64.8277C168.665 64.8086 168.746 64.7226 168.807 64.5537C169.117 63.8174 169.206 63.1797 169.068 62.6198C169.001 62.3503 168.868 62.1412 168.687 61.9879C168.544 61.8251 168.35 61.785 168.157 61.8326Z" fill="#054D94"/>
<path d="M170.791 65.8683L170.908 65.9275C171.278 66.1002 171.662 66.1597 172.029 66.0692C172.396 65.9788 172.693 65.7735 172.869 65.4883C173.064 65.1983 173.108 64.8795 173.026 64.5477C172.975 64.3404 172.871 64.168 172.734 64.0259C172.626 63.9206 172.484 63.8454 172.334 63.8165C172.183 63.7876 171.955 63.7778 171.65 63.787C171.268 63.8152 171.021 63.8101 170.933 63.7876C170.827 63.77 170.743 63.6806 170.712 63.5562C170.672 63.3903 170.703 63.1846 171.07 63.0942C171.302 63.0371 171.545 63.1092 171.756 63.2992C171.912 63.4365 172.068 63.4861 172.203 63.4528C172.416 63.4005 172.467 63.2778 172.416 63.0704L172.37 62.8838C172.355 62.8216 172.345 62.7801 172.34 62.7594C172.319 62.6764 172.299 62.5935 172.298 62.5058C172.302 62.4388 172.286 62.3766 172.271 62.3144C172.25 62.2315 172.186 62.1373 171.935 62.1992C171.684 62.261 171.681 62.4157 171.687 62.5241L171.727 62.6023L171.629 62.5384C171.352 62.4089 171.056 62.3719 170.727 62.4528C170.399 62.5337 170.135 62.7087 169.973 62.9684C169.812 63.2281 169.782 63.5215 169.869 63.874C169.915 64.0606 169.994 64.217 170.107 64.3431C170.22 64.4692 170.343 64.5491 170.474 64.5827C170.624 64.6116 170.857 64.6422 171.182 64.6283L171.588 64.616C171.893 64.6069 172.059 64.698 172.105 64.8846C172.146 65.0505 172.106 65.3024 171.662 65.4118C171.469 65.4594 171.309 65.4767 171.197 65.4383C171.085 65.3999 170.938 65.3041 170.777 65.146C170.693 65.0566 170.6 65.0134 170.552 64.9815C170.483 64.9543 170.406 64.9733 170.29 65.0019C170.02 65.0685 170.017 65.2232 170.043 65.3268C170.053 65.3683 170.068 65.4305 170.108 65.5087C170.128 65.5916 170.163 65.6491 170.178 65.7113C170.189 65.7528 170.209 65.8357 170.215 65.9441C170.241 66.0478 170.237 66.1148 170.247 66.1563C170.278 66.2807 170.347 66.3956 170.617 66.3289C170.811 66.2814 170.867 66.1794 170.816 65.972L170.791 65.8683Z" fill="#054D94"/>
<path d="M155.211 72.5663C155.462 72.5045 155.862 72.3838 155.77 72.0106C155.699 71.7203 155.432 71.7199 155.201 71.777C155.104 71.8008 154.949 71.8389 154.844 71.9089C154.791 71.9439 154.752 71.9535 154.768 72.0157C154.778 72.0571 154.819 72.223 154.829 72.2645C154.902 72.6425 154.882 72.6473 155.211 72.5663ZM155.204 72.788C154.953 72.8498 154.958 72.8706 155.019 73.1194L155.086 73.389C155.106 73.4719 155.128 73.6426 155.22 73.6857C155.313 73.7289 155.545 73.6718 155.641 73.648C155.777 73.6147 155.945 73.5511 156.041 73.4396C156.136 73.3281 156.158 73.1687 156.117 73.0028C156.025 72.6296 155.682 72.6483 155.392 72.7197L155.199 72.7672L155.204 72.788ZM154.599 72.497C154.574 72.3933 154.523 72.186 154.478 72.0871C154.438 72.0089 154.37 71.9817 154.293 72.0007C154.235 72.015 154.201 72.0452 154.143 72.0595C154.085 72.0738 154.036 72.0418 154.021 71.9796C154.006 71.9174 154.029 71.8457 154.126 71.8219C154.261 71.7886 154.348 71.811 154.58 71.7539C154.831 71.6921 154.995 71.6078 155.207 71.5554C155.362 71.5173 155.56 71.4905 155.697 71.5449C155.877 71.6105 155.995 71.7573 156.041 71.9439C156.102 72.1928 155.988 72.3967 155.791 72.5113C156.082 72.5276 156.321 72.6666 156.398 72.9777C156.449 73.185 156.399 73.3954 156.275 73.5579C156.151 73.7204 155.944 73.7935 155.75 73.8411C155.519 73.8982 155.354 73.8948 155.103 73.9567C154.91 74.0042 154.765 74.0838 154.669 74.1076C154.591 74.1266 154.562 74.0899 154.522 74.0117C154.507 73.9495 154.535 73.8985 154.593 73.8842C154.651 73.87 154.695 73.8812 154.753 73.8669C154.83 73.8479 154.878 73.7921 154.877 73.7044C154.87 73.596 154.819 73.3886 154.794 73.285L154.599 72.497Z" fill="#054D94"/>
<path d="M156.743 72.2988C156.692 72.0915 156.638 72.0388 156.58 72.0531C156.522 72.0674 156.489 72.0976 156.45 72.1071C156.392 72.1214 156.343 72.0895 156.328 72.0272C156.307 71.9443 156.374 71.8838 156.452 71.8648C156.51 71.8505 156.578 71.8777 156.636 71.8634C156.694 71.8491 156.741 71.7934 156.799 71.7791C156.877 71.7601 156.911 71.8175 156.932 71.9005C156.998 72.17 156.999 72.2577 157.056 72.4858L157.091 72.631C157.122 72.7554 157.173 72.9627 157.237 73.0569C157.317 73.2132 157.487 73.2374 157.641 73.1993C157.834 73.1517 157.968 73.0307 157.975 72.8091C157.978 72.6544 157.941 72.4216 157.9 72.2557L157.844 72.0276C157.798 71.841 157.72 71.7723 157.662 71.7866C157.604 71.8009 157.57 71.8311 157.532 71.8406C157.474 71.8549 157.425 71.8229 157.409 71.7607C157.389 71.6778 157.437 71.6221 157.514 71.603C157.591 71.584 157.659 71.6112 157.717 71.5969C157.775 71.5826 157.823 71.5269 157.881 71.5126C157.939 71.4983 157.988 71.5303 158.003 71.5925C158.044 71.7584 158.08 71.9035 158.126 72.0901L158.279 72.7122C158.335 72.9403 158.384 72.9722 158.442 72.958C158.5 72.9437 158.534 72.9134 158.572 72.9039C158.63 72.8896 158.679 72.9216 158.694 72.9838C158.715 73.0667 158.667 73.1225 158.59 73.1415C158.532 73.1558 158.464 73.1286 158.406 73.1429C158.348 73.1572 158.3 73.2129 158.242 73.2272C158.184 73.2415 158.15 73.184 158.114 73.0389C158.044 73.254 157.885 73.3591 157.673 73.4114C157.538 73.4447 157.373 73.4413 157.232 73.3662C157.071 73.2959 156.991 73.1395 156.95 72.9736L156.782 72.2893L156.743 72.2988Z" fill="#054D94"/>
<path d="M158.81 71.7895C158.754 71.5614 158.724 71.5247 158.647 71.5438C158.589 71.558 158.555 71.5883 158.478 71.6073C158.42 71.6216 158.371 71.5897 158.356 71.5275C158.335 71.4445 158.383 71.3888 158.46 71.3697C158.518 71.3555 158.567 71.3874 158.644 71.3684C158.722 71.3493 158.75 71.2983 158.808 71.2841C158.885 71.265 158.92 71.3225 158.936 71.4724C158.992 71.2827 159.126 71.1617 159.3 71.1189C159.551 71.057 159.843 71.161 159.915 71.4513C159.956 71.6172 159.919 71.8021 159.745 71.8449C159.668 71.864 159.556 71.8256 159.531 71.7219C159.515 71.6597 159.553 71.5625 159.611 71.5482C159.63 71.5434 159.63 71.5434 159.649 71.5387C159.664 71.5132 159.659 71.4924 159.648 71.451C159.612 71.3058 159.438 71.261 159.322 71.2895C159.09 71.3466 158.971 71.5298 159.089 72.0068L159.196 72.4422C159.257 72.691 159.301 72.7022 159.359 72.688C159.417 72.6737 159.451 72.6434 159.489 72.6339C159.547 72.6196 159.596 72.6516 159.611 72.7138C159.632 72.7967 159.565 72.8572 159.507 72.8715C159.41 72.8953 159.303 72.8776 159.187 72.9062C159.052 72.9395 159.005 72.9953 158.869 73.0286C158.792 73.0476 158.724 73.0204 158.703 72.9375C158.688 72.8753 158.717 72.8243 158.774 72.81C158.813 72.8005 158.876 72.8069 158.915 72.7974C158.973 72.7831 158.982 72.7369 158.926 72.5088L158.752 71.8038L158.81 71.7895Z" fill="#054D94"/>
<path d="M161.171 71.2297C161.12 71.0224 160.916 70.9408 160.723 70.9884C160.53 71.036 160.411 71.2192 160.457 71.4058C160.508 71.6132 160.693 71.6995 160.886 71.6519C161.085 71.6251 161.228 71.4578 161.171 71.2297ZM160.698 72.4681C160.612 72.5334 160.574 72.6306 160.605 72.755C160.636 72.8794 160.753 72.9386 160.859 72.9562C160.966 72.9739 161.101 72.9406 161.198 72.9168C161.372 72.874 161.729 72.7421 161.662 72.4725C161.596 72.203 161.262 72.2631 161.069 72.3107C160.953 72.3393 160.804 72.3981 160.698 72.4681ZM160.916 72.1064C161.09 72.0636 161.264 72.0208 161.434 72.0449C161.642 72.0595 161.857 72.1826 161.913 72.4106C162.016 72.8254 161.558 73.048 161.249 73.1242C160.94 73.2003 160.456 73.2316 160.349 72.7961C160.303 72.6095 160.383 72.4358 160.541 72.3308C160.391 72.3019 160.254 72.2475 160.214 72.0816C160.173 71.9157 160.258 71.7627 160.383 71.688C160.305 71.6193 160.26 71.5204 160.234 71.4167C160.152 71.0849 160.391 70.8062 160.681 70.7348C160.739 70.7205 160.797 70.7063 160.879 70.708C160.828 70.5006 160.971 70.3334 161.145 70.2905C161.319 70.2477 161.518 70.3085 161.564 70.4952C161.59 70.5988 161.533 70.7008 161.436 70.7246C161.378 70.7389 161.305 70.691 161.29 70.6288C161.279 70.5873 161.308 70.5363 161.322 70.5108C161.273 70.4788 161.229 70.4676 161.171 70.4819C161.056 70.5105 161.023 70.6284 161.054 70.7528C161.234 70.8184 161.352 70.9653 161.398 71.1519C161.485 71.5044 161.246 71.7831 160.957 71.8545C160.841 71.8831 160.715 71.8702 160.589 71.8572C160.569 71.862 160.525 71.8508 160.506 71.8555C160.448 71.8698 160.411 71.967 160.426 72.0293C160.467 72.1951 160.679 72.1428 160.795 72.1142L160.911 72.0857L160.916 72.1064Z" fill="#054D94"/>
<path d="M162.965 70.9418C162.879 70.677 162.693 70.503 162.422 70.5696C162.152 70.6362 162.029 70.8864 162.076 71.1607L162.965 70.9418ZM162.099 71.4191C162.162 71.7556 162.412 72.0238 162.76 71.9381C162.972 71.8858 163.101 71.744 163.103 71.5017C163.107 71.4347 163.106 71.347 163.183 71.328C163.241 71.3137 163.309 71.3409 163.33 71.4238C163.365 71.569 163.305 71.7379 163.248 71.8399C163.143 71.9976 162.965 72.1074 162.792 72.1502C162.309 72.2692 161.96 71.9371 161.843 71.4602C161.787 71.2321 161.788 70.9897 161.858 70.7746C161.947 70.5546 162.134 70.3986 162.347 70.3463C162.752 70.2463 163.119 70.486 163.231 70.9421C163.272 71.108 163.277 71.1288 163.123 71.1668L162.099 71.4191Z" fill="#054D94"/>
<path d="M163.716 70.5808C163.66 70.3527 163.63 70.316 163.553 70.335C163.495 70.3493 163.461 70.3796 163.384 70.3986C163.326 70.4129 163.277 70.3809 163.262 70.3187C163.242 70.2358 163.289 70.18 163.367 70.161C163.425 70.1467 163.473 70.1787 163.551 70.1596C163.628 70.1406 163.656 70.0896 163.714 70.0753C163.792 70.0563 163.826 70.1137 163.843 70.2636C163.898 70.074 164.032 69.953 164.206 69.9101C164.457 69.8483 164.749 69.9523 164.821 70.2426C164.862 70.4085 164.825 70.5934 164.652 70.6362C164.574 70.6552 164.462 70.6168 164.437 70.5132C164.422 70.4509 164.459 70.3537 164.517 70.3395C164.536 70.3347 164.536 70.3347 164.556 70.3299C164.57 70.3044 164.565 70.2837 164.555 70.2422C164.519 70.0971 164.344 70.0522 164.228 70.0808C163.996 70.1379 163.877 70.3211 163.995 70.798L164.102 71.2335C164.164 71.4823 164.207 71.4935 164.265 71.4792C164.323 71.4649 164.357 71.4347 164.395 71.4252C164.453 71.4109 164.502 71.4429 164.518 71.5051C164.538 71.588 164.49 71.6437 164.413 71.6628C164.316 71.6866 164.21 71.6689 164.094 71.6975C163.959 71.7308 163.911 71.7865 163.776 71.8198C163.698 71.8389 163.63 71.8117 163.61 71.7287C163.594 71.6665 163.623 71.6155 163.681 71.6013C163.719 71.5917 163.782 71.5982 163.821 71.5887C163.879 71.5744 163.888 71.5282 163.832 71.3001L163.658 70.5951L163.716 70.5808Z" fill="#054D94"/>
<path d="M167.174 69.3988C167.148 69.2951 167.097 69.0878 167.052 68.9889C167.013 68.9107 166.945 68.8835 166.867 68.9025C166.809 68.9168 166.776 68.9471 166.718 68.9613C166.66 68.9756 166.611 68.9437 166.596 68.8815C166.575 68.7985 166.623 68.7428 166.681 68.7285C166.816 68.6952 166.942 68.7081 167.097 68.67C167.251 68.6319 167.338 68.5667 167.492 68.5286C167.569 68.5096 167.638 68.5368 167.658 68.6197C167.673 68.6819 167.645 68.7329 167.587 68.7472C167.529 68.7615 167.485 68.7502 167.427 68.7645C167.35 68.7836 167.302 68.8393 167.304 68.927C167.31 69.0354 167.361 69.2428 167.387 69.3465L167.438 69.5538C167.499 69.8027 167.636 70.2748 167.61 70.5012C167.551 70.8455 167.297 71.0621 166.988 71.1382C166.602 71.2334 166.184 71.1165 166.071 70.6603C166.005 70.3907 166.142 70.115 166.393 70.0532C166.547 70.0151 166.727 70.0807 166.768 70.2466C166.794 70.3503 166.742 70.473 166.646 70.4968C166.568 70.5158 166.476 70.4727 166.455 70.3897C166.445 70.3482 166.459 70.3227 166.474 70.2972C166.449 70.2813 166.449 70.2813 166.41 70.2908C166.314 70.3146 166.278 70.4995 166.298 70.5824C166.37 70.8727 166.642 70.9815 166.893 70.9197C167.067 70.8768 167.245 70.767 167.301 70.5773C167.351 70.3669 167.3 70.1596 167.249 69.9522L167.116 69.4131L167.174 69.3988Z" fill="#054D94"/>
<path d="M168.922 70.42C169.308 70.3248 169.337 69.9437 169.25 69.5912C169.214 69.4461 169.13 69.269 169.017 69.1429C168.903 69.0167 168.739 69.0133 168.604 69.0467C168.43 69.0895 168.31 69.185 168.273 69.3699C168.227 69.5134 168.254 69.7048 168.289 69.8499C168.347 70.1657 168.555 70.5104 168.922 70.42ZM168.533 68.8441C168.746 68.7917 168.973 68.8016 169.155 68.9549C169.336 69.1082 169.45 69.322 169.506 69.5501C169.629 70.0477 169.48 70.5243 168.978 70.6481C168.495 70.767 168.142 70.4142 168.024 69.9373C167.901 69.4396 168.031 68.9678 168.533 68.8441Z" fill="#054D94"/>
<path d="M169.958 68.1413C169.984 68.2449 169.927 68.3469 169.83 68.3707C169.734 68.3945 169.636 68.3306 169.61 68.2269C169.585 68.1232 169.642 68.0213 169.738 67.9975C169.835 67.9737 169.932 68.0376 169.958 68.1413ZM169.936 69.0485C169.88 68.8204 169.85 68.7837 169.773 68.8028C169.715 68.817 169.681 68.8473 169.643 68.8568C169.585 68.8711 169.536 68.8391 169.521 68.7769C169.5 68.694 169.548 68.6382 169.606 68.624C169.683 68.6049 169.751 68.6321 169.809 68.6178C169.886 68.5988 169.915 68.5478 169.973 68.5335C170.05 68.5145 170.07 68.5974 170.086 68.6597L170.387 69.883C170.408 69.966 170.442 70.0234 170.5 70.0092C170.539 69.9996 170.573 69.9694 170.611 69.9599C170.669 69.9456 170.718 69.9775 170.733 70.0398C170.754 70.1227 170.706 70.1784 170.629 70.1975C170.532 70.2213 170.425 70.2036 170.31 70.2322C170.174 70.2655 170.107 70.326 169.991 70.3545C169.933 70.3688 169.879 70.3161 169.864 70.2539C169.849 70.1917 169.877 70.1407 169.935 70.1264C169.974 70.1169 170.037 70.1234 170.075 70.1139C170.153 70.0948 170.157 70.0279 170.106 69.8205L169.916 69.0533L169.936 69.0485Z" fill="#054D94"/>
<path d="M170.902 68.8105C170.845 68.5824 170.816 68.5457 170.739 68.5648C170.681 68.579 170.647 68.6093 170.608 68.6188C170.55 68.6331 170.502 68.6011 170.486 68.5389C170.471 68.4767 170.514 68.4002 170.571 68.386C170.629 68.3717 170.659 68.4084 170.756 68.3846C170.852 68.3608 170.861 68.3146 170.938 68.2955C170.996 68.2813 171.012 68.3435 171.048 68.4886C171.123 68.2942 171.315 68.1589 171.488 68.1161C171.643 68.078 171.832 68.0974 171.979 68.1932C172.145 68.2843 172.185 68.4502 172.231 68.6368L172.38 69.2382C172.431 69.4455 172.465 69.503 172.543 69.4839C172.601 69.4697 172.634 69.4394 172.673 69.4299C172.731 69.4156 172.78 69.4476 172.795 69.5098C172.815 69.5927 172.768 69.6485 172.69 69.6675C172.594 69.6913 172.506 69.6688 172.371 69.7022C172.217 69.7402 172.169 69.796 172.053 69.8245C171.976 69.8436 171.908 69.8164 171.887 69.7334C171.872 69.6712 171.9 69.6202 171.958 69.606C171.997 69.5964 172.06 69.6029 172.098 69.5934C172.176 69.5743 172.18 69.5074 172.129 69.3L172.011 68.8231C171.96 68.6158 171.945 68.5535 171.861 68.4641C171.772 68.354 171.603 68.3299 171.487 68.3584C171.351 68.3917 171.212 68.492 171.166 68.6355C171.142 68.7072 171.124 68.7997 171.201 69.1107L171.298 69.5047C171.349 69.712 171.384 69.7695 171.461 69.7504C171.519 69.7362 171.553 69.7059 171.591 69.6964C171.649 69.6821 171.698 69.7141 171.713 69.7763C171.734 69.8592 171.686 69.915 171.609 69.934C171.512 69.9578 171.425 69.9354 171.289 69.9687C171.135 70.0067 171.087 70.0625 170.971 70.091C170.894 70.1101 170.826 70.0829 170.805 69.9999C170.79 69.9377 170.819 69.8867 170.876 69.8725C170.915 69.8629 170.978 69.8694 171.017 69.8599C171.094 69.8409 171.098 69.7739 171.047 69.5665L170.863 68.8201L170.902 68.8105Z" fill="#054D94"/>
<path d="M172.783 68.215C172.757 68.1113 172.733 68.0953 172.636 68.1191C172.521 68.1477 172.457 68.1412 172.432 68.0376C172.417 67.9754 172.459 67.8989 172.517 67.8846L172.633 67.856C172.691 67.8418 172.686 67.821 172.665 67.7381L172.599 67.4685C172.578 67.3856 172.577 67.2979 172.674 67.2741C172.771 67.2503 172.81 67.3285 172.831 67.4114L172.913 67.7432C172.923 67.7847 172.928 67.8054 172.986 67.7911L173.295 67.715C173.411 67.6864 173.46 67.7184 173.48 67.8013C173.495 67.8635 173.491 67.9305 173.337 67.9686L173.066 68.0352C172.989 68.0542 172.989 68.0542 173.005 68.1164L173.199 68.9044C173.27 69.1947 173.354 69.2841 173.528 69.2412C173.721 69.1937 173.699 69.023 173.658 68.8571L173.633 68.7534C173.597 68.6083 173.62 68.5366 173.698 68.5175C173.775 68.4985 173.834 68.5719 173.854 68.6549C173.946 69.0281 173.97 69.3742 173.545 69.4788C173.41 69.5122 173.24 69.488 173.127 69.3619C173.063 69.2678 173.028 69.2103 172.962 68.9407L172.783 68.215Z" fill="#054D94"/>
</svg>
