<svg width="23" height="17" viewBox="0 0 23 17" fill="none" xmlns="http://www.w3.org/2000/svg">
<path d="M2.43689 17C1.87751 17 1.41082 16.813 1.03682 16.439C0.662824 16.065 0.475419 15.5979 0.474609 15.0377V1.96229C0.474609 1.4029 0.662014 0.936214 1.03682 0.562214C1.41163 0.188214 1.87792 0.000809524 2.43568 0H20.3707C20.9292 0 21.3955 0.187404 21.7695 0.562214C22.1435 0.937023 22.3309 1.40371 22.3317 1.96229V15.0389C22.3317 15.5975 22.1443 16.0642 21.7695 16.439C21.3947 16.8138 20.9284 17.0008 20.3707 17H2.43689ZM11.4032 8.64086L1.68889 2.28893V15.0389C1.68889 15.2567 1.75892 15.4356 1.89897 15.5756C2.03901 15.7157 2.21832 15.7857 2.43689 15.7857H20.3707C20.5884 15.7857 20.7673 15.7157 20.9074 15.5756C21.0474 15.4356 21.1175 15.2563 21.1175 15.0377V2.28771L11.4032 8.64086ZM11.4032 7.28571L20.7435 1.21429H2.06289L11.4032 7.28571ZM1.68889 2.28893V1.21429V15.0389C1.68889 15.2567 1.75892 15.4356 1.89897 15.5756C2.03901 15.7157 2.21832 15.7857 2.43689 15.7857H1.68889V2.28893Z" fill="#1C1C1B"/>
</svg>
