<svg width="261" height="226" viewBox="0 0 261 226" fill="none" xmlns="http://www.w3.org/2000/svg">
<path d="M81 25L180.546 36.9403V180.656L82.4421 200.557" stroke="#054D94" stroke-width="2" stroke-miterlimit="10"/>
<path d="M81 52.5L163.212 59.1335L170.769 59.7392L172.946 170.518L82.4421 187.895L81 52.5Z" stroke="#054D94" stroke-miterlimit="10"/>
<path d="M82.2834 173.359L163.53 161.823L160.963 59.1335" stroke="#054D94" stroke-miterlimit="10"/>
<path d="M172.946 170.518L163.53 161.823" stroke="#054D94" stroke-miterlimit="10"/>
<path d="M81.6777 116.095C81.6777 116.095 88.1815 120.19 91.3396 120.19C94.4977 120.19 103.813 118.143 103.813 118.143V121.762L117.931 123.81C122.358 124.618 120.902 127.949 117.931 127.314C117.931 127.314 106.799 127.314 105.659 127.314C104.52 127.314 119.388 128.886 119.388 128.886C123.18 129.001 124.219 132.621 119.388 132.578C119.388 132.578 106.914 131.626 105.616 131.712C104.318 131.799 112.711 132.895 117.427 133.313C122.142 133.731 121.998 137.495 117.297 137.005C117.297 137.005 105.832 135.88 104.938 135.894C104.044 135.909 113.922 137.005 113.922 137.005C119.099 138.433 115.927 141.403 112.322 140.884C112.322 140.884 100.886 140.538 97.5549 139.831C94.2237 139.125 92.8105 136.313 90.359 135.101C87.9075 133.89 82.2978 133.385 82.2978 133.385" stroke="#054D94" stroke-miterlimit="10"/>
<path d="M103.828 122.022V105.741H125.185H143.283L146.542 145.196L134.241 148.815L103.828 147.373V140.884" stroke="#054D94" stroke-miterlimit="10"/>
<path d="M136.015 148.815L135.654 105.741" stroke="#054D94" stroke-miterlimit="10"/>
<path d="M117.369 106.462C116.605 89.489 135.885 90.4984 134.731 106.462" stroke="#054D94" stroke-miterlimit="10"/>
<path d="M111.067 106.462C110.303 89.489 129.583 90.4984 128.43 106.462" stroke="#054D94" stroke-miterlimit="10"/>
<path d="M111.015 122.342C111.165 122.347 111.345 122.369 111.554 122.392C111.689 122.413 111.809 122.417 111.899 122.42C112.14 122.429 112.249 122.303 112.258 122.045C112.265 121.851 112.178 121.752 111.998 121.745C111.968 121.744 111.908 121.742 111.832 121.756C111.756 121.769 111.696 121.767 111.651 121.766C111.546 121.762 111.428 121.694 111.439 121.371L111.493 119.774C111.498 119.629 111.532 119.517 111.58 119.454C111.627 119.391 111.718 119.362 111.838 119.366C112.079 119.374 112.103 119.536 112.1 119.617C112.099 119.649 112.097 119.714 112.079 119.794C112.062 119.858 112.06 119.922 112.058 119.971C112.048 120.261 112.149 120.41 112.389 120.418C112.494 120.422 112.57 120.392 112.648 120.314C112.711 120.252 112.744 120.14 112.749 120.011C112.749 119.994 112.753 119.898 112.743 119.752C112.732 119.622 112.735 119.542 112.737 119.477C112.739 119.413 112.742 119.332 112.761 119.22C112.779 119.123 112.782 119.043 112.784 118.978C112.789 118.849 112.731 118.782 112.595 118.778C112.52 118.775 112.415 118.772 112.294 118.784C112.038 118.807 111.632 118.81 111.136 118.793C110.64 118.776 110.25 118.746 109.966 118.704C109.846 118.7 109.741 118.68 109.666 118.678C109.546 118.674 109.483 118.736 109.479 118.865C109.477 118.914 109.475 118.994 109.487 119.075C109.497 119.221 109.494 119.302 109.492 119.35C109.49 119.431 109.486 119.528 109.468 119.624C109.448 119.769 109.445 119.849 109.444 119.898C109.439 120.027 109.466 120.125 109.523 120.207C109.581 120.274 109.67 120.309 109.775 120.313C110.016 120.321 110.126 120.179 110.136 119.873C110.138 119.841 110.139 119.792 110.127 119.711C110.114 119.646 110.101 119.581 110.102 119.549C110.106 119.436 110.156 119.308 110.411 119.317C110.546 119.322 110.709 119.408 110.697 119.747L110.643 121.344C110.632 121.666 110.509 121.727 110.404 121.723C110.359 121.722 110.299 121.72 110.224 121.701C110.15 121.682 110.105 121.681 110.06 121.679C109.879 121.673 109.786 121.767 109.778 121.993C109.77 122.235 109.871 122.351 110.112 122.359C110.217 122.363 110.337 122.367 110.458 122.355C110.684 122.33 110.864 122.337 111.015 122.342Z" fill="#054D94"/>
<path d="M114.11 121.979C113.93 121.973 113.798 121.888 113.713 121.739C113.627 121.591 113.589 121.38 113.598 121.122C113.607 120.864 113.659 120.656 113.754 120.513C113.85 120.355 113.988 120.279 114.168 120.285C114.529 120.298 114.699 120.594 114.68 121.159C114.646 121.707 114.456 121.991 114.11 121.979ZM114.174 119.688C113.768 119.674 113.448 119.792 113.215 120.027C112.98 120.277 112.863 120.628 112.848 121.08C112.832 121.532 112.94 121.891 113.142 122.156C113.359 122.406 113.67 122.546 114.091 122.56C114.481 122.573 114.801 122.455 115.035 122.205C115.269 121.954 115.387 121.603 115.403 121.135C115.418 120.699 115.31 120.34 115.092 120.091C114.89 119.842 114.579 119.702 114.174 119.688Z" fill="#054D94"/>
<path d="M118.899 120.495C119.049 120.501 119.153 120.553 119.194 120.667C119.236 120.765 119.26 120.928 119.251 121.186L119.232 121.767C119.225 121.96 119.208 122.008 119.208 122.024C119.191 122.072 119.13 122.102 119.054 122.116C118.994 122.13 118.902 122.159 118.896 122.353C118.892 122.45 118.92 122.515 118.963 122.581C119.006 122.647 119.066 122.665 119.126 122.667C119.171 122.669 119.231 122.671 119.337 122.658C119.442 122.646 119.547 122.65 119.668 122.654C119.758 122.657 119.833 122.659 119.892 122.677L120.012 122.698C120.132 122.718 120.147 122.718 120.162 122.719C120.237 122.722 120.298 122.691 120.345 122.628C120.393 122.565 120.425 122.486 120.429 122.373C120.436 122.163 120.347 122.128 120.257 122.125C120.227 122.124 120.212 122.123 120.197 122.139C120.151 122.153 120.12 122.168 120.09 122.167C119.94 122.162 119.949 121.904 119.952 121.823L119.981 120.968C119.992 120.63 119.941 120.386 119.856 120.221C119.713 119.99 119.491 119.886 119.176 119.875C119.026 119.87 118.889 119.898 118.768 119.942C118.645 120.002 118.492 120.094 118.321 120.25L118.245 120.279L118.216 120.23C118.06 119.95 117.869 119.814 117.614 119.806C117.314 119.795 117.023 119.947 116.771 120.261L116.692 120.372L116.705 119.984C116.709 119.888 116.679 119.87 116.619 119.868C116.574 119.867 116.529 119.865 116.438 119.878C116.348 119.891 116.288 119.889 116.243 119.888C116.197 119.886 116.137 119.884 116.078 119.866C115.958 119.846 115.929 119.829 115.914 119.828C115.839 119.826 115.777 119.856 115.716 119.902C115.668 119.965 115.636 120.045 115.632 120.142C115.625 120.367 115.729 120.403 115.819 120.406C115.834 120.407 115.849 120.407 115.894 120.393C115.955 120.379 115.97 120.379 115.985 120.38C116.105 120.384 116.114 120.578 116.108 120.755L116.077 121.659C116.071 121.82 116.05 122.013 115.929 122.009C115.899 122.008 115.869 122.007 115.84 121.99C115.84 121.974 115.81 121.973 115.78 121.972C115.69 121.969 115.584 121.997 115.576 122.239C115.572 122.336 115.6 122.418 115.643 122.468C115.686 122.534 115.745 122.552 115.836 122.555C115.866 122.556 115.956 122.543 116.092 122.531C116.183 122.518 116.258 122.521 116.348 122.524C116.408 122.526 116.498 122.529 116.618 122.549C116.737 122.57 116.813 122.572 116.873 122.574C116.978 122.578 117.114 122.55 117.124 122.276C117.129 122.131 117.086 122.049 116.967 122.028C116.892 122.01 116.862 121.993 116.834 121.959C116.82 121.926 116.806 121.894 116.808 121.813L116.832 121.135C116.848 120.652 117.022 120.415 117.352 120.426C117.487 120.431 117.591 120.483 117.633 120.581C117.674 120.68 117.7 120.826 117.692 121.052L117.67 121.681C117.67 121.697 117.668 121.762 117.664 121.858C117.661 121.955 117.614 122.018 117.523 122.031C117.462 122.045 117.401 122.092 117.395 122.269C117.385 122.543 117.504 122.58 117.594 122.583C117.639 122.584 117.685 122.586 117.775 122.573C117.866 122.56 117.926 122.562 117.971 122.563C118.016 122.565 118.091 122.584 118.21 122.604C118.27 122.622 118.33 122.624 118.36 122.625C118.465 122.629 118.601 122.601 118.611 122.311C118.617 122.133 118.543 122.098 118.499 122.081C118.424 122.062 118.396 122.013 118.382 121.98C118.368 121.947 118.37 121.899 118.376 121.721L118.393 121.205C118.394 120.737 118.569 120.484 118.899 120.495Z" fill="#054D94"/>
<path d="M125.23 122.295C125.2 122.293 125.185 122.293 125.169 122.309C125.124 122.323 125.093 122.338 125.063 122.337L124.934 122.155C124.921 122.09 124.923 122.026 124.924 121.993L124.954 121.138C124.965 120.8 124.913 120.556 124.829 120.391C124.686 120.16 124.464 120.056 124.149 120.045C123.998 120.04 123.862 120.067 123.74 120.112C123.618 120.172 123.464 120.264 123.294 120.419L123.247 120.45L123.219 120.401C123.063 120.137 122.872 120.001 122.616 119.993C122.316 119.982 122.025 120.134 121.773 120.448L121.694 120.559L121.708 120.155C121.712 120.059 121.682 120.041 121.622 120.039C121.577 120.038 121.532 120.036 121.441 120.049C121.35 120.062 121.29 120.06 121.245 120.059C121.2 120.057 121.14 120.055 121.081 120.037C120.961 120.017 120.931 120 120.916 119.999C120.841 119.996 120.78 120.027 120.718 120.073C120.671 120.136 120.638 120.216 120.635 120.312C120.627 120.538 120.731 120.574 120.821 120.577C120.836 120.578 120.851 120.578 120.897 120.564C120.958 120.55 120.973 120.55 120.988 120.551C121.108 120.555 121.116 120.749 121.11 120.926L121.079 121.83C121.074 121.991 121.052 122.184 120.932 122.18C120.902 122.179 120.872 122.178 120.843 122.161C120.828 122.144 120.798 122.143 120.783 122.143C120.693 122.14 120.587 122.168 120.578 122.41C120.575 122.507 120.602 122.589 120.646 122.639C120.689 122.705 120.748 122.723 120.838 122.726C120.868 122.727 120.959 122.714 121.095 122.702C121.185 122.689 121.261 122.692 121.351 122.695C121.411 122.697 121.501 122.7 121.621 122.72C121.74 122.741 121.815 122.743 121.875 122.745C121.981 122.749 122.117 122.721 122.126 122.447C122.131 122.302 122.089 122.22 121.969 122.199C121.895 122.181 121.865 122.163 121.836 122.13C121.822 122.097 121.808 122.065 121.811 121.984L121.834 121.306C121.851 120.822 122.024 120.586 122.355 120.597C122.49 120.602 122.594 120.654 122.635 120.752C122.677 120.851 122.702 120.997 122.695 121.223L122.673 121.852C122.672 121.868 122.67 121.932 122.667 122.029C122.664 122.126 122.616 122.189 122.526 122.202C122.465 122.216 122.403 122.263 122.397 122.44C122.388 122.714 122.507 122.751 122.597 122.754C122.642 122.755 122.687 122.757 122.778 122.744C122.869 122.731 122.929 122.733 122.974 122.734C123.019 122.736 123.093 122.755 123.213 122.775C123.273 122.793 123.333 122.795 123.363 122.796C123.468 122.8 123.604 122.772 123.614 122.482C123.62 122.304 123.546 122.269 123.502 122.252C123.427 122.233 123.399 122.183 123.385 122.151C123.37 122.134 123.357 122.069 123.364 121.892L123.381 121.375C123.398 120.891 123.571 120.655 123.887 120.666L124.245 121.179C124.244 121.227 124.241 121.292 124.239 121.356L124.219 121.937C124.213 122.131 124.196 122.178 124.195 122.195C124.179 122.242 124.118 122.273 124.042 122.286C123.981 122.3 123.89 122.329 123.883 122.523C123.88 122.62 123.908 122.685 123.951 122.751C123.994 122.818 124.053 122.836 124.113 122.838C124.158 122.839 124.219 122.841 124.324 122.829C124.43 122.816 124.535 122.82 124.655 122.824C124.745 122.827 124.821 122.83 124.88 122.848L125 122.868C125.119 122.888 125.134 122.889 125.149 122.889C125.225 122.892 125.286 122.862 125.333 122.799C125.38 122.736 125.413 122.656 125.417 122.543C125.41 122.317 125.305 122.297 125.23 122.295Z" fill="#054D94"/>
<path d="M126.517 118.963C126.397 118.959 126.29 119.003 126.212 119.082C126.119 119.175 126.085 119.271 126.081 119.4C126.076 119.529 126.118 119.628 126.19 119.727C126.277 119.827 126.366 119.862 126.486 119.866C126.606 119.87 126.713 119.826 126.791 119.747C126.884 119.654 126.918 119.558 126.922 119.429C126.927 119.3 126.885 119.185 126.813 119.102C126.741 119.019 126.637 118.967 126.517 118.963ZM126.384 122.867C126.504 122.871 126.624 122.875 126.714 122.894C126.863 122.915 126.968 122.935 126.998 122.936C127.103 122.94 127.254 122.913 127.265 122.606C127.272 122.396 127.183 122.361 127.108 122.359C127.093 122.358 127.063 122.357 127.032 122.372C126.972 122.386 126.957 122.386 126.942 122.385C126.791 122.38 126.8 122.122 126.803 122.041L126.86 120.38C126.865 120.218 126.79 120.216 126.76 120.215C126.76 120.215 126.73 120.214 126.609 120.226C126.534 120.239 126.443 120.236 126.383 120.234C126.308 120.232 126.204 120.212 126.084 120.192C126.009 120.173 125.964 120.171 125.919 120.17C125.829 120.167 125.768 120.197 125.721 120.244C125.674 120.307 125.642 120.37 125.638 120.483C125.63 120.709 125.734 120.745 125.824 120.748C125.839 120.749 125.869 120.75 125.9 120.734C125.976 120.705 125.991 120.705 126.006 120.706C126.126 120.71 126.135 120.904 126.129 121.081L126.097 122.001C126.094 122.098 126.085 122.356 125.95 122.351C125.935 122.351 125.92 122.35 125.905 122.35L125.771 122.313C125.681 122.31 125.574 122.338 125.566 122.58C125.563 122.677 125.59 122.759 125.634 122.809C125.676 122.875 125.751 122.894 125.826 122.896C125.886 122.898 125.976 122.901 126.097 122.889C126.233 122.878 126.323 122.865 126.384 122.867Z" fill="#054D94"/>
<path d="M128.027 119.24C127.906 119.236 127.8 119.281 127.706 119.375C127.613 119.469 127.563 119.596 127.558 119.741C127.549 119.999 127.664 120.165 127.887 120.237C128.006 120.29 128.034 120.355 128.032 120.404C128.03 120.468 127.995 120.612 127.694 121.038C127.631 121.149 127.583 121.228 127.579 121.325C127.575 121.454 127.618 121.504 127.724 121.507C127.784 121.509 127.86 121.464 127.939 121.353C128.316 120.882 128.512 120.436 128.527 120.001C128.534 119.791 128.48 119.611 128.38 119.463C128.31 119.315 128.177 119.246 128.027 119.24Z" fill="#054D94"/>
<path d="M129.111 122.718L129.184 122.785C129.418 122.987 129.684 123.109 129.97 123.119C130.255 123.128 130.514 123.04 130.7 122.869C130.902 122.698 130.999 122.475 131.008 122.217C131.014 122.056 130.974 121.909 130.903 121.778C130.846 121.679 130.759 121.595 130.655 121.543C130.552 121.491 130.388 121.437 130.164 121.381C129.881 121.323 129.702 121.268 129.643 121.234C129.569 121.199 129.527 121.117 129.53 121.02C129.534 120.891 129.6 120.748 129.885 120.758C130.065 120.764 130.227 120.866 130.341 121.048C130.427 121.18 130.53 121.248 130.635 121.252C130.8 121.257 130.863 121.179 130.869 121.017L130.874 120.872C130.875 120.824 130.876 120.792 130.877 120.775C130.879 120.711 130.881 120.646 130.899 120.582C130.915 120.534 130.917 120.486 130.919 120.438C130.921 120.373 130.894 120.291 130.698 120.285C130.503 120.278 130.469 120.39 130.451 120.47L130.464 120.535L130.406 120.469C130.231 120.317 130.023 120.229 129.768 120.221C129.513 120.212 129.284 120.285 129.114 120.441C128.943 120.596 128.861 120.803 128.851 121.078C128.846 121.223 128.872 121.353 128.928 121.468C128.984 121.583 129.057 121.666 129.145 121.718C129.249 121.77 129.412 121.84 129.651 121.896L129.949 121.971C130.172 122.027 130.274 122.128 130.269 122.273C130.265 122.402 130.184 122.577 129.838 122.565C129.688 122.56 129.568 122.54 129.495 122.489C129.421 122.438 129.335 122.338 129.249 122.19C129.207 122.107 129.149 122.057 129.12 122.024C129.076 121.99 129.016 121.988 128.926 121.985C128.715 121.977 128.681 122.089 128.679 122.17C128.677 122.202 128.676 122.251 128.689 122.316C128.686 122.38 128.7 122.429 128.698 122.478C128.697 122.51 128.695 122.574 128.677 122.655C128.674 122.735 128.658 122.783 128.657 122.815C128.653 122.912 128.68 123.01 128.89 123.017C129.04 123.022 129.103 122.96 129.108 122.798L129.111 122.718Z" fill="#054D94"/>
<path d="M122.997 124.689C123.003 124.512 122.989 124.479 122.929 124.477C122.884 124.475 122.854 124.49 122.794 124.488C122.748 124.487 122.72 124.454 122.721 124.405C122.723 124.341 122.77 124.31 122.83 124.312C122.875 124.314 122.904 124.347 122.964 124.349C123.024 124.351 123.055 124.32 123.1 124.321C123.16 124.323 123.174 124.372 123.155 124.485C123.234 124.358 123.357 124.298 123.492 124.302C123.687 124.309 123.878 124.445 123.87 124.671C123.866 124.8 123.801 124.927 123.666 124.922C123.606 124.92 123.533 124.869 123.535 124.788C123.537 124.74 123.584 124.677 123.629 124.678C123.644 124.679 123.644 124.679 123.659 124.679C123.675 124.664 123.675 124.648 123.677 124.615C123.68 124.503 123.562 124.434 123.472 124.431C123.292 124.425 123.168 124.534 123.155 124.905L123.144 125.243C123.137 125.437 123.167 125.454 123.212 125.456C123.257 125.457 123.287 125.442 123.317 125.443C123.363 125.445 123.391 125.478 123.39 125.526C123.388 125.591 123.341 125.622 123.281 125.619C123.206 125.617 123.132 125.582 123.042 125.579C122.937 125.575 122.891 125.606 122.786 125.603C122.725 125.601 122.681 125.567 122.684 125.502C122.685 125.454 122.717 125.423 122.762 125.424C122.792 125.425 122.836 125.443 122.866 125.444C122.911 125.445 122.927 125.414 122.933 125.236L122.952 124.688L122.997 124.689Z" fill="#054D94"/>
<path d="M125.755 124.541C125.758 124.461 125.763 124.299 125.751 124.218C125.738 124.153 125.694 124.119 125.634 124.117C125.589 124.116 125.558 124.131 125.513 124.129C125.468 124.128 125.439 124.094 125.441 124.046C125.443 123.981 125.489 123.951 125.534 123.952C125.639 123.956 125.728 123.991 125.849 123.995C125.969 123.999 126.045 123.97 126.165 123.974C126.225 123.976 126.269 124.01 126.267 124.074C126.265 124.123 126.234 124.154 126.189 124.152C126.144 124.151 126.115 124.134 126.07 124.132C126.009 124.13 125.963 124.161 125.946 124.225C125.928 124.305 125.923 124.466 125.92 124.547L125.915 124.708C125.908 124.902 125.91 125.273 125.845 125.433C125.731 125.671 125.502 125.776 125.262 125.768C124.961 125.758 124.681 125.587 124.693 125.232C124.701 125.022 124.857 124.85 125.052 124.856C125.172 124.86 125.29 124.945 125.285 125.074C125.283 125.155 125.22 125.234 125.145 125.231C125.085 125.229 125.026 125.179 125.028 125.114C125.029 125.082 125.045 125.066 125.061 125.05C125.046 125.034 125.046 125.034 125.016 125.033C124.941 125.03 124.876 125.157 124.874 125.222C124.867 125.448 125.042 125.583 125.238 125.59C125.373 125.594 125.525 125.551 125.604 125.424C125.684 125.282 125.69 125.12 125.695 124.959L125.71 124.54L125.755 124.541Z" fill="#054D94"/>
<path d="M126.815 125.644C127.116 125.654 127.215 125.383 127.224 125.108C127.228 124.995 127.203 124.849 127.147 124.734C127.091 124.619 126.972 124.583 126.867 124.579C126.731 124.575 126.625 124.619 126.56 124.746C126.497 124.841 126.477 124.986 126.473 125.099C126.449 125.34 126.53 125.634 126.815 125.644ZM126.857 124.417C127.022 124.423 127.186 124.477 127.286 124.626C127.386 124.775 127.425 124.954 127.419 125.131C127.406 125.518 127.2 125.834 126.809 125.821C126.433 125.808 126.249 125.479 126.262 125.108C126.275 124.721 126.466 124.404 126.857 124.417Z" fill="#054D94"/>
<path d="M128.038 124.199C128.035 124.28 127.972 124.342 127.897 124.34C127.822 124.337 127.764 124.271 127.767 124.19C127.77 124.109 127.832 124.047 127.907 124.049C127.982 124.052 128.04 124.118 128.038 124.199ZM127.835 124.854C127.841 124.677 127.827 124.644 127.767 124.642C127.722 124.641 127.691 124.656 127.661 124.655C127.616 124.653 127.587 124.62 127.589 124.571C127.591 124.507 127.637 124.476 127.682 124.478C127.742 124.48 127.786 124.514 127.831 124.515C127.891 124.517 127.922 124.486 127.968 124.487C128.028 124.49 128.025 124.554 128.024 124.602L127.991 125.554C127.989 125.619 128.002 125.668 128.047 125.669C128.078 125.67 128.108 125.655 128.138 125.656C128.183 125.658 128.212 125.691 128.211 125.739C128.208 125.804 128.162 125.835 128.102 125.833C128.027 125.83 127.953 125.795 127.863 125.792C127.758 125.789 127.696 125.819 127.606 125.816C127.561 125.814 127.533 125.765 127.534 125.716C127.536 125.668 127.567 125.637 127.612 125.638C127.642 125.639 127.687 125.657 127.717 125.658C127.777 125.66 127.794 125.612 127.799 125.451L127.82 124.854L127.835 124.854Z" fill="#054D94"/>
<path d="M128.586 124.88C128.592 124.703 128.578 124.67 128.518 124.668C128.473 124.666 128.442 124.681 128.412 124.68C128.367 124.679 128.338 124.646 128.34 124.597C128.341 124.549 128.388 124.502 128.433 124.503C128.478 124.505 128.492 124.538 128.567 124.54C128.643 124.543 128.659 124.511 128.719 124.513C128.764 124.515 128.762 124.563 128.758 124.676C128.853 124.55 129.02 124.491 129.156 124.496C129.276 124.5 129.409 124.553 129.496 124.653C129.598 124.753 129.594 124.882 129.589 125.027L129.573 125.495C129.567 125.657 129.58 125.705 129.641 125.708C129.686 125.709 129.716 125.694 129.746 125.695C129.791 125.697 129.82 125.73 129.819 125.778C129.816 125.843 129.77 125.873 129.71 125.871C129.635 125.869 129.576 125.835 129.471 125.831C129.351 125.827 129.305 125.858 129.214 125.854C129.154 125.852 129.11 125.819 129.113 125.754C129.114 125.706 129.145 125.674 129.19 125.676C129.22 125.677 129.265 125.695 129.295 125.696C129.355 125.698 129.372 125.65 129.377 125.489L129.39 125.118C129.395 124.956 129.397 124.908 129.355 124.826C129.313 124.727 129.195 124.675 129.104 124.672C128.999 124.668 128.877 124.712 128.814 124.807C128.782 124.855 128.75 124.918 128.742 125.16L128.731 125.467C128.726 125.628 128.739 125.677 128.799 125.679C128.844 125.68 128.875 125.665 128.905 125.666C128.95 125.668 128.979 125.701 128.977 125.749C128.975 125.814 128.929 125.845 128.869 125.843C128.794 125.84 128.735 125.806 128.63 125.802C128.509 125.798 128.463 125.829 128.373 125.826C128.313 125.824 128.269 125.79 128.271 125.725C128.273 125.677 128.304 125.646 128.349 125.647C128.379 125.648 128.424 125.666 128.454 125.667C128.514 125.669 128.53 125.621 128.536 125.46L128.556 124.879L128.586 124.88Z" fill="#054D94"/>
<path d="M130.077 124.834C130.079 124.754 130.065 124.737 129.99 124.734C129.9 124.731 129.855 124.714 129.858 124.633C129.86 124.585 129.906 124.538 129.951 124.539L130.041 124.542C130.087 124.544 130.087 124.528 130.089 124.463L130.096 124.253C130.099 124.189 130.116 124.125 130.191 124.127C130.266 124.13 130.279 124.195 130.277 124.26L130.268 124.518C130.267 124.55 130.266 124.566 130.311 124.568L130.552 124.576C130.642 124.579 130.671 124.612 130.669 124.677C130.667 124.725 130.65 124.773 130.53 124.769L130.32 124.762C130.26 124.76 130.26 124.76 130.258 124.808L130.237 125.421C130.229 125.647 130.272 125.729 130.407 125.734C130.557 125.739 130.576 125.61 130.581 125.481L130.584 125.401C130.588 125.288 130.619 125.24 130.679 125.242C130.739 125.244 130.767 125.31 130.765 125.375C130.755 125.665 130.701 125.922 130.371 125.91C130.266 125.907 130.147 125.854 130.091 125.739C130.064 125.657 130.05 125.609 130.057 125.399L130.077 124.834Z" fill="#054D94"/>
</svg>
