<svg width="262" height="226" viewBox="0 0 262 226" fill="none" xmlns="http://www.w3.org/2000/svg">
<path d="M65.4314 77.0605L143.413 87.2703L196.626 75.6184V88.8133L143.802 103.767L65.4314 91.3369V77.0605Z" stroke="#054D94" stroke-width="2" stroke-miterlimit="10"/>
<path d="M134.498 38.0093C135.811 58.1982 139.042 77.4353 143.052 88.02V117.366" stroke="#054D94" stroke-miterlimit="10"/>
<path d="M194.044 160.729L194.982 89.6929" stroke="#054D94" stroke-width="1.5" stroke-miterlimit="10"/>
<path d="M118.594 99.8135V134.974" stroke="#054D94" stroke-width="1.4701" stroke-miterlimit="10"/>
<path d="M67.4365 91.6541V165.863" stroke="#054D94" stroke-width="1.5" stroke-miterlimit="10"/>
<path d="M64.9265 76.9163C87.2563 70.3982 116.121 52.6031 134.368 37C151.765 51.536 172.666 64.1108 196.439 75.0704C196.583 75.1281 197.001 75.33 197.073 75.3589" stroke="#054D94" stroke-width="2" stroke-miterlimit="10"/>
<path d="M71.6199 137.973L130.575 152.697L152.861 143.28L153.02 149.438L130.906 159.921L71.6631 144.578L71.6199 137.973Z" stroke="#054D94" stroke-miterlimit="10"/>
<path d="M70.6821 137.757L96.6759 130.647L152.991 142.891" stroke="#054D94" stroke-miterlimit="10"/>
<path d="M126.478 188.618V159.777" stroke="#054D94" stroke-miterlimit="10"/>
<path d="M149.558 177.082V151.125" stroke="#054D94" stroke-miterlimit="10"/>
<path d="M77.4331 174.198V146.799" stroke="#054D94" stroke-miterlimit="10"/>
<path d="M94.7429 165.545V151.125" stroke="#054D94" stroke-miterlimit="10"/>
<path d="M147.611 77.0973C147.804 77.0498 148.041 77.0134 148.317 76.9675C148.496 76.9454 148.65 76.9073 148.766 76.8788C149.075 76.8026 149.17 76.6034 149.088 76.2717C149.027 76.0228 148.88 75.927 148.648 75.9841C148.61 75.9936 148.532 76.0126 148.441 76.0572C148.349 76.1017 148.272 76.1207 148.214 76.135C148.079 76.1683 147.904 76.1235 147.802 75.7087L147.296 73.6559C147.25 73.4693 147.252 73.3146 147.29 73.2174C147.327 73.1202 147.433 73.0502 147.588 73.0121C147.897 72.936 147.986 73.1338 148.012 73.2375C148.022 73.2789 148.043 73.3619 148.049 73.4703C148.05 73.558 148.071 73.641 148.086 73.7032C148.178 74.0764 148.359 74.2297 148.668 74.1536C148.803 74.1203 148.89 74.055 148.961 73.9275C149.018 73.8255 149.02 73.6709 148.98 73.505C148.974 73.4843 148.944 73.3598 148.878 73.178C148.818 73.0169 148.793 72.9132 148.772 72.8302C148.752 72.7473 148.726 72.6436 148.71 72.4937C148.698 72.3645 148.673 72.2609 148.652 72.1779C148.611 72.012 148.514 71.9481 148.34 71.991C148.243 72.0148 148.108 72.0481 147.959 72.1069C147.641 72.2293 147.124 72.3785 146.487 72.5355C145.849 72.6926 145.342 72.7956 144.965 72.8445C144.81 72.8826 144.67 72.8952 144.573 72.919C144.419 72.957 144.362 73.059 144.403 73.2249C144.418 73.2871 144.444 73.3908 144.489 73.4897C144.554 73.6716 144.58 73.7752 144.595 73.8374C144.62 73.9411 144.651 74.0655 144.662 74.1947C144.689 74.3861 144.715 74.4898 144.73 74.552C144.771 74.7179 144.84 74.8328 144.943 74.9174C145.041 74.9813 145.167 74.9942 145.302 74.9609C145.611 74.8848 145.7 74.6648 145.603 74.2709C145.593 74.2294 145.578 74.1672 145.533 74.0683C145.493 73.9901 145.453 73.9119 145.443 73.8704C145.407 73.7253 145.424 73.5451 145.753 73.4642C145.927 73.4214 146.165 73.4727 146.272 73.9082L146.778 75.961C146.88 76.3757 146.746 76.4967 146.611 76.53C146.553 76.5443 146.476 76.5633 146.374 76.5664C146.272 76.5694 146.214 76.5837 146.156 76.598C145.925 76.6551 145.839 76.8081 145.911 77.0984C145.988 77.4094 146.159 77.5212 146.468 77.4451C146.603 77.4118 146.757 77.3737 146.907 77.3149C147.186 77.202 147.418 77.1449 147.611 77.0973Z" fill="#054D94"/>
<path d="M151.423 75.5203C151.191 75.5774 150.992 75.5165 150.83 75.3585C150.668 75.2004 150.544 74.9451 150.462 74.6134C150.38 74.2816 150.371 73.9977 150.441 73.7826C150.506 73.5467 150.654 73.4002 150.886 73.343C151.35 73.2288 151.674 73.545 151.852 74.2707C152.007 74.9805 151.867 75.4108 151.423 75.5203ZM150.678 72.5806C150.156 72.7091 149.791 72.9749 149.578 73.3573C149.37 73.7605 149.348 74.25 149.491 74.8306C149.634 75.4112 149.901 75.8293 150.253 76.0944C150.62 76.3341 151.066 76.4 151.607 76.2668C152.109 76.143 152.474 75.8772 152.682 75.474C152.89 75.0709 152.913 74.5814 152.764 73.9801C152.626 73.4202 152.359 73.0021 151.993 72.7625C151.646 72.518 151.199 72.4521 150.678 72.5806Z" fill="#054D94"/>
<path d="M156.986 71.9062C157.179 71.8586 157.33 71.8875 157.423 72.0184C157.512 72.1285 157.602 72.3264 157.683 72.6581L157.867 73.4046C157.929 73.6534 157.925 73.7204 157.93 73.7411C157.926 73.8081 157.859 73.8686 157.767 73.9131C157.695 73.9529 157.59 74.0229 157.651 74.2718C157.682 74.3962 157.741 74.4696 157.819 74.5383C157.898 74.6069 157.98 74.6086 158.057 74.5896C158.115 74.5753 158.192 74.5563 158.322 74.5022C158.453 74.4482 158.588 74.4149 158.742 74.3768C158.858 74.3482 158.955 74.3245 159.037 74.3262L159.197 74.3088C159.356 74.2915 159.376 74.2867 159.395 74.282C159.492 74.2582 159.559 74.1977 159.596 74.1004C159.634 74.0032 159.647 73.89 159.611 73.7449C159.545 73.4753 159.418 73.4624 159.303 73.491C159.264 73.5005 159.245 73.5052 159.23 73.5307C159.178 73.5657 159.144 73.596 159.105 73.6055C158.912 73.6531 158.83 73.3213 158.805 73.2177L158.534 72.1187C158.427 71.6832 158.273 71.3912 158.106 71.2124C157.841 70.9697 157.521 70.9167 157.115 71.0166C156.922 71.0642 156.758 71.1485 156.619 71.2488C156.485 71.3698 156.322 71.5418 156.161 71.8015L156.075 71.8668L156.021 71.8141C155.721 71.5139 155.429 71.4099 155.101 71.4908C154.715 71.586 154.399 71.8838 154.192 72.3746L154.131 72.5436L154.008 72.0459C153.978 71.9215 153.934 71.9103 153.857 71.9293C153.799 71.9436 153.741 71.9579 153.63 72.0072C153.519 72.0565 153.442 72.0755 153.384 72.0898C153.326 72.1041 153.249 72.1231 153.166 72.1214C153.007 72.1387 152.963 72.1275 152.944 72.1323C152.847 72.1561 152.78 72.2166 152.718 72.2978C152.681 72.395 152.668 72.5082 152.698 72.6326C152.77 72.9229 152.915 72.9311 153.031 72.9025C153.051 72.8978 153.07 72.893 153.123 72.858C153.195 72.8182 153.214 72.8135 153.233 72.8087C153.388 72.7707 153.469 73.0147 153.525 73.2428L153.811 74.404C153.862 74.6114 153.904 74.8649 153.75 74.903C153.711 74.9125 153.673 74.9221 153.629 74.9108C153.624 74.8901 153.585 74.8996 153.546 74.9091C153.431 74.9377 153.306 75.0125 153.382 75.3235C153.413 75.4479 153.477 75.5421 153.55 75.59C153.629 75.6587 153.711 75.6604 153.827 75.6318C153.866 75.6223 153.976 75.573 154.145 75.5094C154.256 75.4602 154.353 75.4364 154.468 75.4078C154.546 75.3888 154.662 75.3602 154.821 75.3429C154.981 75.3255 155.077 75.3017 155.155 75.2827C155.29 75.2494 155.454 75.1651 155.367 74.8126C155.321 74.626 155.237 74.5366 155.077 74.5539C154.976 74.557 154.932 74.5458 154.883 74.5138C154.854 74.4771 154.824 74.4404 154.799 74.3367L154.584 73.4658C154.43 72.8437 154.566 72.4804 154.991 72.3757C155.165 72.3328 155.316 72.3617 155.404 72.4719C155.493 72.582 155.577 72.7591 155.649 73.0494L155.848 73.8581C155.854 73.8788 155.874 73.9618 155.905 74.0862C155.935 74.2106 155.898 74.3078 155.787 74.3571C155.715 74.3969 155.653 74.4781 155.709 74.7062C155.796 75.0587 155.961 75.0621 156.077 75.0335C156.135 75.0193 156.193 75.005 156.303 74.9557C156.414 74.9064 156.491 74.8874 156.549 74.8731C156.607 74.8588 156.709 74.8558 156.869 74.8384C156.951 74.8401 157.028 74.8211 157.067 74.8116C157.202 74.7783 157.366 74.694 157.274 74.3207C157.218 74.0926 157.111 74.075 157.048 74.0685C156.946 74.0716 156.892 74.0189 156.862 73.9822C156.833 73.9454 156.818 73.8832 156.761 73.6551L156.598 72.9916C156.43 72.395 156.561 72.0109 156.986 71.9062Z" fill="#054D94"/>
<path d="M165.696 71.9158C165.657 71.9253 165.638 71.93 165.624 71.9555C165.571 71.9906 165.538 72.0208 165.499 72.0303L165.269 71.8451C165.229 71.7669 165.209 71.6839 165.198 71.6425L164.927 70.5435C164.82 70.108 164.666 69.816 164.499 69.6372C164.234 69.3945 163.914 69.3415 163.508 69.4414C163.315 69.489 163.152 69.5733 163.012 69.6736C162.878 69.7946 162.716 69.9666 162.555 70.2263L162.507 70.2821L162.453 70.2294C162.159 69.95 161.867 69.846 161.538 69.9269C161.152 70.022 160.836 70.3198 160.629 70.8107L160.568 70.9796L160.441 70.4612C160.41 70.3368 160.366 70.3256 160.289 70.3446C160.231 70.3589 160.173 70.3732 160.062 70.4225C159.951 70.4718 159.874 70.4908 159.816 70.5051C159.758 70.5194 159.681 70.5384 159.599 70.5367C159.439 70.554 159.395 70.5428 159.376 70.5476C159.279 70.5714 159.212 70.6319 159.15 70.7131C159.113 70.8103 159.1 70.9235 159.13 71.0479C159.202 71.3382 159.347 71.3464 159.463 71.3178C159.483 71.3131 159.502 71.3083 159.555 71.2733C159.627 71.2335 159.646 71.2288 159.666 71.224C159.82 71.186 159.901 71.43 159.957 71.6581L160.243 72.8193C160.294 73.0267 160.336 73.2802 160.182 73.3183C160.143 73.3278 160.105 73.3374 160.061 73.3261C160.037 73.3102 159.998 73.3197 159.979 73.3244C159.863 73.353 159.738 73.4278 159.814 73.7388C159.845 73.8632 159.909 73.9574 159.982 74.0053C160.061 74.074 160.143 74.0757 160.259 74.0471C160.298 74.0376 160.409 73.9883 160.577 73.9247C160.688 73.8755 160.785 73.8517 160.901 73.8231C160.978 73.8041 161.094 73.7755 161.253 73.7582C161.413 73.7408 161.51 73.717 161.587 73.698C161.722 73.6647 161.886 73.5804 161.799 73.2279C161.753 73.0413 161.669 72.9519 161.51 72.9692C161.408 72.9723 161.364 72.9611 161.315 72.9291C161.286 72.8924 161.256 72.8557 161.231 72.752L161.016 71.8811C160.863 71.259 160.998 70.8957 161.423 70.791C161.597 70.7481 161.748 70.777 161.836 70.8872C161.925 70.9973 162.01 71.1744 162.081 71.4647L162.281 72.2734C162.286 72.2941 162.306 72.3771 162.337 72.5015C162.367 72.6259 162.33 72.7231 162.219 72.7724C162.147 72.8122 162.085 72.8934 162.141 73.1215C162.228 73.474 162.393 73.4774 162.509 73.4488C162.567 73.4346 162.625 73.4203 162.736 73.371C162.846 73.3217 162.924 73.3027 162.982 73.2884C163.04 73.2741 163.141 73.2711 163.301 73.2537C163.383 73.2554 163.46 73.2364 163.499 73.2269C163.634 73.1936 163.798 73.1093 163.706 72.736C163.65 72.5079 163.543 72.4903 163.48 72.4838C163.378 72.4869 163.324 72.4342 163.295 72.3975C163.27 72.3815 163.23 72.3033 163.174 72.0752L163.011 71.4117C162.857 70.7896 162.993 70.4262 163.399 70.3263L164.04 70.8501C164.055 70.9123 164.076 70.9953 164.096 71.0782L164.28 71.8247C164.342 72.0735 164.338 72.1405 164.343 72.1612C164.339 72.2282 164.272 72.2887 164.18 72.3332C164.108 72.373 164.002 72.443 164.064 72.6918C164.094 72.8162 164.154 72.8897 164.232 72.9583C164.31 73.027 164.393 73.0287 164.47 73.0097C164.528 72.9954 164.605 72.9763 164.735 72.9223C164.865 72.8682 165.001 72.8349 165.155 72.7969C165.271 72.7683 165.368 72.7445 165.45 72.7462L165.61 72.7289C165.769 72.7115 165.789 72.7068 165.808 72.702C165.904 72.6782 165.972 72.6177 166.009 72.5205C166.047 72.4233 166.06 72.3101 166.024 72.1649C165.933 71.8794 165.793 71.892 165.696 71.9158Z" fill="#054D94"/>
<path d="M166.134 67.2109C165.98 67.249 165.86 67.3445 165.789 67.472C165.704 67.6249 165.696 67.7589 165.737 67.9248C165.778 68.0906 165.866 68.2008 165.993 68.3014C166.14 68.3973 166.266 68.4102 166.421 68.3721C166.575 68.334 166.695 68.2385 166.766 68.111C166.851 67.9581 166.859 67.8241 166.818 67.6583C166.777 67.4924 166.684 67.3615 166.562 67.2816C166.439 67.2017 166.289 67.1728 166.134 67.2109ZM167.371 72.2289C167.526 72.1908 167.681 72.1528 167.802 72.1449C168 72.1181 168.14 72.1055 168.179 72.096C168.314 72.0627 168.497 71.9736 168.4 71.5796C168.333 71.3101 168.207 71.2972 168.111 71.321C168.091 71.3257 168.053 71.3352 168.019 71.3655C167.947 71.4053 167.928 71.41 167.908 71.4148C167.715 71.4624 167.633 71.1306 167.608 71.0269L167.081 68.8912C167.03 68.6838 166.934 68.7076 166.895 68.7171C166.895 68.7171 166.856 68.7266 166.707 68.7855C166.615 68.83 166.5 68.8585 166.422 68.8776C166.326 68.9014 166.185 68.9139 166.026 68.9313C165.924 68.9343 165.866 68.9486 165.808 68.9629C165.692 68.9914 165.625 69.052 165.583 69.1284C165.545 69.2257 165.527 69.3181 165.563 69.4633C165.634 69.7536 165.78 69.7617 165.896 69.7332C165.915 69.7284 165.954 69.7189 165.987 69.6886C166.073 69.6234 166.093 69.6186 166.112 69.6139C166.267 69.5758 166.347 69.8198 166.404 70.0479L166.695 71.2299C166.726 71.3543 166.807 71.686 166.634 71.7289C166.614 71.7336 166.595 71.7384 166.576 71.7432L166.392 71.7445C166.276 71.7731 166.151 71.8479 166.227 72.1589C166.258 72.2833 166.322 72.3775 166.395 72.4254C166.474 72.4941 166.576 72.491 166.672 72.4672C166.749 72.4482 166.865 72.4196 167.015 72.3608C167.183 72.2972 167.294 72.2479 167.371 72.2289Z" fill="#054D94"/>
<path d="M168.157 67.0206C168.002 67.0586 167.882 67.1542 167.797 67.3071C167.712 67.4601 167.695 67.6402 167.741 67.8269C167.823 68.1586 168.028 68.3279 168.338 68.3395C168.508 68.3636 168.567 68.437 168.583 68.4992C168.603 68.5822 168.61 68.7783 168.381 69.4286C168.34 69.5928 168.308 69.7107 168.338 69.8352C168.379 70.001 168.452 70.049 168.588 70.0157C168.665 69.9966 168.746 69.9106 168.807 69.7417C169.117 69.0054 169.206 68.3677 169.068 67.8078C169.001 67.5383 168.868 67.3292 168.687 67.1759C168.544 67.0131 168.35 66.973 168.157 67.0206Z" fill="#054D94"/>
<path d="M170.791 71.0563L170.908 71.1155C171.278 71.2882 171.662 71.3476 172.029 71.2572C172.396 71.1668 172.693 70.9615 172.869 70.6763C173.064 70.3863 173.108 70.0675 173.026 69.7357C172.975 69.5284 172.871 69.356 172.734 69.2139C172.626 69.1085 172.484 69.0334 172.334 69.0045C172.183 68.9756 171.955 68.9658 171.65 68.975C171.268 69.0032 171.021 68.9981 170.933 68.9756C170.827 68.958 170.743 68.8686 170.712 68.7441C170.672 68.5783 170.703 68.3726 171.07 68.2822C171.302 68.2251 171.545 68.2971 171.756 68.4872C171.912 68.6245 172.068 68.6741 172.203 68.6408C172.416 68.5885 172.467 68.4657 172.416 68.2584L172.37 68.0718C172.355 68.0096 172.345 67.9681 172.34 67.9474C172.319 67.8644 172.299 67.7815 172.298 67.6938C172.302 67.6268 172.286 67.5646 172.271 67.5024C172.25 67.4194 172.186 67.3253 171.935 67.3872C171.684 67.449 171.681 67.6037 171.687 67.7121L171.727 67.7903L171.629 67.7264C171.352 67.5969 171.056 67.5598 170.727 67.6407C170.399 67.7216 170.135 67.8967 169.973 68.1564C169.812 68.4161 169.782 68.7095 169.869 69.062C169.915 69.2486 169.994 69.405 170.107 69.5311C170.22 69.6572 170.343 69.7371 170.474 69.7707C170.624 69.7996 170.857 69.8302 171.182 69.8163L171.588 69.804C171.893 69.7949 172.059 69.886 172.105 70.0726C172.146 70.2385 172.106 70.4903 171.662 70.5998C171.469 70.6474 171.309 70.6647 171.197 70.6263C171.085 70.5879 170.938 70.492 170.777 70.334C170.693 70.2446 170.6 70.2014 170.552 70.1695C170.483 70.1423 170.406 70.1613 170.29 70.1899C170.02 70.2565 170.017 70.4111 170.043 70.5148C170.053 70.5563 170.068 70.6185 170.108 70.6967C170.128 70.7796 170.163 70.8371 170.178 70.8993C170.189 70.9408 170.209 71.0237 170.215 71.1321C170.241 71.2358 170.237 71.3028 170.247 71.3442C170.278 71.4687 170.347 71.5836 170.617 71.5169C170.811 71.4693 170.867 71.3674 170.816 71.16L170.791 71.0563Z" fill="#054D94"/>
<path d="M155.211 77.7543C155.462 77.6925 155.862 77.5718 155.77 77.1986C155.699 76.9083 155.432 76.9079 155.201 76.965C155.104 76.9888 154.949 77.0269 154.844 77.0969C154.791 77.1319 154.752 77.1415 154.768 77.2037C154.778 77.2451 154.819 77.411 154.829 77.4525C154.902 77.8305 154.882 77.8352 155.211 77.7543ZM155.204 77.976C154.953 78.0378 154.958 78.0586 155.019 78.3074L155.086 78.577C155.106 78.6599 155.128 78.8305 155.22 78.8737C155.313 78.9169 155.545 78.8598 155.641 78.836C155.777 78.8027 155.945 78.7391 156.041 78.6276C156.136 78.5161 156.158 78.3567 156.117 78.1908C156.025 77.8176 155.682 77.8363 155.392 77.9076L155.199 77.9552L155.204 77.976ZM154.599 77.685C154.574 77.5813 154.523 77.374 154.478 77.275C154.438 77.1969 154.37 77.1697 154.293 77.1887C154.235 77.203 154.201 77.2332 154.143 77.2475C154.085 77.2618 154.036 77.2298 154.021 77.1676C154.006 77.1054 154.029 77.0337 154.126 77.0099C154.261 76.9766 154.348 76.999 154.58 76.9419C154.831 76.88 154.995 76.7957 155.207 76.7434C155.362 76.7053 155.56 76.6785 155.697 76.7329C155.877 76.7985 155.995 76.9453 156.041 77.1319C156.102 77.3808 155.988 77.5847 155.791 77.6993C156.082 77.7156 156.321 77.8546 156.398 78.1656C156.449 78.373 156.399 78.5834 156.275 78.7459C156.151 78.9084 155.944 78.9815 155.75 79.0291C155.519 79.0862 155.354 79.0828 155.103 79.1446C154.91 79.1922 154.765 79.2718 154.669 79.2956C154.591 79.3146 154.562 79.2779 154.522 79.1997C154.507 79.1375 154.535 79.0865 154.593 79.0722C154.651 79.058 154.695 79.0692 154.753 79.0549C154.83 79.0359 154.878 78.9801 154.877 78.8924C154.87 78.784 154.819 78.5766 154.794 78.4729L154.599 77.685Z" fill="#054D94"/>
<path d="M156.743 77.4868C156.692 77.2795 156.638 77.2268 156.58 77.2411C156.522 77.2553 156.489 77.2856 156.45 77.2951C156.392 77.3094 156.343 77.2774 156.328 77.2152C156.307 77.1323 156.374 77.0718 156.452 77.0527C156.51 77.0385 156.578 77.0657 156.636 77.0514C156.694 77.0371 156.741 76.9814 156.799 76.9671C156.877 76.9481 156.911 77.0055 156.932 77.0884C156.998 77.358 156.999 77.4457 157.056 77.6738L157.091 77.8189C157.122 77.9434 157.173 78.1507 157.237 78.2449C157.317 78.4012 157.487 78.4254 157.641 78.3873C157.834 78.3397 157.968 78.2187 157.975 77.9971C157.978 77.8424 157.941 77.6095 157.9 77.4437L157.844 77.2156C157.798 77.029 157.72 76.9603 157.662 76.9746C157.604 76.9888 157.57 77.0191 157.532 77.0286C157.474 77.0429 157.425 77.0109 157.409 76.9487C157.389 76.8658 157.437 76.81 157.514 76.791C157.591 76.772 157.659 76.7992 157.717 76.7849C157.775 76.7706 157.823 76.7149 157.881 76.7006C157.939 76.6863 157.988 76.7183 158.003 76.7805C158.044 76.9463 158.08 77.0915 158.126 77.2781L158.279 77.9002C158.335 78.1283 158.384 78.1602 158.442 78.146C158.5 78.1317 158.534 78.1014 158.572 78.0919C158.63 78.0776 158.679 78.1096 158.694 78.1718C158.715 78.2547 158.667 78.3105 158.59 78.3295C158.532 78.3438 158.464 78.3166 158.406 78.3309C158.348 78.3451 158.3 78.4009 158.242 78.4152C158.184 78.4295 158.15 78.372 158.114 78.2269C158.044 78.442 157.885 78.5471 157.673 78.5994C157.538 78.6327 157.373 78.6293 157.232 78.5542C157.071 78.4838 156.991 78.3275 156.95 78.1616L156.782 77.4773L156.743 77.4868Z" fill="#054D94"/>
<path d="M158.81 76.9775C158.754 76.7494 158.724 76.7127 158.647 76.7318C158.589 76.746 158.555 76.7763 158.478 76.7953C158.42 76.8096 158.371 76.7777 158.356 76.7154C158.335 76.6325 158.383 76.5768 158.46 76.5577C158.518 76.5434 158.567 76.5754 158.644 76.5564C158.722 76.5373 158.75 76.4863 158.808 76.4721C158.885 76.453 158.92 76.5105 158.936 76.6604C158.992 76.4707 159.126 76.3497 159.3 76.3069C159.551 76.245 159.843 76.349 159.915 76.6393C159.956 76.8052 159.919 76.9901 159.745 77.0329C159.668 77.052 159.556 77.0136 159.531 76.9099C159.515 76.8477 159.553 76.7505 159.611 76.7362C159.63 76.7314 159.63 76.7314 159.649 76.7267C159.664 76.7012 159.659 76.6804 159.648 76.639C159.612 76.4938 159.438 76.4489 159.322 76.4775C159.09 76.5346 158.971 76.7178 159.089 77.1947L159.196 77.6302C159.257 77.879 159.301 77.8902 159.359 77.876C159.417 77.8617 159.451 77.8314 159.489 77.8219C159.547 77.8076 159.596 77.8396 159.611 77.9018C159.632 77.9847 159.565 78.0452 159.507 78.0595C159.41 78.0833 159.303 78.0656 159.187 78.0942C159.052 78.1275 159.005 78.1832 158.869 78.2166C158.792 78.2356 158.724 78.2084 158.703 78.1255C158.688 78.0633 158.717 78.0123 158.774 77.998C158.813 77.9885 158.876 77.9949 158.915 77.9854C158.973 77.9711 158.982 77.9249 158.926 77.6968L158.752 76.9918L158.81 76.9775Z" fill="#054D94"/>
<path d="M161.171 76.4177C161.12 76.2104 160.916 76.1288 160.723 76.1764C160.53 76.224 160.411 76.4072 160.457 76.5938C160.508 76.8012 160.693 76.8875 160.886 76.8399C161.085 76.8131 161.228 76.6458 161.171 76.4177ZM160.698 77.6561C160.612 77.7214 160.574 77.8186 160.605 77.943C160.636 78.0674 160.753 78.1265 160.859 78.1442C160.966 78.1619 161.101 78.1286 161.198 78.1048C161.372 78.062 161.729 77.9301 161.662 77.6605C161.596 77.3909 161.262 77.4511 161.069 77.4987C160.953 77.5273 160.804 77.5861 160.698 77.6561ZM160.916 77.2944C161.09 77.2516 161.264 77.2087 161.434 77.2329C161.642 77.2475 161.857 77.3705 161.913 77.5986C162.016 78.0133 161.558 78.236 161.249 78.3121C160.94 78.3883 160.456 78.4196 160.349 77.9841C160.303 77.7975 160.383 77.6238 160.541 77.5188C160.391 77.4899 160.254 77.4355 160.214 77.2696C160.173 77.1037 160.258 76.9507 160.383 76.876C160.305 76.8073 160.26 76.7084 160.234 76.6047C160.152 76.2729 160.391 75.9942 160.681 75.9228C160.739 75.9085 160.797 75.8942 160.879 75.8959C160.828 75.6886 160.971 75.5213 161.145 75.4785C161.319 75.4357 161.518 75.4965 161.564 75.6831C161.59 75.7868 161.533 75.8888 161.436 75.9126C161.378 75.9269 161.305 75.8789 161.29 75.8167C161.279 75.7753 161.308 75.7243 161.322 75.6988C161.273 75.6668 161.229 75.6556 161.171 75.6699C161.056 75.6984 161.023 75.8164 161.054 75.9408C161.234 76.0064 161.352 76.1533 161.398 76.3399C161.485 76.6924 161.246 76.9711 160.957 77.0425C160.841 77.0711 160.715 77.0582 160.589 77.0452C160.569 77.05 160.525 77.0388 160.506 77.0435C160.448 77.0578 160.411 77.155 160.426 77.2172C160.467 77.3831 160.679 77.3308 160.795 77.3022L160.911 77.2737L160.916 77.2944Z" fill="#054D94"/>
<path d="M162.965 76.1298C162.879 75.865 162.693 75.691 162.422 75.7576C162.152 75.8242 162.029 76.0744 162.076 76.3487L162.965 76.1298ZM162.099 76.6071C162.162 76.9436 162.412 77.2118 162.76 77.1261C162.972 77.0738 163.101 76.932 163.103 76.6897C163.107 76.6227 163.106 76.535 163.183 76.516C163.241 76.5017 163.309 76.5289 163.33 76.6118C163.365 76.757 163.305 76.9259 163.248 77.0279C163.143 77.1856 162.965 77.2954 162.792 77.3382C162.309 77.4572 161.96 77.1251 161.843 76.6482C161.787 76.4201 161.788 76.1777 161.858 75.9626C161.947 75.7426 162.134 75.5866 162.347 75.5342C162.752 75.4343 163.119 75.674 163.231 76.1301C163.272 76.296 163.277 76.3168 163.123 76.3548L162.099 76.6071Z" fill="#054D94"/>
<path d="M163.716 75.7688C163.66 75.5407 163.63 75.504 163.553 75.523C163.495 75.5373 163.461 75.5676 163.384 75.5866C163.326 75.6009 163.277 75.5689 163.262 75.5067C163.242 75.4238 163.289 75.368 163.367 75.349C163.425 75.3347 163.473 75.3667 163.551 75.3476C163.628 75.3286 163.656 75.2776 163.714 75.2633C163.792 75.2443 163.826 75.3017 163.843 75.4516C163.898 75.262 164.032 75.1409 164.206 75.0981C164.457 75.0362 164.749 75.1403 164.821 75.4306C164.862 75.5964 164.825 75.7814 164.652 75.8242C164.574 75.8432 164.462 75.8048 164.437 75.7011C164.422 75.6389 164.459 75.5417 164.517 75.5274C164.536 75.5227 164.536 75.5227 164.556 75.5179C164.57 75.4924 164.565 75.4717 164.555 75.4302C164.519 75.2851 164.344 75.2402 164.228 75.2688C163.996 75.3259 163.877 75.5091 163.995 75.986L164.102 76.4214C164.164 76.6703 164.207 76.6815 164.265 76.6672C164.323 76.6529 164.357 76.6227 164.395 76.6132C164.453 76.5989 164.502 76.6308 164.518 76.693C164.538 76.776 164.49 76.8317 164.413 76.8508C164.316 76.8746 164.21 76.8569 164.094 76.8854C163.959 76.9188 163.911 76.9745 163.776 77.0078C163.698 77.0269 163.63 76.9997 163.61 76.9167C163.594 76.8545 163.623 76.8035 163.681 76.7892C163.719 76.7797 163.782 76.7862 163.821 76.7767C163.879 76.7624 163.888 76.7162 163.832 76.4881L163.658 75.7831L163.716 75.7688Z" fill="#054D94"/>
<path d="M167.174 74.5868C167.148 74.4831 167.097 74.2758 167.052 74.1769C167.013 74.0987 166.945 74.0715 166.867 74.0905C166.809 74.1048 166.776 74.135 166.718 74.1493C166.66 74.1636 166.611 74.1316 166.596 74.0694C166.575 73.9865 166.623 73.9308 166.681 73.9165C166.816 73.8832 166.942 73.8961 167.097 73.858C167.251 73.8199 167.338 73.7547 167.492 73.7166C167.569 73.6976 167.638 73.7248 167.658 73.8077C167.673 73.8699 167.645 73.9209 167.587 73.9352C167.529 73.9494 167.485 73.9382 167.427 73.9525C167.35 73.9715 167.302 74.0273 167.304 74.115C167.31 74.2234 167.361 74.4308 167.387 74.5345L167.438 74.7418C167.499 74.9906 167.636 75.4628 167.61 75.6892C167.551 76.0335 167.297 76.2501 166.988 76.3262C166.602 76.4214 166.184 76.3045 166.071 75.8483C166.005 75.5787 166.142 75.303 166.393 75.2412C166.547 75.2031 166.727 75.2687 166.768 75.4346C166.794 75.5383 166.742 75.661 166.646 75.6848C166.568 75.7038 166.476 75.6606 166.455 75.5777C166.445 75.5362 166.459 75.5107 166.474 75.4852C166.449 75.4693 166.449 75.4693 166.41 75.4788C166.314 75.5026 166.278 75.6875 166.298 75.7704C166.37 76.0607 166.642 76.1695 166.893 76.1076C167.067 76.0648 167.245 75.955 167.301 75.7653C167.351 75.5549 167.3 75.3476 167.249 75.1402L167.116 74.6011L167.174 74.5868Z" fill="#054D94"/>
<path d="M168.922 75.6079C169.308 75.5128 169.337 75.1317 169.25 74.7792C169.214 74.6341 169.13 74.457 169.017 74.3308C168.903 74.2047 168.739 74.2013 168.604 74.2346C168.43 74.2775 168.31 74.373 168.273 74.5579C168.227 74.7014 168.254 74.8927 168.289 75.0379C168.347 75.3537 168.555 75.6984 168.922 75.6079ZM168.533 74.032C168.746 73.9797 168.973 73.9896 169.155 74.1429C169.336 74.2962 169.45 74.51 169.506 74.7381C169.629 75.2357 169.48 75.7123 168.978 75.836C168.495 75.955 168.142 75.6022 168.024 75.1253C167.901 74.6276 168.031 74.1558 168.533 74.032Z" fill="#054D94"/>
<path d="M169.958 73.3293C169.984 73.4329 169.927 73.5349 169.83 73.5587C169.734 73.5825 169.636 73.5186 169.61 73.4149C169.585 73.3112 169.642 73.2093 169.738 73.1855C169.835 73.1617 169.932 73.2256 169.958 73.3293ZM169.936 74.2365C169.88 74.0084 169.85 73.9717 169.773 73.9907C169.715 74.005 169.681 74.0353 169.643 74.0448C169.585 74.0591 169.536 74.0271 169.521 73.9649C169.5 73.882 169.548 73.8262 169.606 73.8119C169.683 73.7929 169.751 73.8201 169.809 73.8058C169.886 73.7868 169.915 73.7358 169.973 73.7215C170.05 73.7025 170.07 73.7854 170.086 73.8476L170.387 75.071C170.408 75.154 170.442 75.2114 170.5 75.1971C170.539 75.1876 170.573 75.1574 170.611 75.1479C170.669 75.1336 170.718 75.1655 170.733 75.2277C170.754 75.3107 170.706 75.3664 170.629 75.3855C170.532 75.4093 170.425 75.3916 170.31 75.4201C170.174 75.4535 170.107 75.514 169.991 75.5425C169.933 75.5568 169.879 75.5041 169.864 75.4419C169.849 75.3797 169.877 75.3287 169.935 75.3144C169.974 75.3049 170.037 75.3114 170.075 75.3018C170.153 75.2828 170.157 75.2158 170.106 75.0085L169.916 74.2413L169.936 74.2365Z" fill="#054D94"/>
<path d="M170.902 73.9985C170.845 73.7704 170.816 73.7337 170.739 73.7528C170.681 73.767 170.647 73.7973 170.608 73.8068C170.55 73.8211 170.502 73.7891 170.486 73.7269C170.471 73.6647 170.514 73.5882 170.571 73.574C170.629 73.5597 170.659 73.5964 170.756 73.5726C170.852 73.5488 170.861 73.5026 170.938 73.4835C170.996 73.4693 171.012 73.5315 171.048 73.6766C171.123 73.4822 171.315 73.3469 171.488 73.3041C171.643 73.266 171.832 73.2854 171.979 73.3812C172.145 73.4723 172.185 73.6382 172.231 73.8248L172.38 74.4261C172.431 74.6335 172.465 74.691 172.543 74.6719C172.601 74.6576 172.634 74.6274 172.673 74.6179C172.731 74.6036 172.78 74.6355 172.795 74.6978C172.815 74.7807 172.768 74.8364 172.69 74.8555C172.594 74.8793 172.506 74.8568 172.371 74.8901C172.217 74.9282 172.169 74.984 172.053 75.0125C171.976 75.0316 171.908 75.0044 171.887 74.9214C171.872 74.8592 171.9 74.8082 171.958 74.794C171.997 74.7844 172.06 74.7909 172.098 74.7814C172.176 74.7623 172.18 74.6954 172.129 74.488L172.011 74.0111C171.96 73.8037 171.945 73.7415 171.861 73.6521C171.772 73.542 171.603 73.5179 171.487 73.5464C171.351 73.5797 171.212 73.68 171.166 73.8235C171.142 73.8952 171.124 73.9876 171.201 74.2987L171.298 74.6927C171.349 74.9 171.384 74.9575 171.461 74.9384C171.519 74.9241 171.553 74.8939 171.591 74.8844C171.649 74.8701 171.698 74.902 171.713 74.9643C171.734 75.0472 171.686 75.1029 171.609 75.122C171.512 75.1458 171.425 75.1233 171.289 75.1567C171.135 75.1947 171.087 75.2505 170.971 75.279C170.894 75.2981 170.826 75.2709 170.805 75.1879C170.79 75.1257 170.819 75.0747 170.876 75.0605C170.915 75.0509 170.978 75.0574 171.017 75.0479C171.094 75.0288 171.098 74.9619 171.047 74.7545L170.863 74.008L170.902 73.9985Z" fill="#054D94"/>
<path d="M172.783 73.403C172.757 73.2993 172.733 73.2833 172.636 73.3071C172.521 73.3357 172.457 73.3292 172.432 73.2255C172.417 73.1633 172.459 73.0869 172.517 73.0726L172.633 73.044C172.691 73.0298 172.686 73.009 172.665 72.9261L172.599 72.6565C172.578 72.5736 172.577 72.4859 172.674 72.4621C172.771 72.4383 172.81 72.5165 172.831 72.5994L172.913 72.9312C172.923 72.9726 172.928 72.9934 172.986 72.9791L173.295 72.903C173.411 72.8744 173.46 72.9064 173.48 72.9893C173.495 73.0515 173.491 73.1185 173.337 73.1565L173.066 73.2232C172.989 73.2422 172.989 73.2422 173.005 73.3044L173.199 74.0924C173.27 74.3827 173.354 74.4721 173.528 74.4292C173.721 74.3816 173.699 74.211 173.658 74.0451L173.633 73.9414C173.597 73.7963 173.62 73.7246 173.698 73.7055C173.775 73.6865 173.834 73.7599 173.854 73.8429C173.946 74.2161 173.97 74.5621 173.545 74.6668C173.41 74.7001 173.24 74.676 173.127 74.5499C173.063 74.4557 173.028 74.3983 172.962 74.1287L172.783 73.403Z" fill="#054D94"/>
</svg>
