<svg width="19" height="18" viewBox="0 0 19 18" fill="none" xmlns="http://www.w3.org/2000/svg">
<path d="M9.47461 0C7.69458 0 5.95452 0.527841 4.47448 1.51677C2.99444 2.50571 1.84089 3.91131 1.1597 5.55585C0.478509 7.20038 0.300279 9.00998 0.647546 10.7558C0.994813 12.5016 1.85198 14.1053 3.11065 15.364C4.36932 16.6226 5.97297 17.4798 7.7188 17.8271C9.46463 18.1743 11.2742 17.9961 12.9188 17.3149C14.5633 16.6337 15.9689 15.4802 16.9578 14.0001C17.9468 12.5201 18.4746 10.78 18.4746 9C18.4721 6.61382 17.5231 4.3261 15.8358 2.63882C14.1485 0.95154 11.8608 0.00251984 9.47461 0ZM9.47461 16.6154C7.96843 16.6154 6.49607 16.1687 5.24373 15.332C3.99139 14.4952 3.01531 13.3058 2.43891 11.9143C1.86252 10.5228 1.71171 8.99155 2.00556 7.51431C2.2994 6.03707 3.02469 4.68014 4.08972 3.61511C5.15475 2.55008 6.51168 1.82478 7.98892 1.53094C9.46616 1.2371 10.9974 1.38791 12.3889 1.9643C13.7804 2.54069 14.9698 3.51677 15.8066 4.76912C16.6434 6.02146 17.09 7.49382 17.09 9C17.0877 11.019 16.2846 12.9547 14.857 14.3824C13.4293 15.81 11.4936 16.6131 9.47461 16.6154ZM5.32077 7.26923C5.32077 7.06384 5.38167 6.86307 5.49578 6.69229C5.60989 6.52152 5.77207 6.38841 5.96183 6.30982C6.15158 6.23122 6.36038 6.21065 6.56182 6.25072C6.76326 6.29079 6.9483 6.38969 7.09353 6.53493C7.23876 6.68016 7.33767 6.86519 7.37774 7.06664C7.4178 7.26808 7.39724 7.47688 7.31864 7.66663C7.24004 7.85639 7.10694 8.01857 6.93617 8.13268C6.76539 8.24679 6.56462 8.30769 6.35923 8.30769C6.08381 8.30769 5.81967 8.19828 5.62492 8.00353C5.43017 7.80878 5.32077 7.54465 5.32077 7.26923ZM13.6285 7.26923C13.6285 7.47462 13.5676 7.67539 13.4534 7.84617C13.3393 8.01694 13.1772 8.15004 12.9874 8.22864C12.7976 8.30724 12.5888 8.32781 12.3874 8.28774C12.186 8.24767 12.0009 8.14876 11.8557 8.00353C11.7105 7.8583 11.6116 7.67326 11.5715 7.47182C11.5314 7.27038 11.552 7.06158 11.6306 6.87183C11.7092 6.68207 11.8423 6.51989 12.0131 6.40578C12.1838 6.29167 12.3846 6.23077 12.59 6.23077C12.8654 6.23077 13.1295 6.34018 13.3243 6.53493C13.519 6.72968 13.6285 6.99381 13.6285 7.26923ZM13.5359 11.4231C12.6454 12.9626 11.1647 13.8462 9.47461 13.8462C7.78452 13.8462 6.30471 12.9635 5.41423 11.4231C5.36414 11.3443 5.3305 11.2562 5.31535 11.164C5.30019 11.0719 5.30383 10.9776 5.32605 10.887C5.34826 10.7963 5.38859 10.711 5.44461 10.6363C5.50063 10.5616 5.57118 10.499 5.65202 10.4523C5.73285 10.4056 5.82231 10.3757 5.915 10.3644C6.00769 10.3532 6.1017 10.3608 6.19137 10.3868C6.28104 10.4128 6.36453 10.4567 6.4368 10.5158C6.50907 10.5749 6.56864 10.648 6.61192 10.7308C7.25836 11.848 8.27432 12.4615 9.47461 12.4615C10.6749 12.4615 11.6909 11.8471 12.3364 10.7308C12.4282 10.5717 12.5795 10.4556 12.7569 10.4081C12.9342 10.3605 13.1232 10.3854 13.2823 10.4772C13.4414 10.569 13.5574 10.7202 13.605 10.8976C13.6525 11.075 13.6277 11.264 13.5359 11.4231Z" fill="#1C1C1B"/>
</svg>
