<svg width="20" height="23" viewBox="0 0 20 23" fill="none" xmlns="http://www.w3.org/2000/svg">
<path d="M9.94155 22.486C10.8453 22.486 11.9299 22.5831 13.1952 22.6801C14.0086 22.7772 14.7316 22.7772 15.2738 22.7772C16.7199 22.7772 17.3525 22.0008 17.3525 20.448C17.3525 19.2834 16.8103 18.7011 15.7257 18.7011C15.545 18.7011 15.1835 18.7011 14.7316 18.7981C14.2797 18.8952 13.9182 18.8952 13.647 18.8952C13.0144 18.8952 12.2914 18.507 12.2914 16.566V6.95807C12.2914 6.08462 12.4721 5.40527 12.7433 5.01707C13.0144 4.62888 13.5567 4.43478 14.2797 4.43478C15.7257 4.43478 15.9065 5.40527 15.9065 5.89052C15.9065 6.08462 15.9065 6.47282 15.8161 6.95807C15.7257 7.34627 15.7257 7.73446 15.7257 8.02561C15.7257 9.77251 16.3584 10.646 17.8044 10.646C18.4371 10.646 18.889 10.4519 19.3408 9.96661C19.7024 9.57841 19.8831 8.89906 19.8831 8.12266C19.8831 8.02561 19.8831 7.44332 19.7927 6.56987C19.7024 5.79347 19.7024 5.30822 19.7024 4.92002C19.7024 4.53183 19.7024 4.04658 19.7927 3.36723C19.8831 2.78493 19.8831 2.29968 19.8831 1.91148C19.8831 1.13509 19.5216 0.746887 18.7082 0.746887C18.2563 0.746887 17.6237 0.746887 16.9006 0.843937C15.3642 1.03804 12.924 1.13509 9.94155 1.13509C6.95909 1.13509 4.60927 1.03804 2.89209 0.843937C2.16907 0.843937 1.53642 0.746887 1.08453 0.746887C0.361511 0.746887 0 1.13509 0 1.91148C0 2.20263 0 2.68788 0.0903778 3.17313C0.180756 4.04658 0.180756 4.53183 0.180756 4.82297C0.180756 5.30822 0.180756 5.89052 0.0903778 6.47282C0 7.34627 0 7.83151 0 8.12266C0 8.89906 0.180756 9.48136 0.542267 9.96661C0.903778 10.3548 1.44604 10.5489 2.07869 10.5489C3.52473 10.5489 4.15738 9.67546 4.15738 7.83151C4.15738 7.63742 4.15738 7.34627 4.067 6.86102C3.97662 6.47282 3.88624 6.08462 3.88624 5.89052C3.88624 5.21117 4.15738 4.43478 5.6938 4.43478C6.5072 4.43478 7.50135 4.92002 7.50135 6.95807V16.566C7.50135 18.507 6.77833 18.8952 6.14569 18.8952C5.87455 18.8952 5.51304 18.8952 5.06115 18.7981C4.60927 18.7011 4.33813 18.7011 4.067 18.7011C2.98247 18.7011 2.4402 19.2834 2.4402 20.6421C2.4402 22.0978 3.07284 22.7772 4.51889 22.7772C5.15153 22.7772 5.87455 22.7772 6.59758 22.6801C7.95324 22.486 9.03778 22.486 9.94155 22.486Z" fill="#054D94"/>
</svg>
