<svg width="331" height="112" viewBox="0 0 331 112" fill="none" xmlns="http://www.w3.org/2000/svg">
<path d="M25.7036 60.3594C27.9972 60.3594 30.7496 60.6057 33.9607 60.852C36.0249 61.0983 37.8598 61.0983 39.236 61.0983C42.9058 61.0983 44.5114 59.1279 44.5114 55.1872C44.5114 52.2316 43.1352 50.7539 40.3828 50.7539C39.9241 50.7539 39.0066 50.7539 37.8598 51.0002C36.713 51.2465 35.7956 51.2465 35.1075 51.2465C33.5019 51.2465 31.667 50.2613 31.667 45.3354V20.9521C31.667 18.7355 32.1258 17.0114 32.8138 16.0262C33.5019 15.041 34.8781 14.5484 36.713 14.5484C40.3828 14.5484 40.8416 17.0114 40.8416 18.2429C40.8416 18.7355 40.8416 19.7206 40.6122 20.9521C40.3828 21.9373 40.3828 22.9225 40.3828 23.6614C40.3828 28.0947 41.9884 30.3113 45.6582 30.3113C47.2637 30.3113 48.4105 29.8188 49.5574 28.5873C50.4748 27.6021 50.9335 25.878 50.9335 23.9077C50.9335 23.6614 50.9335 22.1836 50.7042 19.9669C50.4748 17.9966 50.4748 16.7651 50.4748 15.7799C50.4748 14.7947 50.4748 13.5633 50.7042 11.8392C50.9335 10.3614 50.9335 9.12994 50.9335 8.14475C50.9335 6.17439 50.0161 5.18921 47.9518 5.18921C46.805 5.18921 45.1995 5.18921 43.3646 5.4355C39.4654 5.9281 33.2726 6.17439 25.7036 6.17439C18.1346 6.17439 12.1712 5.9281 7.81326 5.4355C5.97835 5.4355 4.37281 5.18921 3.22599 5.18921C1.39109 5.18921 0.473633 6.17439 0.473633 8.14475C0.473633 8.88364 0.473633 10.1151 0.702996 11.3466C0.932359 13.5633 0.932359 14.7947 0.932359 15.5336C0.932359 16.7651 0.932359 18.2429 0.702996 19.7206C0.473633 21.9373 0.473633 23.1688 0.473633 23.9077C0.473633 25.878 0.932359 27.3558 1.84981 28.5873C2.76726 29.5725 4.14344 30.065 5.74899 30.065C9.4188 30.065 11.0243 27.8484 11.0243 23.1688C11.0243 22.6762 11.0243 21.9373 10.795 20.7058C10.5656 19.7206 10.3363 18.7355 10.3363 18.2429C10.3363 16.5188 11.0243 14.5484 14.9235 14.5484C16.9878 14.5484 19.5108 15.7799 19.5108 20.9521V45.3354C19.5108 50.2613 17.6759 51.2465 16.0703 51.2465C15.3822 51.2465 14.4648 51.2465 13.318 51.0002C12.1712 50.7539 11.4831 50.7539 10.795 50.7539C8.04262 50.7539 6.66644 52.2316 6.66644 55.6798C6.66644 59.3742 8.27198 61.0983 11.9418 61.0983C13.5473 61.0983 15.3822 61.0983 17.2171 60.852C20.6576 60.3594 23.41 60.3594 25.7036 60.3594Z" fill="#054D94"/>
<path d="M72.7223 53.2169C69.9699 53.2169 67.9057 51.9854 66.5295 49.7687C65.1533 47.5521 64.4652 44.3502 64.4652 40.4095C64.4652 36.4688 65.1533 33.2669 66.5295 31.0503C67.9057 28.5873 69.9699 27.3558 72.7223 27.3558C78.227 27.3558 80.9794 31.7892 80.9794 40.4095C80.75 48.7836 77.9977 53.2169 72.7223 53.2169ZM72.4929 18.2429C66.3001 18.2429 61.4835 20.2133 58.0431 23.9077C54.6026 27.8484 52.9971 33.2669 52.9971 40.1632C52.9971 47.0595 54.832 52.478 58.0431 56.4187C61.4835 60.1131 66.3001 62.0835 72.7223 62.0835C78.6857 62.0835 83.5024 60.1131 86.9428 56.1724C90.3833 52.2317 91.9888 46.8132 91.9888 39.6706C91.9888 33.0206 90.1539 27.6021 86.7135 23.9077C83.5024 20.2133 78.6857 18.2429 72.4929 18.2429Z" fill="#054D94"/>
<path d="M144.973 28.0947C147.266 28.0947 148.872 28.8336 149.56 30.5577C150.248 32.0355 150.707 34.4984 150.707 38.4391V47.3058C150.707 50.2613 150.478 51.0002 150.478 51.2465C150.248 51.9854 149.331 52.478 148.184 52.7243C147.266 52.9706 145.89 53.4632 145.89 56.4187C145.89 57.8965 146.349 58.8817 147.037 59.8668C147.725 60.852 148.643 61.0983 149.56 61.0983C150.248 61.0983 151.166 61.0983 152.771 60.852C154.377 60.6057 155.982 60.6057 157.817 60.6057C159.193 60.6057 160.34 60.6057 161.258 60.852L163.093 61.0983C164.927 61.3446 165.157 61.3446 165.386 61.3446C166.533 61.3446 167.45 60.852 168.139 59.8668C168.827 58.8817 169.285 57.6502 169.285 55.9261C169.285 52.7243 167.909 52.2317 166.533 52.2317C166.074 52.2317 165.845 52.2317 165.616 52.478C164.927 52.7243 164.469 52.9706 164.01 52.9706C161.716 52.9706 161.716 49.0298 161.716 47.7984V34.7447C161.716 29.5725 160.799 25.8781 159.423 23.4151C157.129 19.967 153.689 18.4892 148.872 18.4892C146.578 18.4892 144.514 18.9818 142.679 19.7207C140.844 20.7059 138.551 22.1836 136.028 24.6466L134.881 25.1392L134.422 24.4003C131.899 20.2133 128.917 18.2429 125.018 18.2429C120.431 18.2429 116.073 20.7059 112.403 25.6318L111.256 27.3558V21.4448C111.256 19.967 110.798 19.7207 109.88 19.7207C109.192 19.7207 108.504 19.7207 107.128 19.967C105.752 20.2133 104.834 20.2133 104.146 20.2133C103.458 20.2133 102.541 20.2133 101.623 19.967C99.7883 19.7207 99.3296 19.4744 99.1002 19.4744C97.9534 19.4744 97.0359 19.967 96.1185 20.7059C95.4304 21.6911 94.9717 22.9225 94.9717 24.4003C94.9717 27.8484 96.5772 28.341 97.9534 28.341C98.1828 28.341 98.4121 28.341 99.1002 28.0947C100.018 27.8484 100.247 27.8484 100.476 27.8484C102.311 27.8484 102.541 30.804 102.541 33.5132V47.3058C102.541 49.7687 102.311 52.7243 100.476 52.7243C100.018 52.7243 99.5589 52.7243 99.1002 52.478C99.1002 52.2317 98.6415 52.2317 98.1828 52.2317C96.8066 52.2317 95.201 52.7243 95.201 56.4187C95.201 57.8965 95.6598 59.128 96.3479 59.8668C97.0359 60.852 97.9534 61.0983 99.3296 61.0983C99.7883 61.0983 101.164 60.852 103.229 60.6057C104.605 60.3594 105.752 60.3594 107.128 60.3594C108.045 60.3594 109.422 60.3594 111.256 60.6057C113.091 60.852 114.238 60.852 115.156 60.852C116.761 60.852 118.825 60.3594 118.825 56.1724C118.825 53.9558 118.137 52.7243 116.302 52.478C115.156 52.2317 114.697 51.9854 114.238 51.4928C114.009 51.0002 113.779 50.5076 113.779 49.2761V38.9317C113.779 31.5429 116.302 27.8484 121.348 27.8484C123.413 27.8484 125.018 28.5873 125.706 30.0651C126.394 31.5429 126.853 33.7595 126.853 37.2077V46.8132C126.853 47.0595 126.853 48.0447 126.853 49.5224C126.853 51.0002 126.165 51.9854 124.789 52.2317C123.871 52.478 122.954 53.2169 122.954 55.9261C122.954 60.1131 124.789 60.6057 126.165 60.6057C126.853 60.6057 127.541 60.6057 128.917 60.3594C130.294 60.1131 131.211 60.1131 131.899 60.1131C132.587 60.1131 133.734 60.3594 135.569 60.6057C136.486 60.852 137.404 60.852 137.863 60.852C139.468 60.852 141.532 60.3594 141.532 55.9261C141.532 53.2169 140.386 52.7243 139.698 52.478C138.551 52.2317 138.092 51.4928 137.863 51.0002C137.633 50.5076 137.633 49.7687 137.633 47.0595V39.178C137.404 32.0355 139.927 28.0947 144.973 28.0947Z" fill="#054D94"/>
<path d="M242.452 52.2315C241.993 52.2315 241.764 52.2315 241.535 52.4778C240.847 52.7241 240.388 52.9704 239.929 52.9704L237.865 50.2611C237.636 49.2759 237.636 48.2908 237.636 47.7982V34.7445C237.636 29.5723 236.718 25.8779 235.342 23.4149C233.048 19.9668 229.608 18.489 224.791 18.489C222.498 18.489 220.433 18.9816 218.598 19.7205C216.764 20.7057 214.47 22.1834 211.947 24.6464L211.259 25.139L210.8 24.4001C208.277 20.4594 205.295 18.489 201.396 18.489C196.809 18.489 192.451 20.952 188.781 25.8779L187.634 27.6019V21.4446C187.634 19.9668 187.176 19.7205 186.258 19.7205C185.57 19.7205 184.882 19.7205 183.506 19.9668C182.13 20.2131 181.212 20.2131 180.524 20.2131C179.836 20.2131 178.919 20.2131 178.001 19.9668C176.166 19.7205 175.708 19.4742 175.478 19.4742C174.331 19.4742 173.414 19.9668 172.496 20.7057C171.808 21.6909 171.35 22.9223 171.35 24.4001C171.35 27.8482 172.955 28.3408 174.331 28.3408C174.561 28.3408 174.79 28.3408 175.478 28.0945C176.396 27.8482 176.625 27.8482 176.854 27.8482C178.689 27.8482 178.919 30.8038 178.919 33.513V47.3056C178.919 49.7685 178.689 52.7241 176.854 52.7241C176.396 52.7241 175.937 52.7241 175.478 52.4778C175.249 52.2315 174.79 52.2315 174.561 52.2315C173.185 52.2315 171.579 52.7241 171.579 56.4185C171.579 57.8963 172.038 59.1278 172.726 59.8666C173.414 60.8518 174.331 61.0981 175.708 61.0981C176.166 61.0981 177.542 60.8518 179.607 60.6055C180.983 60.3592 182.13 60.3592 183.506 60.3592C184.423 60.3592 185.799 60.3592 187.634 60.6055C189.469 60.8518 190.616 60.8518 191.534 60.8518C193.139 60.8518 195.203 60.3592 195.203 56.1722C195.203 53.9556 194.515 52.7241 192.68 52.4778C191.534 52.2315 191.075 51.9852 190.616 51.4926C190.387 51 190.157 50.5074 190.157 49.2759V38.9315C190.157 31.5427 192.68 27.8482 197.726 27.8482C199.791 27.8482 201.396 28.5871 202.084 30.0649C202.772 31.5427 203.231 33.7593 203.231 37.2075V46.813C203.231 47.0593 203.231 48.0445 203.231 49.5222C203.231 51 202.543 51.9852 201.167 52.2315C200.249 52.4778 199.332 53.2167 199.332 55.9259C199.332 60.1129 201.167 60.6055 202.543 60.6055C203.231 60.6055 203.919 60.6055 205.295 60.3592C206.672 60.1129 207.589 60.1129 208.277 60.1129C208.965 60.1129 210.112 60.3592 211.947 60.6055C212.864 60.8518 213.782 60.8518 214.241 60.8518C215.846 60.8518 217.91 60.3592 217.91 55.9259C217.91 53.2167 216.764 52.7241 216.075 52.4778C214.929 52.2315 214.47 51.4926 214.241 51C214.011 50.7537 213.782 49.7685 213.782 47.0593V39.1778C213.782 31.789 216.305 28.0945 221.121 28.0945L226.855 35.7297C226.855 36.4686 226.855 37.4538 226.855 38.4389V47.3056C226.855 50.2611 226.626 51 226.626 51.2463C226.397 51.9852 225.479 52.4778 224.333 52.7241C223.415 52.9704 222.039 53.463 222.039 56.4185C222.039 57.8963 222.498 58.8815 223.186 59.8666C223.874 60.8518 224.791 61.0981 225.709 61.0981C226.397 61.0981 227.314 61.0981 228.92 60.8518C230.525 60.6055 232.131 60.6055 233.966 60.6055C235.342 60.6055 236.489 60.6055 237.406 60.8518L239.241 61.0981C241.076 61.3444 241.305 61.3444 241.535 61.3444C242.682 61.3444 243.599 60.8518 244.287 59.8666C244.975 58.8815 245.434 57.65 245.434 55.9259C245.205 52.4778 243.599 52.2315 242.452 52.2315Z" fill="#054D94"/>
<path d="M260.343 0.755859C258.508 0.755859 256.902 1.49475 255.755 2.72622C254.379 4.20399 253.92 5.68177 253.92 7.65213C253.92 9.62249 254.608 11.1003 255.755 12.578C257.131 14.0558 258.508 14.5484 260.343 14.5484C262.177 14.5484 263.783 13.8095 264.93 12.578C266.306 11.1003 266.765 9.62249 266.765 7.65213C266.765 5.68177 266.077 3.9577 264.93 2.72622C263.783 1.49475 262.177 0.755859 260.343 0.755859ZM260.343 60.3593C262.177 60.3593 264.012 60.3593 265.388 60.6056C267.682 60.8519 269.288 61.0982 269.746 61.0982C271.352 61.0982 273.646 60.6056 273.646 55.926C273.646 52.7242 272.269 52.2316 271.123 52.2316C270.893 52.2316 270.434 52.2316 269.976 52.4779C269.058 52.7242 268.829 52.7242 268.6 52.7242C266.306 52.7242 266.306 48.7835 266.306 47.552V22.1836C266.306 19.7206 265.159 19.7206 264.7 19.7206C264.7 19.7206 264.242 19.7206 262.407 19.9669C261.26 20.2132 259.884 20.2132 258.966 20.2132C257.82 20.2132 256.214 19.9669 254.379 19.7206C253.232 19.4743 252.544 19.4743 251.856 19.4743C250.48 19.4743 249.562 19.9669 248.874 20.7058C248.186 21.691 247.728 22.6761 247.728 24.4002C247.728 27.8484 249.333 28.3409 250.709 28.3409C250.939 28.3409 251.397 28.3409 251.856 28.0946C253.003 27.6021 253.232 27.6021 253.462 27.6021C255.297 27.6021 255.526 30.5576 255.526 33.2669V47.3057C255.526 48.7835 255.526 52.7242 253.462 52.7242C253.232 52.7242 253.003 52.7242 252.774 52.7242L250.709 52.2316C249.333 52.2316 247.728 52.7242 247.728 56.4186C247.728 57.8964 248.186 59.1279 248.874 59.8668C249.562 60.8519 250.709 61.0982 251.856 61.0982C252.774 61.0982 254.15 61.0982 255.985 60.8519C258.049 60.6056 259.425 60.3593 260.343 60.3593Z" fill="#054D94"/>
<path d="M283.508 4.2041C281.673 4.2041 280.067 4.94299 278.691 6.42076C277.315 7.89853 276.627 9.8689 276.627 12.0856C276.627 16.0263 278.462 18.4892 281.902 19.4744C283.737 20.2133 284.196 21.1985 284.196 21.9374C284.196 22.9226 283.737 25.1392 279.379 31.7892C278.462 33.5133 277.774 34.7447 277.774 36.2225C277.774 38.1929 278.462 38.9318 280.067 38.9318C280.985 38.9318 282.132 38.1929 283.278 36.4688C288.783 29.0799 291.536 22.1837 291.536 15.5337C291.536 12.3318 290.618 9.6226 289.013 7.40594C287.866 5.18928 285.801 4.2041 283.508 4.2041Z" fill="#054D94"/>
<path d="M301.856 56.665L303.003 57.6502C306.673 60.6057 310.802 62.3298 315.16 62.3298C319.517 62.3298 323.417 60.852 326.169 58.1428C329.151 55.4335 330.527 51.9854 330.527 48.0447C330.527 45.5817 329.839 43.3651 328.692 41.3947C327.775 39.9169 326.398 38.6854 324.793 37.9466C323.187 37.2077 320.664 36.4688 317.224 35.7299C312.866 34.991 310.114 34.2521 309.196 33.7595C308.049 33.2669 307.361 32.0355 307.361 30.5577C307.361 28.5873 308.279 26.3707 312.637 26.3707C315.389 26.3707 317.912 27.8484 319.747 30.5577C321.123 32.5281 322.729 33.5132 324.334 33.5132C326.857 33.5132 327.775 32.2818 327.775 29.8188V27.6021C327.775 26.8633 327.775 26.3707 327.775 26.1244C327.775 25.1392 327.775 24.154 328.004 23.1688C328.233 22.4299 328.233 21.6911 328.233 20.9522C328.233 19.967 327.775 18.7355 324.793 18.7355C321.811 18.7355 321.352 20.4596 321.123 21.6911L321.352 22.6762L320.435 21.6911C317.683 19.4744 314.471 18.2429 310.572 18.2429C306.673 18.2429 303.233 19.4744 300.71 21.9374C298.187 24.4003 297.04 27.6021 297.04 31.7892C297.04 34.0058 297.499 35.9762 298.416 37.7003C299.333 39.4243 300.48 40.6558 301.856 41.3947C303.462 42.1336 305.985 43.1188 309.655 43.8576L314.242 44.8428C317.683 45.5817 319.288 47.0595 319.288 49.2761C319.288 51.2465 318.141 53.9558 312.866 53.9558C310.572 53.9558 308.737 53.7095 307.591 52.9706C306.444 52.2317 305.068 50.7539 303.691 48.5373C303.003 47.3058 302.086 46.5669 301.627 46.0743C300.939 45.5817 300.022 45.5817 298.645 45.5817C295.434 45.5817 294.976 47.3058 294.976 48.5373C294.976 49.0298 294.976 49.7687 295.205 50.7539C295.205 51.7391 295.434 52.478 295.434 53.2169C295.434 53.7095 295.434 54.6946 295.205 55.9261C295.205 57.1576 294.976 57.8965 294.976 58.3891C294.976 59.8668 295.434 61.3446 298.645 61.3446C300.939 61.3446 301.856 60.3594 301.856 57.8965V56.665Z" fill="#054D94"/>
<path d="M108.962 88.6833C111.944 88.6833 116.761 88.4371 116.761 84.0037C116.761 80.5556 113.779 79.8167 111.026 79.8167C109.88 79.8167 108.045 79.8167 106.669 80.3093C105.98 80.5556 105.522 80.5556 105.522 81.2945C105.522 81.7871 105.522 83.7574 105.522 84.25C105.292 88.6833 105.063 88.6833 108.962 88.6833ZM108.274 91.1463C105.292 91.1463 105.292 91.3926 105.292 94.3481V97.55C105.292 98.5352 105.063 100.506 105.98 101.244C106.898 101.983 109.65 101.983 110.797 101.983C112.403 101.983 114.467 101.737 115.843 100.752C117.219 99.7666 117.907 98.0426 117.907 96.0722C117.907 91.6389 114.008 90.9 110.568 90.9H108.274V91.1463ZM102.311 86.2204C102.311 84.9889 102.311 82.526 102.081 81.2945C101.852 80.3093 101.164 79.8167 100.246 79.8167C99.5583 79.8167 99.0996 80.063 98.4115 80.063C97.7234 80.063 97.2646 79.5704 97.2646 78.8315C97.2646 78.0926 97.7234 77.3538 98.8702 77.3538C100.476 77.3538 101.393 77.8463 104.146 77.8463C107.127 77.8463 109.192 77.3538 111.715 77.3538C113.549 77.3538 115.843 77.6001 117.219 78.5852C119.054 79.8167 119.972 81.7871 119.972 84.0037C119.972 86.9593 118.137 88.9296 115.614 89.6685C118.825 90.6537 121.118 92.8704 121.118 96.5648C121.118 99.0278 119.972 101.244 118.137 102.722C116.302 104.2 113.779 104.446 111.485 104.446C108.733 104.446 106.898 103.954 103.916 103.954C101.623 103.954 99.7876 104.446 98.6408 104.446C97.7234 104.446 97.494 103.954 97.2646 102.968C97.2646 102.23 97.7234 101.737 98.4115 101.737C99.0996 101.737 99.5583 101.983 100.246 101.983C101.164 101.983 101.852 101.491 102.081 100.506C102.311 99.274 102.311 96.8111 102.311 95.5796V86.2204Z" fill="#054D94"/>
<path d="M126.852 89.9148C126.852 87.4518 126.394 86.713 125.705 86.713C125.017 86.713 124.559 86.9592 124.1 86.9592C123.412 86.9592 122.953 86.4667 122.953 85.7278C122.953 84.7426 123.871 84.25 124.788 84.25C125.476 84.25 126.164 84.7426 126.852 84.7426C127.54 84.7426 128.228 84.25 128.917 84.25C129.834 84.25 130.063 84.9889 130.063 85.9741C130.063 89.1759 129.834 90.1611 129.834 92.8703V94.5944C129.834 96.0722 129.834 98.5351 130.293 99.7666C130.751 101.737 132.586 102.476 134.421 102.476C136.715 102.476 138.55 101.491 139.238 99.0277C139.697 97.3037 139.926 94.5944 139.926 92.624V89.9148C139.926 87.6981 139.238 86.713 138.55 86.713C137.862 86.713 137.403 86.9592 136.944 86.9592C136.256 86.9592 135.797 86.4667 135.797 85.7278C135.797 84.7426 136.486 84.25 137.403 84.25C138.32 84.25 139.009 84.7426 139.697 84.7426C140.385 84.7426 141.073 84.25 141.761 84.25C142.449 84.25 142.908 84.7426 142.908 85.4815C142.908 87.4518 142.908 89.1759 142.908 91.3926V98.7814C142.908 101.491 143.366 101.983 144.055 101.983C144.743 101.983 145.201 101.737 145.66 101.737C146.348 101.737 146.807 102.23 146.807 102.968C146.807 103.954 146.119 104.446 145.201 104.446C144.513 104.446 143.825 103.954 143.137 103.954C142.449 103.954 141.761 104.446 141.073 104.446C140.385 104.446 140.155 103.707 140.155 101.983C138.779 104.2 136.715 104.939 134.192 104.939C132.586 104.939 130.751 104.446 129.375 103.215C127.77 101.983 127.311 100.013 127.311 98.0425V89.9148H126.852Z" fill="#054D94"/>
<path d="M151.395 89.9147C151.395 87.2055 151.166 86.7129 150.248 86.7129C149.56 86.7129 149.101 86.9592 148.184 86.9592C147.496 86.9592 147.037 86.4666 147.037 85.7277C147.037 84.7425 147.725 84.2499 148.643 84.2499C149.331 84.2499 149.789 84.7425 150.707 84.7425C151.624 84.7425 152.083 84.2499 152.771 84.2499C153.689 84.2499 153.918 84.9888 153.689 86.7129C154.835 84.7425 156.67 83.7573 158.735 83.7573C161.716 83.7573 164.698 85.7277 164.698 89.1758C164.698 91.1462 163.781 93.1165 161.716 93.1165C160.799 93.1165 159.652 92.3777 159.652 91.1462C159.652 90.4073 160.34 89.4221 161.028 89.4221C161.258 89.4221 161.258 89.4221 161.487 89.4221C161.716 89.1758 161.716 88.9295 161.716 88.4369C161.716 86.7129 159.881 85.7277 158.505 85.7277C155.753 85.7277 153.918 87.4518 153.918 93.1165V98.2888C153.918 101.244 154.377 101.491 155.065 101.491C155.753 101.491 156.212 101.244 156.67 101.244C157.358 101.244 157.817 101.737 157.817 102.476C157.817 103.461 156.9 103.954 156.212 103.954C155.065 103.954 153.918 103.461 152.542 103.461C150.936 103.461 150.248 103.954 148.643 103.954C147.725 103.954 147.037 103.461 147.037 102.476C147.037 101.737 147.496 101.244 148.184 101.244C148.643 101.244 149.331 101.491 149.789 101.491C150.478 101.491 150.707 100.998 150.707 98.2888V89.9147H151.395Z" fill="#054D94"/>
<path d="M179.377 90.161C179.377 87.6981 177.313 86.2203 175.019 86.2203C172.726 86.2203 170.891 87.9444 170.891 90.161C170.891 92.624 172.726 94.1017 175.019 94.1017C177.313 94.348 179.377 92.8703 179.377 90.161ZM170.661 102.722C169.515 103.215 168.826 104.2 168.826 105.678C168.826 107.155 169.973 108.141 171.12 108.633C172.267 109.126 173.872 109.126 175.019 109.126C177.084 109.126 181.441 108.633 181.441 105.431C181.441 102.229 177.542 101.983 175.249 101.983C173.872 101.983 172.038 102.229 170.661 102.722ZM174.102 99.2739C176.166 99.2739 178.23 99.274 180.065 100.013C182.359 100.752 184.423 102.722 184.423 105.431C184.423 110.357 178.689 111.589 175.019 111.589C171.349 111.589 165.845 110.604 165.845 105.431C165.845 103.215 167.221 101.491 169.285 100.752C167.68 100.013 166.303 99.0277 166.303 97.0573C166.303 95.0869 167.68 93.6092 169.285 93.1166C168.597 92.1314 168.368 90.8999 168.368 89.6684C168.368 85.7277 171.808 83.2647 175.249 83.2647C175.937 83.2647 176.625 83.2647 177.542 83.511C177.542 81.0481 179.607 79.5703 181.671 79.5703C183.735 79.5703 185.799 80.8018 185.799 83.0185C185.799 84.2499 184.882 85.2351 183.735 85.2351C183.047 85.2351 182.359 84.4962 182.359 83.7573C182.359 83.2647 182.818 82.7722 183.047 82.5259C182.588 82.0333 182.13 81.787 181.441 81.787C180.065 81.787 179.377 83.0184 179.377 84.4962C181.212 85.7277 182.13 87.6981 182.13 89.9147C182.13 94.1017 178.689 96.5647 175.249 96.5647C173.872 96.5647 172.496 96.0721 171.12 95.5795C170.891 95.5795 170.432 95.3332 170.203 95.3332C169.515 95.3332 168.826 96.3184 168.826 97.0573C168.826 99.0277 171.349 99.0277 172.726 99.0277H174.102V99.2739Z" fill="#054D94"/>
<path d="M200.249 91.8853C200.02 88.6834 198.414 86.2205 195.203 86.2205C191.992 86.2205 189.928 88.6834 189.698 91.8853H200.249ZM189.24 94.8408C189.01 98.7815 191.074 102.476 195.203 102.476C197.726 102.476 199.561 101.244 200.249 98.5352C200.478 97.7964 200.708 96.8112 201.625 96.8112C202.313 96.8112 203.001 97.3038 203.001 98.289C203.001 100.013 201.855 101.737 200.937 102.722C199.332 104.2 197.038 104.939 194.974 104.939C189.24 104.939 186.258 100.259 186.258 94.5945C186.258 91.8853 186.946 89.176 188.322 86.9594C189.928 84.7427 192.451 83.5112 194.974 83.5112C199.79 83.5112 203.231 87.2057 203.231 92.6242C203.231 94.5945 203.231 94.8408 201.396 94.8408H189.24Z" fill="#054D94"/>
<path d="M209.653 89.9147C209.653 87.2055 209.423 86.7129 208.506 86.7129C207.818 86.7129 207.359 86.9592 206.442 86.9592C205.754 86.9592 205.295 86.4666 205.295 85.7277C205.295 84.7425 205.983 84.2499 206.9 84.2499C207.589 84.2499 208.047 84.7425 208.965 84.7425C209.882 84.7425 210.341 84.2499 211.029 84.2499C211.946 84.2499 212.176 84.9888 211.946 86.7129C213.093 84.7425 214.928 83.7573 216.992 83.7573C219.974 83.7573 222.956 85.7277 222.956 89.1758C222.956 91.1462 222.038 93.1165 219.974 93.1165C219.057 93.1165 217.91 92.3777 217.91 91.1462C217.91 90.4073 218.598 89.4221 219.286 89.4221C219.515 89.4221 219.515 89.4221 219.745 89.4221C219.974 89.1758 219.974 88.9295 219.974 88.4369C219.974 86.7129 218.139 85.7277 216.763 85.7277C214.011 85.7277 212.176 87.4518 212.176 93.1165V98.2888C212.176 101.244 212.635 101.491 213.323 101.491C214.011 101.491 214.469 101.244 214.928 101.244C215.616 101.244 216.075 101.737 216.075 102.476C216.075 103.461 215.387 103.954 214.469 103.954C213.323 103.954 212.176 103.461 210.8 103.461C209.194 103.461 208.506 103.954 206.9 103.954C205.983 103.954 205.295 103.461 205.295 102.476C205.295 101.737 205.754 101.244 206.442 101.244C206.9 101.244 207.589 101.491 208.047 101.491C208.735 101.491 208.965 100.998 208.965 98.2888V89.9147H209.653Z" fill="#054D94"/>
<path d="M251.626 86.2204C251.626 84.9889 251.626 82.526 251.397 81.2945C251.167 80.3093 250.479 79.8167 249.562 79.8167C248.874 79.8167 248.415 80.063 247.727 80.063C247.039 80.063 246.58 79.5704 246.58 78.8315C246.58 77.8463 247.268 77.3538 247.956 77.3538C249.562 77.3538 250.938 77.8463 252.773 77.8463C254.608 77.8463 255.754 77.3538 257.589 77.3538C258.507 77.3538 259.195 77.8463 259.195 78.8315C259.195 79.5704 258.736 80.063 258.048 80.063C257.36 80.063 256.901 79.8167 256.213 79.8167C255.296 79.8167 254.608 80.3093 254.378 81.2945C254.149 82.526 254.149 84.9889 254.149 86.2204V88.6833C254.149 91.6389 254.378 97.3037 253.461 99.7666C251.855 103.461 248.415 105.185 244.745 105.185C240.158 105.185 235.8 102.722 235.8 97.3037C235.8 94.1018 238.093 91.3926 241.075 91.3926C242.91 91.3926 244.745 92.6241 244.745 94.5944C244.745 95.8259 243.828 97.0574 242.681 97.0574C241.763 97.0574 240.846 96.3185 240.846 95.3333C240.846 94.8407 241.075 94.5944 241.305 94.3481C241.075 94.1018 241.075 94.1018 240.616 94.1018C239.47 94.1018 238.552 96.0722 238.552 97.0574C238.552 100.506 241.305 102.476 244.286 102.476C246.351 102.476 248.644 101.737 249.791 99.7666C250.938 97.55 250.938 95.087 250.938 92.6241V86.2204H251.626Z" fill="#054D94"/>
<path d="M268.37 102.476C272.957 102.476 274.334 98.2888 274.334 94.1017C274.334 92.3777 273.875 90.161 272.957 88.4369C272.04 86.7129 270.205 86.2203 268.599 86.2203C266.535 86.2203 264.93 86.9592 264.012 88.9295C263.095 90.4073 262.865 92.624 262.865 94.348C262.636 98.0425 264.012 102.476 268.37 102.476ZM268.37 83.7573C270.893 83.7573 273.416 84.4962 275.022 86.7129C276.627 88.9295 277.315 91.6388 277.315 94.348C277.315 100.259 274.334 105.185 268.37 105.185C262.636 105.185 259.654 100.259 259.654 94.5943C259.654 88.6832 262.407 83.7573 268.37 83.7573Z" fill="#054D94"/>
<path d="M286.26 79.8168C286.26 81.0482 285.342 82.0334 284.196 82.0334C283.049 82.0334 282.131 81.0482 282.131 79.8168C282.131 78.5853 283.049 77.6001 284.196 77.6001C285.342 77.6001 286.26 78.5853 286.26 79.8168ZM283.507 89.9149C283.507 87.2056 283.278 86.713 282.361 86.713C281.673 86.713 281.214 86.9593 280.755 86.9593C280.067 86.9593 279.608 86.4667 279.608 85.7278C279.608 84.7427 280.296 84.2501 280.984 84.2501C281.902 84.2501 282.59 84.7427 283.278 84.7427C284.196 84.7427 284.654 84.2501 285.342 84.2501C286.26 84.2501 286.26 85.2353 286.26 85.9741V100.506C286.26 101.491 286.489 102.23 287.177 102.23C287.636 102.23 288.095 101.983 288.553 101.983C289.242 101.983 289.7 102.476 289.7 103.215C289.7 104.2 289.012 104.693 288.095 104.693C286.948 104.693 285.801 104.2 284.425 104.2C282.819 104.2 281.902 104.693 280.526 104.693C279.838 104.693 279.379 103.954 279.379 103.215C279.379 102.476 279.838 101.983 280.526 101.983C280.984 101.983 281.673 102.23 282.131 102.23C283.049 102.23 283.278 101.491 283.278 99.0278V89.9149H283.507Z" fill="#054D94"/>
<path d="M294.976 89.9147C294.976 87.2055 294.747 86.7129 293.829 86.7129C293.141 86.7129 292.682 86.9592 292.224 86.9592C291.536 86.9592 291.077 86.4666 291.077 85.7277C291.077 84.9888 291.765 84.2499 292.453 84.2499C293.141 84.2499 293.371 84.7425 294.517 84.7425C295.664 84.7425 295.894 84.2499 296.811 84.2499C297.499 84.2499 297.499 84.9888 297.499 86.7129C298.875 84.7425 301.398 83.7573 303.463 83.7573C305.297 83.7573 307.362 84.4962 308.738 85.974C310.343 87.4518 310.343 89.4221 310.343 91.6388V98.7813C310.343 101.244 310.573 101.983 311.49 101.983C312.178 101.983 312.637 101.737 313.096 101.737C313.784 101.737 314.243 102.229 314.243 102.968C314.243 103.954 313.555 104.446 312.637 104.446C311.49 104.446 310.573 103.954 308.967 103.954C307.132 103.954 306.444 104.446 305.068 104.446C304.151 104.446 303.463 103.954 303.463 102.968C303.463 102.229 303.921 101.737 304.609 101.737C305.068 101.737 305.756 101.983 306.215 101.983C307.132 101.983 307.362 101.244 307.362 98.7813V93.1165C307.362 90.6536 307.362 89.9147 306.674 88.6832C305.986 87.2055 304.151 86.4666 302.774 86.4666C301.169 86.4666 299.334 87.2055 298.416 88.6832C297.958 89.4221 297.499 90.4073 297.499 94.1017V98.7813C297.499 101.244 297.728 101.983 298.646 101.983C299.334 101.983 299.793 101.737 300.251 101.737C300.94 101.737 301.398 102.229 301.398 102.968C301.398 103.954 300.71 104.446 299.793 104.446C298.646 104.446 297.728 103.954 296.123 103.954C294.288 103.954 293.6 104.446 292.224 104.446C291.306 104.446 290.618 103.954 290.618 102.968C290.618 102.229 291.077 101.737 291.765 101.737C292.224 101.737 292.912 101.983 293.371 101.983C294.288 101.983 294.517 101.244 294.517 98.7813V89.9147H294.976Z" fill="#054D94"/>
<path d="M317.683 88.4371C317.683 87.2056 317.453 86.9593 316.306 86.9593C314.93 86.9593 314.242 86.713 314.242 85.4816C314.242 84.7427 314.93 84.0038 315.618 84.0038H316.995C317.683 84.0038 317.683 83.7575 317.683 82.7723V79.5705C317.683 78.5853 317.912 77.6001 319.059 77.6001C320.206 77.6001 320.435 78.5853 320.435 79.5705V83.5112C320.435 84.0038 320.435 84.2501 321.123 84.2501H324.793C326.169 84.2501 326.628 84.7427 326.628 85.7278C326.628 86.4667 326.398 87.2056 324.564 87.2056H321.352C320.435 87.2056 320.435 87.2056 320.435 87.9445V97.3037C320.435 100.752 321.123 101.983 323.187 101.983C325.481 101.983 325.71 100.013 325.71 98.0426V96.8111C325.71 95.0871 326.169 94.3482 327.087 94.3482C328.004 94.3482 328.463 95.3334 328.463 96.3186C328.463 100.752 327.775 104.693 322.729 104.693C321.123 104.693 319.288 103.954 318.371 102.23C317.912 100.998 317.683 100.259 317.683 97.0574V88.4371Z" fill="#054D94"/>
</svg>
