<svg width="131" height="44" viewBox="0 0 131 44" fill="none" xmlns="http://www.w3.org/2000/svg">
<path d="M9.94155 23.486C10.8453 23.486 11.9299 23.5831 13.1952 23.6801C14.0086 23.7772 14.7316 23.7772 15.2738 23.7772C16.7199 23.7772 17.3525 23.0008 17.3525 21.448C17.3525 20.2834 16.8103 19.7011 15.7257 19.7011C15.545 19.7011 15.1835 19.7011 14.7316 19.7981C14.2797 19.8952 13.9182 19.8952 13.647 19.8952C13.0144 19.8952 12.2914 19.507 12.2914 17.566V7.95807C12.2914 7.08462 12.4721 6.40527 12.7433 6.01707C13.0144 5.62888 13.5567 5.43478 14.2797 5.43478C15.7257 5.43478 15.9065 6.40527 15.9065 6.89052C15.9065 7.08462 15.9065 7.47282 15.8161 7.95807C15.7257 8.34627 15.7257 8.73446 15.7257 9.02561C15.7257 10.7725 16.3584 11.646 17.8044 11.646C18.4371 11.646 18.889 11.4519 19.3408 10.9666C19.7024 10.5784 19.8831 9.89906 19.8831 9.12266C19.8831 9.02561 19.8831 8.44332 19.7927 7.56987C19.7024 6.79347 19.7024 6.30822 19.7024 5.92002C19.7024 5.53183 19.7024 5.04658 19.7927 4.36723C19.8831 3.78493 19.8831 3.29968 19.8831 2.91148C19.8831 2.13509 19.5216 1.74689 18.7082 1.74689C18.2563 1.74689 17.6237 1.74689 16.9006 1.84394C15.3642 2.03804 12.924 2.13509 9.94155 2.13509C6.95909 2.13509 4.60927 2.03804 2.89209 1.84394C2.16907 1.84394 1.53642 1.74689 1.08453 1.74689C0.361511 1.74689 0 2.13509 0 2.91148C0 3.20263 0 3.68788 0.0903778 4.17313C0.180756 5.04658 0.180756 5.53183 0.180756 5.82297C0.180756 6.30822 0.180756 6.89052 0.0903778 7.47282C0 8.34627 0 8.83151 0 9.12266C0 9.89906 0.180756 10.4814 0.542267 10.9666C0.903778 11.3548 1.44604 11.5489 2.07869 11.5489C3.52473 11.5489 4.15738 10.6755 4.15738 8.83151C4.15738 8.63742 4.15738 8.34627 4.067 7.86102C3.97662 7.47282 3.88624 7.08462 3.88624 6.89052C3.88624 6.21117 4.15738 5.43478 5.6938 5.43478C6.5072 5.43478 7.50135 5.92002 7.50135 7.95807V17.566C7.50135 19.507 6.77833 19.8952 6.14569 19.8952C5.87456 19.8952 5.51304 19.8952 5.06115 19.7981C4.60927 19.7011 4.33813 19.7011 4.067 19.7011C2.98247 19.7011 2.4402 20.2834 2.4402 21.6421C2.4402 23.0978 3.07284 23.7772 4.51889 23.7772C5.15153 23.7772 5.87456 23.7772 6.59758 23.6801C7.95324 23.486 9.03778 23.486 9.94155 23.486Z" fill="#1C1C1B"/>
<path d="M28.4688 20.6716C27.3842 20.6716 26.5708 20.1863 26.0286 19.3129C25.4863 18.4394 25.2152 17.1778 25.2152 15.625C25.2152 14.0722 25.4863 12.8106 26.0286 11.9371C26.5708 10.9666 27.3842 10.4814 28.4688 10.4814C30.6378 10.4814 31.7224 12.2283 31.7224 15.625C31.632 18.9247 30.5475 20.6716 28.4688 20.6716ZM28.3784 6.89053C25.9382 6.89053 24.0403 7.66693 22.6846 9.12268C21.3289 10.6755 20.6963 12.8106 20.6963 15.528C20.6963 18.2453 21.4193 20.3804 22.6846 21.9332C24.0403 23.389 25.9382 24.1654 28.4688 24.1654C30.8186 24.1654 32.7165 23.389 34.0722 21.8362C35.4279 20.2834 36.0605 18.1483 36.0605 15.3339C36.0605 12.7135 35.3375 10.5784 33.9818 9.12268C32.7165 7.66693 30.8186 6.89053 28.3784 6.89053Z" fill="#1C1C1B"/>
<path d="M56.9377 10.7725C57.8415 10.7725 58.4741 11.0637 58.7453 11.743C59.0164 12.3253 59.1971 13.2958 59.1971 14.8486V18.3424C59.1971 19.507 59.1068 19.7981 59.1068 19.8952C59.0164 20.1863 58.6549 20.3804 58.203 20.4775C57.8415 20.5745 57.2992 20.7686 57.2992 21.9332C57.2992 22.5155 57.48 22.9037 57.7511 23.2919C58.0222 23.6801 58.3837 23.7772 58.7453 23.7772C59.0164 23.7772 59.3779 23.7772 60.0105 23.6801C60.6432 23.5831 61.2758 23.5831 61.9989 23.5831C62.5411 23.5831 62.993 23.5831 63.3545 23.6801L64.0775 23.7772C64.8006 23.8742 64.8909 23.8742 64.9813 23.8742C65.4332 23.8742 65.7947 23.6801 66.0659 23.2919C66.337 22.9037 66.5177 22.4185 66.5177 21.7391C66.5177 20.4775 65.9755 20.2834 65.4332 20.2834C65.2525 20.2834 65.1621 20.2834 65.0717 20.3804C64.8006 20.4775 64.6198 20.5745 64.4391 20.5745C63.5353 20.5745 63.5353 19.0217 63.5353 18.5365V13.3929C63.5353 11.3548 63.1738 9.89907 62.6315 8.92858C61.7277 7.56988 60.3721 6.98758 58.4741 6.98758C57.5703 6.98758 56.7569 7.18168 56.0339 7.47283C55.3109 7.86103 54.4071 8.44333 53.413 9.41383L52.9611 9.60792L52.7803 9.31678C51.7862 7.66693 50.6113 6.89053 49.0748 6.89053C47.2673 6.89053 45.5501 7.86103 44.1041 9.80202L43.6522 10.4814V8.15218C43.6522 7.56988 43.4714 7.47283 43.1099 7.47283C42.8388 7.47283 42.5676 7.47283 42.0254 7.56988C41.4831 7.66693 41.1216 7.66693 40.8505 7.66693C40.5793 7.66693 40.2178 7.66693 39.8563 7.56988C39.1333 7.47283 38.9525 7.37578 38.8622 7.37578C38.4103 7.37578 38.0488 7.56988 37.6872 7.86103C37.4161 8.24923 37.2354 8.73448 37.2354 9.31678C37.2354 10.6755 37.868 10.8696 38.4103 10.8696C38.5006 10.8696 38.591 10.8696 38.8622 10.7725C39.2237 10.6755 39.314 10.6755 39.4044 10.6755C40.1274 10.6755 40.2178 11.8401 40.2178 12.9076V18.3424C40.2178 19.3129 40.1274 20.4775 39.4044 20.4775C39.2237 20.4775 39.0429 20.4775 38.8622 20.3804C38.8622 20.2834 38.6814 20.2834 38.5006 20.2834C37.9584 20.2834 37.3257 20.4775 37.3257 21.9332C37.3257 22.5155 37.5065 23.0008 37.7776 23.2919C38.0488 23.6801 38.4103 23.7772 38.9525 23.7772C39.1333 23.7772 39.6755 23.6801 40.4889 23.5831C41.0312 23.486 41.4831 23.486 42.0254 23.486C42.3869 23.486 42.9291 23.486 43.6522 23.5831C44.3752 23.6801 44.8271 23.6801 45.1886 23.6801C45.8212 23.6801 46.6346 23.486 46.6346 21.8362C46.6346 20.9627 46.3635 20.4775 45.6405 20.3804C45.1886 20.2834 45.0078 20.1863 44.8271 19.9922C44.7367 19.7981 44.6463 19.604 44.6463 19.1188V15.0427C44.6463 12.1312 45.6405 10.6755 47.6288 10.6755C48.4422 10.6755 49.0748 10.9666 49.346 11.5489C49.6171 12.1312 49.7979 13.0047 49.7979 14.3634V18.1483C49.7979 18.2453 49.7979 18.6335 49.7979 19.2158C49.7979 19.7981 49.5267 20.1863 48.9845 20.2834C48.6229 20.3804 48.2614 20.6716 48.2614 21.7391C48.2614 23.389 48.9845 23.5831 49.5267 23.5831C49.7979 23.5831 50.069 23.5831 50.6113 23.486C51.1535 23.389 51.515 23.389 51.7862 23.389C52.0573 23.389 52.5092 23.486 53.2322 23.5831C53.5937 23.6801 53.9552 23.6801 54.136 23.6801C54.7686 23.6801 55.582 23.486 55.582 21.7391C55.582 20.6716 55.1301 20.4775 54.859 20.3804C54.4071 20.2834 54.2264 19.9922 54.136 19.7981C54.0456 19.604 54.0456 19.3129 54.0456 18.2453V15.1398C53.9552 12.3253 54.9494 10.7725 56.9377 10.7725Z" fill="#1C1C1B"/>
<path d="M95.3482 20.2834C95.1674 20.2834 95.077 20.2834 94.9867 20.3804C94.7155 20.4775 94.5348 20.5745 94.354 20.5745L93.5406 19.507C93.4502 19.1188 93.4502 18.7306 93.4502 18.5365V13.3929C93.4502 11.3548 93.0887 9.89907 92.5465 8.92857C91.6427 7.56988 90.287 6.98758 88.3891 6.98758C87.4853 6.98758 86.6719 7.18168 85.9489 7.47283C85.2259 7.86103 84.3221 8.44332 83.3279 9.41382L83.0568 9.60792L82.876 9.31677C81.8819 7.76398 80.707 6.98758 79.1705 6.98758C77.363 6.98758 75.6458 7.95808 74.1998 9.89907L73.7479 10.5784V8.15218C73.7479 7.56988 73.5671 7.47283 73.2056 7.47283C72.9345 7.47283 72.6633 7.47283 72.1211 7.56988C71.5788 7.66693 71.2173 7.66693 70.9462 7.66693C70.675 7.66693 70.3135 7.66693 69.952 7.56988C69.229 7.47283 69.0482 7.37578 68.9579 7.37578C68.506 7.37578 68.1445 7.56988 67.7829 7.86103C67.5118 8.24923 67.3311 8.73447 67.3311 9.31677C67.3311 10.6755 67.9637 10.8696 68.506 10.8696C68.5963 10.8696 68.6867 10.8696 68.9579 10.7725C69.3194 10.6755 69.4097 10.6755 69.5001 10.6755C70.2231 10.6755 70.3135 11.8401 70.3135 12.9076V18.3424C70.3135 19.3129 70.2231 20.4775 69.5001 20.4775C69.3194 20.4775 69.1386 20.4775 68.9579 20.3804C68.8675 20.2834 68.6867 20.2834 68.5963 20.2834C68.0541 20.2834 67.4214 20.4775 67.4214 21.9332C67.4214 22.5155 67.6022 23.0008 67.8733 23.2919C68.1445 23.6801 68.506 23.7772 69.0482 23.7772C69.229 23.7772 69.7713 23.6801 70.5847 23.5831C71.1269 23.486 71.5788 23.486 72.1211 23.486C72.4826 23.486 73.0249 23.486 73.7479 23.5831C74.4709 23.6801 74.9228 23.6801 75.2843 23.6801C75.9169 23.6801 76.7303 23.486 76.7303 21.8362C76.7303 20.9627 76.4592 20.4775 75.7362 20.3804C75.2843 20.2834 75.1035 20.1863 74.9228 19.9922C74.8324 19.7981 74.742 19.604 74.742 19.1188V15.0427C74.742 12.1312 75.7362 10.6755 77.7245 10.6755C78.5379 10.6755 79.1705 10.9666 79.4417 11.5489C79.7128 12.1312 79.8936 13.0047 79.8936 14.3634V18.1483C79.8936 18.2453 79.8936 18.6335 79.8936 19.2158C79.8936 19.7981 79.6224 20.1863 79.0802 20.2834C78.7187 20.3804 78.3571 20.6716 78.3571 21.7391C78.3571 23.389 79.0802 23.5831 79.6224 23.5831C79.8936 23.5831 80.1647 23.5831 80.707 23.486C81.2492 23.389 81.6107 23.389 81.8819 23.389C82.153 23.389 82.6049 23.486 83.3279 23.5831C83.6894 23.6801 84.0509 23.6801 84.2317 23.6801C84.8643 23.6801 85.6777 23.486 85.6777 21.7391C85.6777 20.6716 85.2259 20.4775 84.9547 20.3804C84.5028 20.2834 84.3221 19.9922 84.2317 19.7981C84.1413 19.7011 84.0509 19.3129 84.0509 18.2453V15.1398C84.0509 12.2283 85.0451 10.7725 86.943 10.7725L89.2025 13.7811C89.2025 14.0722 89.2025 14.4604 89.2025 14.8486V18.3424C89.2025 19.507 89.1121 19.7981 89.1121 19.8952C89.0217 20.1863 88.6602 20.3804 88.2083 20.4775C87.8468 20.5745 87.3045 20.7686 87.3045 21.9332C87.3045 22.5155 87.4853 22.9037 87.7564 23.2919C88.0276 23.6801 88.3891 23.7772 88.7506 23.7772C89.0217 23.7772 89.3832 23.7772 90.0159 23.6801C90.6485 23.5831 91.2812 23.5831 92.0042 23.5831C92.5465 23.5831 92.9983 23.5831 93.3599 23.6801L94.0829 23.7772C94.8059 23.8742 94.8963 23.8742 94.9867 23.8742C95.4385 23.8742 95.8001 23.6801 96.0712 23.2919C96.3423 22.9037 96.5231 22.4185 96.5231 21.7391C96.4327 20.3804 95.8001 20.2834 95.3482 20.2834Z" fill="#1C1C1B"/>
<path d="M102.398 0C101.675 0 101.042 0.291149 100.59 0.776397C100.048 1.3587 99.867 1.94099 99.867 2.71739C99.867 3.49379 100.138 4.07609 100.59 4.65839C101.132 5.24068 101.675 5.43478 102.398 5.43478C103.121 5.43478 103.753 5.14363 104.205 4.65839C104.747 4.07609 104.928 3.49379 104.928 2.71739C104.928 1.94099 104.657 1.26165 104.205 0.776397C103.753 0.291149 103.121 0 102.398 0ZM102.398 23.486C103.121 23.486 103.844 23.486 104.386 23.5831C105.29 23.6801 105.922 23.7772 106.103 23.7772C106.736 23.7772 107.639 23.5831 107.639 21.7391C107.639 20.4775 107.097 20.2834 106.645 20.2834C106.555 20.2834 106.374 20.2834 106.193 20.3804C105.832 20.4775 105.742 20.4775 105.651 20.4775C104.747 20.4775 104.747 18.9247 104.747 18.4394V8.44332C104.747 7.47283 104.295 7.47283 104.115 7.47283C104.115 7.47283 103.934 7.47283 103.211 7.56988C102.759 7.66693 102.217 7.66693 101.855 7.66693C101.403 7.66693 100.771 7.56988 100.048 7.47283C99.5958 7.37578 99.3247 7.37578 99.0536 7.37578C98.5113 7.37578 98.1498 7.56988 97.8786 7.86102C97.6075 8.24922 97.4268 8.63742 97.4268 9.31677C97.4268 10.6755 98.0594 10.8696 98.6017 10.8696C98.692 10.8696 98.8728 10.8696 99.0536 10.7725C99.5054 10.5784 99.5958 10.5784 99.6862 10.5784C100.409 10.5784 100.5 11.743 100.5 12.8106V18.3424C100.5 18.9247 100.5 20.4775 99.6862 20.4775C99.5958 20.4775 99.5054 20.4775 99.4151 20.4775L98.6017 20.2834C98.0594 20.2834 97.4268 20.4775 97.4268 21.9332C97.4268 22.5155 97.6075 23.0008 97.8786 23.2919C98.1498 23.6801 98.6017 23.7772 99.0536 23.7772C99.4151 23.7772 99.9573 23.7772 100.68 23.6801C101.494 23.5831 102.036 23.486 102.398 23.486Z" fill="#1C1C1B"/>
<path d="M111.526 1.3587C110.803 1.3587 110.17 1.64985 109.628 2.23215C109.086 2.81445 108.814 3.59085 108.814 4.46429C108.814 6.01709 109.537 6.98759 110.893 7.37578C111.616 7.66693 111.797 8.05513 111.797 8.34628C111.797 8.73448 111.616 9.60793 109.899 12.2283C109.537 12.9076 109.266 13.3929 109.266 13.9752C109.266 14.7516 109.537 15.0427 110.17 15.0427C110.532 15.0427 110.984 14.7516 111.435 14.0722C113.604 11.1607 114.689 8.44333 114.689 5.82299C114.689 4.56134 114.327 3.4938 113.695 2.62035C113.243 1.7469 112.43 1.3587 111.526 1.3587Z" fill="#1C1C1B"/>
<path d="M118.756 22.0303L119.208 22.4185C120.654 23.5831 122.281 24.2624 123.998 24.2624C125.715 24.2624 127.252 23.6801 128.336 22.6126C129.511 21.545 130.053 20.1863 130.053 18.6335C130.053 17.663 129.782 16.7896 129.33 16.0132C128.969 15.4309 128.427 14.9457 127.794 14.6545C127.161 14.3634 126.167 14.0722 124.812 13.7811C123.094 13.4899 122.01 13.1988 121.648 13.0047C121.196 12.8106 120.925 12.3253 120.925 11.743C120.925 10.9666 121.287 10.0932 123.004 10.0932C124.089 10.0932 125.083 10.6755 125.806 11.743C126.348 12.5194 126.981 12.9076 127.613 12.9076C128.607 12.9076 128.969 12.4224 128.969 11.4519V10.5784C128.969 10.2873 128.969 10.0932 128.969 9.99612C128.969 9.60792 128.969 9.21973 129.059 8.83153C129.15 8.54038 129.15 8.24923 129.15 7.95808C129.15 7.56988 128.969 7.08463 127.794 7.08463C126.619 7.08463 126.438 7.76398 126.348 8.24923L126.438 8.63743L126.077 8.24923C124.992 7.37578 123.727 6.89053 122.191 6.89053C120.654 6.89053 119.299 7.37578 118.304 8.34628C117.31 9.31678 116.858 10.5784 116.858 12.2283C116.858 13.1017 117.039 13.8781 117.401 14.5575C117.762 15.2368 118.214 15.7221 118.756 16.0132C119.389 16.3044 120.383 16.6926 121.829 16.9837L123.637 17.3719C124.992 17.663 125.625 18.2453 125.625 19.1188C125.625 19.8952 125.173 20.9627 123.094 20.9627C122.191 20.9627 121.468 20.8657 121.016 20.5745C120.564 20.2834 120.022 19.7011 119.479 18.8276C119.208 18.3424 118.847 18.0512 118.666 17.8571C118.395 17.663 118.033 17.663 117.491 17.663C116.226 17.663 116.045 18.3424 116.045 18.8276C116.045 19.0217 116.045 19.3129 116.135 19.7011C116.135 20.0893 116.226 20.3804 116.226 20.6716C116.226 20.8657 116.226 21.2539 116.135 21.7391C116.135 22.2244 116.045 22.5155 116.045 22.7096C116.045 23.2919 116.226 23.8742 117.491 23.8742C118.395 23.8742 118.756 23.486 118.756 22.5155V22.0303Z" fill="#1C1C1B"/>
<path d="M42.7489 34.6467C43.9238 34.6467 45.8218 34.5497 45.8218 32.8028C45.8218 31.4441 44.6468 31.153 43.5623 31.153C43.1104 31.153 42.3874 31.153 41.8451 31.3471C41.574 31.4441 41.3932 31.4441 41.3932 31.7353C41.3932 31.9294 41.3932 32.7058 41.3932 32.8999C41.3029 34.6467 41.2125 34.6467 42.7489 34.6467ZM42.4778 35.6172C41.3029 35.6172 41.3029 35.7143 41.3029 36.8789V38.1405C41.3029 38.5287 41.2125 39.3051 41.574 39.5963C41.9355 39.8874 43.02 39.8874 43.4719 39.8874C44.1046 39.8874 44.918 39.7904 45.4602 39.4022C46.0025 39.014 46.2736 38.3346 46.2736 37.5582C46.2736 35.8113 44.7372 35.5202 43.3816 35.5202H42.4778V35.6172ZM40.128 33.6763C40.128 33.191 40.128 32.2205 40.0376 31.7353C39.9472 31.3471 39.6761 31.153 39.3146 31.153C39.0434 31.153 38.8627 31.25 38.5915 31.25C38.3204 31.25 38.1396 31.0559 38.1396 30.7648C38.1396 30.4736 38.3204 30.1825 38.7723 30.1825C39.4049 30.1825 39.7664 30.3766 40.851 30.3766C42.0259 30.3766 42.8393 30.1825 43.8334 30.1825C44.5565 30.1825 45.4602 30.2795 46.0025 30.6677C46.7255 31.153 47.087 31.9294 47.087 32.8028C47.087 33.9674 46.364 34.7438 45.3699 35.0349C46.6352 35.4231 47.5389 36.2966 47.5389 37.7523C47.5389 38.7228 47.087 39.5963 46.364 40.1786C45.641 40.7609 44.6468 40.8579 43.7431 40.8579C42.6585 40.8579 41.9355 40.6638 40.7606 40.6638C39.8568 40.6638 39.1338 40.8579 38.6819 40.8579C38.3204 40.8579 38.23 40.6638 38.1396 40.2756C38.1396 39.9845 38.3204 39.7904 38.5915 39.7904C38.8627 39.7904 39.0434 39.8874 39.3146 39.8874C39.6761 39.8874 39.9472 39.6933 40.0376 39.3051C40.128 38.8199 40.128 37.8494 40.128 37.3641V33.6763Z" fill="#1C1C1B"/>
<path d="M49.7981 35.132C49.7981 34.1615 49.6174 33.8703 49.3462 33.8703C49.0751 33.8703 48.8944 33.9674 48.7136 33.9674C48.4425 33.9674 48.2617 33.7733 48.2617 33.4821C48.2617 33.0939 48.6232 32.8998 48.9847 32.8998C49.2559 32.8998 49.527 33.0939 49.7981 33.0939C50.0693 33.0939 50.3404 32.8998 50.6115 32.8998C50.9731 32.8998 51.0634 33.191 51.0634 33.5792C51.0634 34.8408 50.9731 35.229 50.9731 36.2966V36.9759C50.9731 37.5582 50.973 38.5287 51.1538 39.014C51.3346 39.7904 52.0576 40.0815 52.7806 40.0815C53.6844 40.0815 54.4074 39.6933 54.6785 38.7228C54.8593 38.0435 54.9497 36.9759 54.9497 36.1995V35.132C54.9497 34.2585 54.6785 33.8703 54.4074 33.8703C54.1363 33.8703 53.9555 33.9674 53.7748 33.9674C53.5036 33.9674 53.3229 33.7733 53.3229 33.4821C53.3229 33.0939 53.594 32.8998 53.9555 32.8998C54.317 32.8998 54.5882 33.0939 54.8593 33.0939C55.1304 33.0939 55.4016 32.8998 55.6727 32.8998C55.9438 32.8998 56.1246 33.0939 56.1246 33.3851C56.1246 34.1615 56.1246 34.8408 56.1246 35.7143V38.6258C56.1246 39.6933 56.3053 39.8874 56.5765 39.8874C56.8476 39.8874 57.0284 39.7904 57.2091 39.7904C57.4802 39.7904 57.661 39.9845 57.661 40.2756C57.661 40.6638 57.3899 40.8579 57.0284 40.8579C56.7572 40.8579 56.4861 40.6638 56.215 40.6638C55.9438 40.6638 55.6727 40.8579 55.4016 40.8579C55.1304 40.8579 55.0401 40.5668 55.0401 39.8874C54.4978 40.7609 53.6844 41.052 52.6902 41.052C52.0576 41.052 51.3346 40.8579 50.7923 40.3727C50.1597 39.8874 49.9789 39.111 49.9789 38.3346V35.132H49.7981Z" fill="#1C1C1B"/>
<path d="M59.4682 35.132C59.4682 34.0644 59.3778 33.8703 59.0163 33.8703C58.7451 33.8703 58.5644 33.9674 58.2029 33.9674C57.9317 33.9674 57.751 33.7733 57.751 33.4821C57.751 33.0939 58.0221 32.8998 58.3836 32.8998C58.6548 32.8998 58.8355 33.0939 59.197 33.0939C59.5585 33.0939 59.7393 32.8998 60.0104 32.8998C60.3719 32.8998 60.4623 33.191 60.3719 33.8703C60.8238 33.0939 61.5468 32.7057 62.3602 32.7057C63.5352 32.7057 64.7101 33.4821 64.7101 34.8408C64.7101 35.6172 64.3486 36.3936 63.5352 36.3936C63.1736 36.3936 62.7218 36.1025 62.7218 35.6172C62.7218 35.3261 62.9929 34.9379 63.264 34.9379C63.3544 34.9379 63.3544 34.9379 63.4448 34.9379C63.5351 34.8408 63.5352 34.7438 63.5352 34.5497C63.5352 33.8703 62.8121 33.4821 62.2699 33.4821C61.1853 33.4821 60.4623 34.1615 60.4623 36.3936V38.4317C60.4623 39.5963 60.6431 39.6933 60.9142 39.6933C61.1853 39.6933 61.3661 39.5963 61.5468 39.5963C61.818 39.5963 61.9987 39.7904 61.9987 40.0815C61.9987 40.4697 61.6372 40.6638 61.3661 40.6638C60.9142 40.6638 60.4623 40.4697 59.92 40.4697C59.2874 40.4697 59.0163 40.6638 58.3836 40.6638C58.0221 40.6638 57.751 40.4697 57.751 40.0815C57.751 39.7904 57.9317 39.5963 58.2029 39.5963C58.3836 39.5963 58.6548 39.6933 58.8355 39.6933C59.1066 39.6933 59.197 39.4992 59.197 38.4317V35.132H59.4682Z" fill="#1C1C1B"/>
<path d="M70.4944 35.229C70.4944 34.2586 69.681 33.6763 68.7772 33.6763C67.8734 33.6763 67.1504 34.3556 67.1504 35.229C67.1504 36.1995 67.8734 36.7818 68.7772 36.7818C69.681 36.8789 70.4944 36.2966 70.4944 35.229ZM67.06 40.1786C66.6082 40.3727 66.337 40.7609 66.337 41.3432C66.337 41.9255 66.7889 42.3137 67.2408 42.5078C67.6927 42.7019 68.3253 42.7019 68.7772 42.7019C69.5906 42.7019 71.3078 42.5078 71.3078 41.2461C71.3078 39.9845 69.7714 39.8874 68.8676 39.8874C68.3253 39.8874 67.6023 39.9845 67.06 40.1786ZM68.4157 38.8199C69.2291 38.8199 70.0425 38.8199 70.7655 39.111C71.6693 39.4022 72.4827 40.1786 72.4827 41.2461C72.4827 43.1871 70.2233 43.6724 68.7772 43.6724C67.3312 43.6724 65.1621 43.2842 65.1621 41.2461C65.1621 40.3727 65.7044 39.6933 66.5178 39.4022C65.8851 39.111 65.3429 38.7228 65.3429 37.9464C65.3429 37.17 65.8851 36.5877 66.5178 36.3936C66.2466 36.0054 66.1563 35.5202 66.1563 35.0349C66.1563 33.4822 67.5119 32.5117 68.8676 32.5117C69.1387 32.5117 69.4099 32.5117 69.7714 32.6087C69.7714 31.6382 70.5848 31.0559 71.3982 31.0559C72.2116 31.0559 73.025 31.5412 73.025 32.4146C73.025 32.8999 72.6635 33.2881 72.2116 33.2881C71.9404 33.2881 71.6693 32.9969 71.6693 32.7058C71.6693 32.5117 71.8501 32.3176 71.9404 32.2205C71.7597 32.0264 71.5789 31.9294 71.3078 31.9294C70.7655 31.9294 70.4944 32.4146 70.4944 32.9969C71.2174 33.4822 71.5789 34.2585 71.5789 35.132C71.5789 36.7818 70.2233 37.7523 68.8676 37.7523C68.3253 37.7523 67.7831 37.5582 67.2408 37.3641C67.1504 37.3641 66.9697 37.2671 66.8793 37.2671C66.6082 37.2671 66.337 37.6553 66.337 37.9464C66.337 38.7228 67.3312 38.7228 67.8734 38.7228H68.4157V38.8199Z" fill="#1C1C1B"/>
<path d="M78.7191 35.9084C78.6287 34.6467 77.9961 33.6762 76.7308 33.6762C75.4655 33.6762 74.6521 34.6467 74.5617 35.9084H78.7191ZM74.381 37.073C74.2906 38.6258 75.104 40.0815 76.7308 40.0815C77.7249 40.0815 78.448 39.5963 78.7191 38.5287C78.8095 38.2376 78.8999 37.8494 79.2614 37.8494C79.5325 37.8494 79.8036 38.0435 79.8036 38.4317C79.8036 39.111 79.3517 39.7904 78.9902 40.1786C78.3576 40.7609 77.4538 41.052 76.6404 41.052C74.381 41.052 73.2061 39.2081 73.2061 36.9759C73.2061 35.9084 73.4772 34.8408 74.0195 33.9674C74.6521 33.0939 75.6463 32.6087 76.6404 32.6087C78.5383 32.6087 79.894 34.0644 79.894 36.1995C79.894 36.9759 79.894 37.073 79.171 37.073H74.381Z" fill="#1C1C1B"/>
<path d="M82.4242 35.132C82.4242 34.0644 82.3338 33.8703 81.9723 33.8703C81.7012 33.8703 81.5204 33.9674 81.1589 33.9674C80.8878 33.9674 80.707 33.7733 80.707 33.4821C80.707 33.0939 80.9782 32.8998 81.3397 32.8998C81.6108 32.8998 81.7916 33.0939 82.1531 33.0939C82.5146 33.0939 82.6953 32.8998 82.9665 32.8998C83.328 32.8998 83.4184 33.191 83.328 33.8703C83.7799 33.0939 84.5029 32.7057 85.3163 32.7057C86.4912 32.7057 87.6661 33.4821 87.6661 34.8408C87.6661 35.6172 87.3046 36.3936 86.4912 36.3936C86.1297 36.3936 85.6778 36.1025 85.6778 35.6172C85.6778 35.3261 85.9489 34.9379 86.2201 34.9379C86.3105 34.9379 86.3104 34.9379 86.4008 34.9379C86.4912 34.8408 86.4912 34.7438 86.4912 34.5497C86.4912 33.8703 85.7682 33.4821 85.2259 33.4821C84.1414 33.4821 83.4184 34.1615 83.4184 36.3936V38.4317C83.4184 39.5963 83.5991 39.6933 83.8703 39.6933C84.1414 39.6933 84.3221 39.5963 84.5029 39.5963C84.774 39.5963 84.9548 39.7904 84.9548 40.0815C84.9548 40.4697 84.6837 40.6638 84.3221 40.6638C83.8703 40.6638 83.4184 40.4697 82.8761 40.4697C82.2434 40.4697 81.9723 40.6638 81.3397 40.6638C80.9782 40.6638 80.707 40.4697 80.707 40.0815C80.707 39.7904 80.8878 39.5963 81.1589 39.5963C81.3397 39.5963 81.6108 39.6933 81.7916 39.6933C82.0627 39.6933 82.1531 39.4992 82.1531 38.4317V35.132H82.4242Z" fill="#1C1C1B"/>
<path d="M98.9636 33.6763C98.9636 33.191 98.9636 32.2205 98.8732 31.7353C98.7829 31.3471 98.5117 31.153 98.1502 31.153C97.8791 31.153 97.6983 31.25 97.4272 31.25C97.1561 31.25 96.9753 31.0559 96.9753 30.7648C96.9753 30.3766 97.2464 30.1825 97.5176 30.1825C98.1502 30.1825 98.6925 30.3766 99.4155 30.3766C100.139 30.3766 100.59 30.1825 101.313 30.1825C101.675 30.1825 101.946 30.3766 101.946 30.7648C101.946 31.0559 101.765 31.25 101.494 31.25C101.223 31.25 101.042 31.153 100.771 31.153C100.41 31.153 100.139 31.3471 100.048 31.7353C99.9578 32.2205 99.9578 33.191 99.9578 33.6763V34.6467C99.9578 35.8113 100.048 38.0435 99.6866 39.014C99.054 40.4697 97.6983 41.1491 96.2523 41.1491C94.4447 41.1491 92.7275 40.1786 92.7275 38.0435C92.7275 36.7818 93.6313 35.7143 94.8062 35.7143C95.5293 35.7143 96.2523 36.1995 96.2523 36.9759C96.2523 37.4612 95.8908 37.9464 95.4389 37.9464C95.0774 37.9464 94.7159 37.6553 94.7159 37.2671C94.7159 37.073 94.8062 36.9759 94.8966 36.8789C94.8062 36.7818 94.8062 36.7818 94.6255 36.7818C94.1736 36.7818 93.8121 37.5582 93.8121 37.9464C93.8121 39.3051 94.8966 40.0815 96.0715 40.0815C96.8849 40.0815 97.7887 39.7904 98.2406 39.014C98.6925 38.1405 98.6925 37.17 98.6925 36.1995V33.6763H98.9636Z" fill="#1C1C1B"/>
<path d="M105.561 40.0815C107.369 40.0815 107.911 38.4317 107.911 36.7818C107.911 36.1025 107.73 35.229 107.369 34.5497C107.007 33.8703 106.284 33.6762 105.652 33.6762C104.838 33.6762 104.206 33.9674 103.844 34.7438C103.483 35.3261 103.392 36.1995 103.392 36.8789C103.302 38.3346 103.844 40.0815 105.561 40.0815ZM105.561 32.7057C106.555 32.7057 107.55 32.9969 108.182 33.8703C108.815 34.7438 109.086 35.8113 109.086 36.8789C109.086 39.2081 107.911 41.1491 105.561 41.1491C103.302 41.1491 102.127 39.2081 102.127 36.9759C102.127 34.6467 103.211 32.7057 105.561 32.7057Z" fill="#1C1C1B"/>
<path d="M112.611 31.153C112.611 31.6382 112.249 32.0264 111.797 32.0264C111.345 32.0264 110.984 31.6382 110.984 31.153C110.984 30.6677 111.345 30.2795 111.797 30.2795C112.249 30.2795 112.611 30.6677 112.611 31.153ZM111.526 35.132C111.526 34.0644 111.436 33.8703 111.074 33.8703C110.803 33.8703 110.622 33.9674 110.442 33.9674C110.171 33.9674 109.99 33.7733 109.99 33.4821C109.99 33.094 110.261 32.8999 110.532 32.8999C110.894 32.8999 111.165 33.094 111.436 33.094C111.797 33.094 111.978 32.8999 112.249 32.8999C112.611 32.8999 112.611 33.2881 112.611 33.5792V39.3051C112.611 39.6933 112.701 39.9845 112.972 39.9845C113.153 39.9845 113.334 39.8874 113.515 39.8874C113.786 39.8874 113.966 40.0815 113.966 40.3727C113.966 40.7609 113.695 40.955 113.334 40.955C112.882 40.955 112.43 40.7609 111.888 40.7609C111.255 40.7609 110.894 40.955 110.351 40.955C110.08 40.955 109.899 40.6638 109.899 40.3727C109.899 40.0815 110.08 39.8874 110.351 39.8874C110.532 39.8874 110.803 39.9845 110.984 39.9845C111.345 39.9845 111.436 39.6933 111.436 38.7228V35.132H111.526Z" fill="#1C1C1B"/>
<path d="M116.045 35.132C116.045 34.0644 115.955 33.8703 115.593 33.8703C115.322 33.8703 115.142 33.9674 114.961 33.9674C114.69 33.9674 114.509 33.7733 114.509 33.4821C114.509 33.191 114.78 32.8998 115.051 32.8998C115.322 32.8998 115.413 33.0939 115.865 33.0939C116.316 33.0939 116.407 32.8998 116.768 32.8998C117.039 32.8998 117.039 33.191 117.039 33.8703C117.582 33.0939 118.576 32.7057 119.389 32.7057C120.112 32.7057 120.926 32.9969 121.468 33.5792C122.101 34.1615 122.101 34.9379 122.101 35.8113V38.6258C122.101 39.5963 122.191 39.8874 122.553 39.8874C122.824 39.8874 123.004 39.7904 123.185 39.7904C123.456 39.7904 123.637 39.9845 123.637 40.2756C123.637 40.6638 123.366 40.8579 123.004 40.8579C122.553 40.8579 122.191 40.6638 121.558 40.6638C120.835 40.6638 120.564 40.8579 120.022 40.8579C119.66 40.8579 119.389 40.6638 119.389 40.2756C119.389 39.9845 119.57 39.7904 119.841 39.7904C120.022 39.7904 120.293 39.8874 120.474 39.8874C120.835 39.8874 120.926 39.5963 120.926 38.6258V36.3936C120.926 35.4231 120.926 35.132 120.655 34.6467C120.383 34.0644 119.66 33.7733 119.118 33.7733C118.486 33.7733 117.762 34.0644 117.401 34.6467C117.22 34.9379 117.039 35.3261 117.039 36.7818V38.6258C117.039 39.5963 117.13 39.8874 117.491 39.8874C117.762 39.8874 117.943 39.7904 118.124 39.7904C118.395 39.7904 118.576 39.9845 118.576 40.2756C118.576 40.6638 118.305 40.8579 117.943 40.8579C117.491 40.8579 117.13 40.6638 116.497 40.6638C115.774 40.6638 115.503 40.8579 114.961 40.8579C114.599 40.8579 114.328 40.6638 114.328 40.2756C114.328 39.9845 114.509 39.7904 114.78 39.7904C114.961 39.7904 115.232 39.8874 115.413 39.8874C115.774 39.8874 115.865 39.5963 115.865 38.6258V35.132H116.045Z" fill="#1C1C1B"/>
<path d="M124.992 34.5497C124.992 34.0644 124.902 33.9674 124.45 33.9674C123.908 33.9674 123.637 33.8703 123.637 33.3851C123.637 33.094 123.908 32.8028 124.179 32.8028H124.721C124.992 32.8028 124.992 32.7058 124.992 32.3176V31.0559C124.992 30.6677 125.083 30.2795 125.535 30.2795C125.987 30.2795 126.077 30.6677 126.077 31.0559V32.6087C126.077 32.8028 126.077 32.8999 126.348 32.8999H127.794C128.336 32.8999 128.517 33.094 128.517 33.4821C128.517 33.7733 128.427 34.0644 127.704 34.0644H126.438C126.077 34.0644 126.077 34.0644 126.077 34.3556V38.0435C126.077 39.4022 126.348 39.8874 127.161 39.8874C128.065 39.8874 128.156 39.111 128.156 38.3346V37.8494C128.156 37.17 128.336 36.8789 128.698 36.8789C129.059 36.8789 129.24 37.2671 129.24 37.6553C129.24 39.4022 128.969 40.955 126.981 40.955C126.348 40.955 125.625 40.6638 125.264 39.9845C125.083 39.4992 124.992 39.2081 124.992 37.9464V34.5497Z" fill="#1C1C1B"/>
</svg>
