<svg width="131" height="45" viewBox="0 0 131 45" fill="none" xmlns="http://www.w3.org/2000/svg">
<path d="M9.94155 24.1584C10.8453 24.1584 11.9299 24.2554 13.1952 24.3525C14.0086 24.4495 14.7316 24.4495 15.2738 24.4495C16.7199 24.4495 17.3525 23.6731 17.3525 22.1203C17.3525 20.9557 16.8103 20.3734 15.7257 20.3734C15.545 20.3734 15.1835 20.3734 14.7316 20.4705C14.2797 20.5675 13.9182 20.5675 13.647 20.5675C13.0144 20.5675 12.2914 20.1793 12.2914 18.2384V8.63043C12.2914 7.75698 12.4721 7.07764 12.7433 6.68944C13.0144 6.30124 13.5567 6.10714 14.2797 6.10714C15.7257 6.10714 15.9065 7.07764 15.9065 7.56288C15.9065 7.75698 15.9065 8.14518 15.8161 8.63043C15.7257 9.01863 15.7257 9.40683 15.7257 9.69798C15.7257 11.4449 16.3584 12.3183 17.8044 12.3183C18.4371 12.3183 18.889 12.1242 19.3408 11.639C19.7024 11.2508 19.8831 10.5714 19.8831 9.79503C19.8831 9.69798 19.8831 9.11568 19.7927 8.24223C19.7024 7.46583 19.7024 6.98059 19.7024 6.59239C19.7024 6.20419 19.7024 5.71894 19.7927 5.03959C19.8831 4.45729 19.8831 3.97205 19.8831 3.58385C19.8831 2.80745 19.5216 2.41925 18.7082 2.41925C18.2563 2.41925 17.6237 2.41925 16.9006 2.5163C15.3642 2.7104 12.924 2.80745 9.94155 2.80745C6.95909 2.80745 4.60927 2.7104 2.89209 2.5163C2.16907 2.5163 1.53642 2.41925 1.08453 2.41925C0.361511 2.41925 0 2.80745 0 3.58385C0 3.875 0 4.36024 0.0903778 4.84549C0.180756 5.71894 0.180756 6.20419 0.180756 6.49534C0.180756 6.98059 0.180756 7.56288 0.0903778 8.14518C0 9.01863 0 9.50388 0 9.79503C0 10.5714 0.180756 11.1537 0.542267 11.639C0.903778 12.0272 1.44604 12.2213 2.07869 12.2213C3.52473 12.2213 4.15738 11.3478 4.15738 9.50388C4.15738 9.30978 4.15738 9.01863 4.067 8.53338C3.97662 8.14518 3.88624 7.75698 3.88624 7.56288C3.88624 6.88354 4.15738 6.10714 5.6938 6.10714C6.5072 6.10714 7.50135 6.59239 7.50135 8.63043V18.2384C7.50135 20.1793 6.77833 20.5675 6.14569 20.5675C5.87456 20.5675 5.51304 20.5675 5.06115 20.4705C4.60927 20.3734 4.33813 20.3734 4.067 20.3734C2.98247 20.3734 2.4402 20.9557 2.4402 22.3144C2.4402 23.7702 3.07284 24.4495 4.51889 24.4495C5.15153 24.4495 5.87456 24.4495 6.59758 24.3525C7.95324 24.1584 9.03778 24.1584 9.94155 24.1584Z" fill="#054D94"/>
<path d="M28.4688 21.344C27.3842 21.344 26.5708 20.8587 26.0286 19.9853C25.4863 19.1118 25.2152 17.8502 25.2152 16.2974C25.2152 14.7446 25.4863 13.4829 26.0286 12.6095C26.5708 11.639 27.3842 11.1537 28.4688 11.1537C30.6378 11.1537 31.7224 12.9006 31.7224 16.2974C31.632 19.5971 30.5475 21.344 28.4688 21.344ZM28.3784 7.5629C25.9382 7.5629 24.0403 8.33929 22.6846 9.79504C21.3289 11.3478 20.6963 13.4829 20.6963 16.2003C20.6963 18.9177 21.4193 21.0528 22.6846 22.6056C24.0403 24.0613 25.9382 24.8377 28.4688 24.8377C30.8186 24.8377 32.7165 24.0613 34.0722 22.5085C35.4279 20.9558 36.0605 18.8207 36.0605 16.0062C36.0605 13.3859 35.3375 11.2508 33.9818 9.79504C32.7165 8.33929 30.8186 7.5629 28.3784 7.5629Z" fill="#054D94"/>
<path d="M56.9382 11.4449C57.842 11.4449 58.4746 11.736 58.7457 12.4154C59.0169 12.9977 59.1976 13.9682 59.1976 15.521V19.0148C59.1976 20.1794 59.1073 20.4705 59.1073 20.5676C59.0169 20.8587 58.6554 21.0528 58.2035 21.1499C57.842 21.2469 57.2997 21.441 57.2997 22.6056C57.2997 23.1879 57.4805 23.5761 57.7516 23.9643C58.0227 24.3525 58.3842 24.4495 58.7457 24.4495C59.0169 24.4495 59.3784 24.4495 60.011 24.3525C60.6437 24.2554 61.2763 24.2554 61.9993 24.2554C62.5416 24.2554 62.9935 24.2554 63.355 24.3525L64.078 24.4495C64.8011 24.5466 64.8914 24.5466 64.9818 24.5466C65.4337 24.5466 65.7952 24.3525 66.0663 23.9643C66.3375 23.5761 66.5182 23.0908 66.5182 22.4115C66.5182 21.1499 65.976 20.9558 65.4337 20.9558C65.2529 20.9558 65.1626 20.9558 65.0722 21.0528C64.8011 21.1499 64.6203 21.2469 64.4395 21.2469C63.5358 21.2469 63.5358 19.6941 63.5358 19.2089V14.0652C63.5358 12.0272 63.1743 10.5714 62.632 9.60094C61.7282 8.24224 60.3725 7.65995 58.4746 7.65995C57.5708 7.65995 56.7574 7.85405 56.0344 8.1452C55.3114 8.53339 54.4076 9.11569 53.4135 10.0862L52.9616 10.2803L52.7808 9.98914C51.7867 8.33929 50.6117 7.5629 49.0753 7.5629C47.2678 7.5629 45.5506 8.53339 44.1045 10.4744L43.6527 11.1537V8.82454C43.6527 8.24224 43.4719 8.1452 43.1104 8.1452C42.8393 8.1452 42.5681 8.1452 42.0259 8.24224C41.4836 8.33929 41.1221 8.33929 40.851 8.33929C40.5798 8.33929 40.2183 8.33929 39.8568 8.24224C39.1338 8.1452 38.953 8.04815 38.8626 8.04815C38.4108 8.04815 38.0492 8.24224 37.6877 8.53339C37.4166 8.92159 37.2358 9.40684 37.2358 9.98914C37.2358 11.3478 37.8685 11.5419 38.4108 11.5419C38.5011 11.5419 38.5915 11.5419 38.8626 11.4449C39.2241 11.3478 39.3145 11.3478 39.4049 11.3478C40.1279 11.3478 40.2183 12.5124 40.2183 13.58V19.0148C40.2183 19.9853 40.1279 21.1499 39.4049 21.1499C39.2241 21.1499 39.0434 21.1499 38.8626 21.0528C38.8626 20.9558 38.6819 20.9558 38.5011 20.9558C37.9589 20.9558 37.3262 21.1499 37.3262 22.6056C37.3262 23.1879 37.507 23.6731 37.7781 23.9643C38.0492 24.3525 38.4107 24.4495 38.953 24.4495C39.1338 24.4495 39.676 24.3525 40.4894 24.2554C41.0317 24.1584 41.4836 24.1584 42.0259 24.1584C42.3874 24.1584 42.9296 24.1584 43.6527 24.2554C44.3757 24.3525 44.8276 24.3525 45.1891 24.3525C45.8217 24.3525 46.6351 24.1584 46.6351 22.5085C46.6351 21.6351 46.364 21.1499 45.641 21.0528C45.1891 20.9558 45.0083 20.8587 44.8276 20.6646C44.7372 20.4705 44.6468 20.2764 44.6468 19.7912V15.7151C44.6468 12.8036 45.641 11.3478 47.6293 11.3478C48.4427 11.3478 49.0753 11.639 49.3465 12.2213C49.6176 12.8036 49.7983 13.677 49.7983 15.0357V18.8207C49.7983 18.9177 49.7983 19.3059 49.7983 19.8882C49.7983 20.4705 49.5272 20.8587 48.9849 20.9558C48.6234 21.0528 48.2619 21.344 48.2619 22.4115C48.2619 24.0613 48.9849 24.2554 49.5272 24.2554C49.7983 24.2554 50.0695 24.2554 50.6117 24.1584C51.154 24.0613 51.5155 24.0613 51.7867 24.0613C52.0578 24.0613 52.5097 24.1584 53.2327 24.2554C53.5942 24.3525 53.9557 24.3525 54.1365 24.3525C54.7691 24.3525 55.5825 24.1584 55.5825 22.4115C55.5825 21.344 55.1306 21.1499 54.8595 21.0528C54.4076 20.9558 54.2269 20.6646 54.1365 20.4705C54.0461 20.2764 54.0461 19.9853 54.0461 18.9177V15.8121C53.9557 12.9977 54.9499 11.4449 56.9382 11.4449Z" fill="#054D94"/>
<path d="M95.3486 20.9558C95.1679 20.9558 95.0775 20.9558 94.9871 21.0528C94.716 21.1499 94.5353 21.2469 94.3545 21.2469L93.5411 20.1794C93.4507 19.7912 93.4507 19.403 93.4507 19.2089V14.0652C93.4507 12.0272 93.0892 10.5714 92.5469 9.60094C91.6432 8.24224 90.2875 7.65994 88.3896 7.65994C87.4858 7.65994 86.6724 7.85404 85.9494 8.14519C85.2263 8.53339 84.3226 9.11569 83.3284 10.0862L83.0573 10.2803L82.8765 9.98914C81.8824 8.43634 80.7075 7.65994 79.171 7.65994C77.3635 7.65994 75.6463 8.63044 74.2003 10.5714L73.7484 11.2508V8.82454C73.7484 8.24224 73.5676 8.14519 73.2061 8.14519C72.935 8.14519 72.6638 8.14519 72.1216 8.24224C71.5793 8.33929 71.2178 8.33929 70.9467 8.33929C70.6755 8.33929 70.314 8.33929 69.9525 8.24224C69.2295 8.14519 69.0487 8.04814 68.9583 8.04814C68.5065 8.04814 68.1449 8.24224 67.7834 8.53339C67.5123 8.92159 67.3315 9.40684 67.3315 9.98914C67.3315 11.3478 67.9642 11.5419 68.5065 11.5419C68.5968 11.5419 68.6872 11.5419 68.9583 11.4449C69.3199 11.3478 69.4102 11.3478 69.5006 11.3478C70.2236 11.3478 70.314 12.5124 70.314 13.58V19.0148C70.314 19.9853 70.2236 21.1499 69.5006 21.1499C69.3199 21.1499 69.1391 21.1499 68.9583 21.0528C68.868 20.9558 68.6872 20.9558 68.5968 20.9558C68.0546 20.9558 67.4219 21.1499 67.4219 22.6056C67.4219 23.1879 67.6027 23.6731 67.8738 23.9643C68.1449 24.3525 68.5065 24.4495 69.0487 24.4495C69.2295 24.4495 69.7717 24.3525 70.5851 24.2554C71.1274 24.1584 71.5793 24.1584 72.1216 24.1584C72.4831 24.1584 73.0253 24.1584 73.7484 24.2554C74.4714 24.3525 74.9233 24.3525 75.2848 24.3525C75.9174 24.3525 76.7308 24.1584 76.7308 22.5085C76.7308 21.6351 76.4597 21.1499 75.7367 21.0528C75.2848 20.9558 75.104 20.8587 74.9233 20.6646C74.8329 20.4705 74.7425 20.2764 74.7425 19.7912V15.7151C74.7425 12.8036 75.7367 11.3478 77.725 11.3478C78.5384 11.3478 79.171 11.639 79.4422 12.2213C79.7133 12.8036 79.8941 13.677 79.8941 15.0357V18.8207C79.8941 18.9177 79.8941 19.3059 79.8941 19.8882C79.8941 20.4705 79.6229 20.8587 79.0807 20.9558C78.7191 21.0528 78.3576 21.3439 78.3576 22.4115C78.3576 24.0613 79.0807 24.2554 79.6229 24.2554C79.8941 24.2554 80.1652 24.2554 80.7075 24.1584C81.2497 24.0613 81.6112 24.0613 81.8824 24.0613C82.1535 24.0613 82.6054 24.1584 83.3284 24.2554C83.6899 24.3525 84.0514 24.3525 84.2322 24.3525C84.8648 24.3525 85.6782 24.1584 85.6782 22.4115C85.6782 21.3439 85.2263 21.1499 84.9552 21.0528C84.5033 20.9558 84.3226 20.6646 84.2322 20.4705C84.1418 20.3735 84.0514 19.9853 84.0514 18.9177V15.8121C84.0514 12.9006 85.0456 11.4449 86.9435 11.4449L89.203 14.4534C89.203 14.7446 89.203 15.1328 89.203 15.521V19.0148C89.203 20.1794 89.1126 20.4705 89.1126 20.5676C89.0222 20.8587 88.6607 21.0528 88.2088 21.1499C87.8473 21.2469 87.305 21.441 87.305 22.6056C87.305 23.1879 87.4858 23.5761 87.7569 23.9643C88.028 24.3525 88.3896 24.4495 88.7511 24.4495C89.0222 24.4495 89.3837 24.4495 90.0164 24.3525C90.649 24.2554 91.2817 24.2554 92.0047 24.2554C92.5469 24.2554 92.9988 24.2554 93.3603 24.3525L94.0834 24.4495C94.8064 24.5466 94.8968 24.5466 94.9871 24.5466C95.439 24.5466 95.8005 24.3525 96.0717 23.9643C96.3428 23.5761 96.5236 23.0908 96.5236 22.4115C96.4332 21.0528 95.8005 20.9558 95.3486 20.9558Z" fill="#054D94"/>
<path d="M102.398 0.672363C101.675 0.672363 101.042 0.963512 100.59 1.44876C100.048 2.03106 99.8674 2.61336 99.8674 3.38975C99.8674 4.16615 100.139 4.74845 100.59 5.33075C101.133 5.91305 101.675 6.10715 102.398 6.10715C103.121 6.10715 103.754 5.816 104.206 5.33075C104.748 4.74845 104.929 4.16615 104.929 3.38975C104.929 2.61336 104.657 1.93401 104.206 1.44876C103.754 0.963512 103.121 0.672363 102.398 0.672363ZM102.398 24.1584C103.121 24.1584 103.844 24.1584 104.386 24.2554C105.29 24.3525 105.923 24.4495 106.104 24.4495C106.736 24.4495 107.64 24.2554 107.64 22.4115C107.64 21.1498 107.098 20.9557 106.646 20.9557C106.555 20.9557 106.375 20.9557 106.194 21.0528C105.832 21.1498 105.742 21.1498 105.652 21.1498C104.748 21.1498 104.748 19.5971 104.748 19.1118V9.11569C104.748 8.14519 104.296 8.14519 104.115 8.14519C104.115 8.14519 103.934 8.14519 103.211 8.24224C102.76 8.33929 102.217 8.33929 101.856 8.33929C101.404 8.33929 100.771 8.24224 100.048 8.14519C99.5963 8.04814 99.3252 8.04814 99.054 8.04814C98.5118 8.04814 98.1503 8.24224 97.8791 8.53339C97.608 8.92159 97.4272 9.30978 97.4272 9.98913C97.4272 11.3478 98.0599 11.5419 98.6022 11.5419C98.6925 11.5419 98.8733 11.5419 99.054 11.4449C99.5059 11.2508 99.5963 11.2508 99.6867 11.2508C100.41 11.2508 100.5 12.4154 100.5 13.4829V19.0148C100.5 19.5971 100.5 21.1498 99.6867 21.1498C99.5963 21.1498 99.5059 21.1498 99.4156 21.1498L98.6022 20.9557C98.0599 20.9557 97.4272 21.1498 97.4272 22.6056C97.4272 23.1879 97.608 23.6731 97.8791 23.9643C98.1503 24.3525 98.6022 24.4495 99.054 24.4495C99.4156 24.4495 99.9578 24.4495 100.681 24.3525C101.494 24.2554 102.037 24.1584 102.398 24.1584Z" fill="#054D94"/>
<path d="M111.526 2.03107C110.803 2.03107 110.171 2.32222 109.628 2.90451C109.086 3.48681 108.815 4.26321 108.815 5.13666C108.815 6.68945 109.538 7.65995 110.894 8.04815C111.617 8.3393 111.797 8.7275 111.797 9.01864C111.797 9.40684 111.617 10.2803 109.899 12.9006C109.538 13.58 109.267 14.0652 109.267 14.6475C109.267 15.4239 109.538 15.7151 110.171 15.7151C110.532 15.7151 110.984 15.4239 111.436 14.7446C113.605 11.8331 114.689 9.11569 114.689 6.49535C114.689 5.23371 114.328 4.16616 113.695 3.29271C113.243 2.41927 112.43 2.03107 111.526 2.03107Z" fill="#054D94"/>
<path d="M118.756 22.7026L119.208 23.0908C120.654 24.2554 122.281 24.9348 123.998 24.9348C125.715 24.9348 127.252 24.3525 128.336 23.2849C129.511 22.2174 130.053 20.8587 130.053 19.3059C130.053 18.3354 129.782 17.462 129.33 16.6856C128.969 16.1033 128.427 15.618 127.794 15.3269C127.161 15.0357 126.167 14.7446 124.812 14.4534C123.094 14.1623 122.01 13.8711 121.648 13.677C121.196 13.4829 120.925 12.9977 120.925 12.4154C120.925 11.639 121.287 10.7655 123.004 10.7655C124.089 10.7655 125.083 11.3478 125.806 12.4154C126.348 13.1918 126.981 13.58 127.613 13.58C128.607 13.58 128.969 13.0947 128.969 12.1242V11.2508C128.969 10.9596 128.969 10.7655 128.969 10.6685C128.969 10.2803 128.969 9.89209 129.059 9.50389C129.15 9.21274 129.15 8.92159 129.15 8.63044C129.15 8.24224 128.969 7.757 127.794 7.757C126.619 7.757 126.438 8.43634 126.348 8.92159L126.438 9.30979L126.077 8.92159C124.992 8.04815 123.727 7.5629 122.191 7.5629C120.654 7.5629 119.299 8.04815 118.304 9.01864C117.31 9.98914 116.858 11.2508 116.858 12.9006C116.858 13.7741 117.039 14.5505 117.401 15.2298C117.762 15.9092 118.214 16.3944 118.756 16.6856C119.389 16.9767 120.383 17.3649 121.829 17.6561L123.637 18.0443C124.992 18.3354 125.625 18.9177 125.625 19.7912C125.625 20.5676 125.173 21.6351 123.094 21.6351C122.191 21.6351 121.468 21.5381 121.016 21.2469C120.564 20.9558 120.022 20.3735 119.479 19.5C119.208 19.0148 118.847 18.7236 118.666 18.5295C118.395 18.3354 118.033 18.3354 117.491 18.3354C116.226 18.3354 116.045 19.0148 116.045 19.5C116.045 19.6941 116.045 19.9853 116.135 20.3735C116.135 20.7617 116.226 21.0528 116.226 21.344C116.226 21.5381 116.226 21.9263 116.135 22.4115C116.135 22.8967 116.045 23.1879 116.045 23.382C116.045 23.9643 116.226 24.5466 117.491 24.5466C118.395 24.5466 118.756 24.1584 118.756 23.1879V22.7026Z" fill="#054D94"/>
<path d="M42.7489 35.3191C43.9238 35.3191 45.8218 35.2221 45.8218 33.4752C45.8218 32.1165 44.6468 31.8253 43.5623 31.8253C43.1104 31.8253 42.3874 31.8253 41.8451 32.0194C41.574 32.1165 41.3932 32.1165 41.3932 32.4076C41.3932 32.6017 41.3932 33.3781 41.3932 33.5722C41.3029 35.3191 41.2125 35.3191 42.7489 35.3191ZM42.4778 36.2896C41.3029 36.2896 41.3029 36.3867 41.3029 37.5513V38.8129C41.3029 39.2011 41.2125 39.9775 41.574 40.2686C41.9355 40.5598 43.02 40.5598 43.4719 40.5598C44.1046 40.5598 44.918 40.4627 45.4602 40.0745C46.0025 39.6863 46.2736 39.007 46.2736 38.2306C46.2736 36.4837 44.7372 36.1926 43.3816 36.1926H42.4778V36.2896ZM40.128 34.3486C40.128 33.8634 40.128 32.8929 40.0376 32.4076C39.9472 32.0194 39.6761 31.8253 39.3146 31.8253C39.0434 31.8253 38.8627 31.9224 38.5915 31.9224C38.3204 31.9224 38.1396 31.7283 38.1396 31.4371C38.1396 31.146 38.3204 30.8548 38.7723 30.8548C39.4049 30.8548 39.7664 31.0489 40.851 31.0489C42.0259 31.0489 42.8393 30.8548 43.8334 30.8548C44.5565 30.8548 45.4602 30.9519 46.0025 31.3401C46.7255 31.8253 47.087 32.6017 47.087 33.4752C47.087 34.6398 46.364 35.4162 45.3699 35.7073C46.6352 36.0955 47.5389 36.969 47.5389 38.4247C47.5389 39.3952 47.087 40.2686 46.364 40.8509C45.641 41.4332 44.6468 41.5303 43.7431 41.5303C42.6585 41.5303 41.9355 41.3362 40.7606 41.3362C39.8568 41.3362 39.1338 41.5303 38.6819 41.5303C38.3204 41.5303 38.23 41.3362 38.1396 40.948C38.1396 40.6568 38.3204 40.4627 38.5915 40.4627C38.8627 40.4627 39.0434 40.5598 39.3146 40.5598C39.6761 40.5598 39.9472 40.3657 40.0376 39.9775C40.128 39.4922 40.128 38.5218 40.128 38.0365V34.3486Z" fill="#054D94"/>
<path d="M49.7981 35.8043C49.7981 34.8338 49.6174 34.5427 49.3462 34.5427C49.0751 34.5427 48.8944 34.6397 48.7136 34.6397C48.4425 34.6397 48.2617 34.4457 48.2617 34.1545C48.2617 33.7663 48.6232 33.5722 48.9847 33.5722C49.2559 33.5722 49.527 33.7663 49.7981 33.7663C50.0693 33.7663 50.3404 33.5722 50.6115 33.5722C50.9731 33.5722 51.0634 33.8634 51.0634 34.2516C51.0634 35.5132 50.9731 35.9014 50.9731 36.9689V37.6483C50.9731 38.2306 50.973 39.2011 51.1538 39.6863C51.3346 40.4627 52.0576 40.7539 52.7806 40.7539C53.6844 40.7539 54.4074 40.3657 54.6785 39.3952C54.8593 38.7158 54.9497 37.6483 54.9497 36.8719V35.8043C54.9497 34.9309 54.6785 34.5427 54.4074 34.5427C54.1363 34.5427 53.9555 34.6397 53.7748 34.6397C53.5036 34.6397 53.3229 34.4457 53.3229 34.1545C53.3229 33.7663 53.594 33.5722 53.9555 33.5722C54.317 33.5722 54.5882 33.7663 54.8593 33.7663C55.1304 33.7663 55.4016 33.5722 55.6727 33.5722C55.9438 33.5722 56.1246 33.7663 56.1246 34.0575C56.1246 34.8339 56.1246 35.5132 56.1246 36.3866V39.2981C56.1246 40.3657 56.3053 40.5598 56.5765 40.5598C56.8476 40.5598 57.0284 40.4627 57.2091 40.4627C57.4802 40.4627 57.661 40.6568 57.661 40.948C57.661 41.3362 57.3899 41.5303 57.0284 41.5303C56.7572 41.5303 56.4861 41.3362 56.215 41.3362C55.9438 41.3362 55.6727 41.5303 55.4016 41.5303C55.1304 41.5303 55.0401 41.2391 55.0401 40.5598C54.4978 41.4332 53.6844 41.7244 52.6902 41.7244C52.0576 41.7244 51.3346 41.5303 50.7923 41.045C50.1597 40.5598 49.9789 39.7834 49.9789 39.007V35.8043H49.7981Z" fill="#054D94"/>
<path d="M59.4686 35.8044C59.4686 34.7368 59.3783 34.5427 59.0168 34.5427C58.7456 34.5427 58.5649 34.6398 58.2034 34.6398C57.9322 34.6398 57.7515 34.4457 57.7515 34.1545C57.7515 33.7663 58.0226 33.5722 58.3841 33.5722C58.6552 33.5722 58.836 33.7663 59.1975 33.7663C59.559 33.7663 59.7398 33.5722 60.0109 33.5722C60.3724 33.5722 60.4628 33.8634 60.3724 34.5427C60.8243 33.7663 61.5473 33.3781 62.3607 33.3781C63.5356 33.3781 64.7105 34.1545 64.7105 35.5132C64.7105 36.2896 64.349 37.066 63.5356 37.066C63.1741 37.066 62.7222 36.7749 62.7222 36.2896C62.7222 35.9985 62.9934 35.6103 63.2645 35.6103C63.3549 35.6103 63.3549 35.6103 63.4453 35.6103C63.5356 35.5132 63.5356 35.4162 63.5356 35.2221C63.5356 34.5427 62.8126 34.1545 62.2704 34.1545C61.1858 34.1545 60.4628 34.8339 60.4628 37.066V39.104C60.4628 40.2686 60.6436 40.3657 60.9147 40.3657C61.1858 40.3657 61.3666 40.2686 61.5473 40.2686C61.8185 40.2686 61.9992 40.4627 61.9992 40.7539C61.9992 41.1421 61.6377 41.3362 61.3666 41.3362C60.9147 41.3362 60.4628 41.1421 59.9205 41.1421C59.2879 41.1421 59.0168 41.3362 58.3841 41.3362C58.0226 41.3362 57.7515 41.1421 57.7515 40.7539C57.7515 40.4627 57.9322 40.2686 58.2034 40.2686C58.3841 40.2686 58.6552 40.3657 58.836 40.3657C59.1071 40.3657 59.1975 40.1716 59.1975 39.104V35.8044H59.4686Z" fill="#054D94"/>
<path d="M70.4949 35.9014C70.4949 34.9309 69.6815 34.3486 68.7777 34.3486C67.8739 34.3486 67.1509 35.028 67.1509 35.9014C67.1509 36.8719 67.8739 37.4542 68.7777 37.4542C69.6815 37.5513 70.4949 36.969 70.4949 35.9014ZM67.0605 40.8509C66.6086 41.045 66.3375 41.4332 66.3375 42.0155C66.3375 42.5978 66.7894 42.986 67.2413 43.1801C67.6932 43.3742 68.3258 43.3742 68.7777 43.3742C69.5911 43.3742 71.3083 43.1801 71.3083 41.9185C71.3083 40.6568 69.7719 40.5598 68.8681 40.5598C68.3258 40.5598 67.6028 40.6568 67.0605 40.8509ZM68.4162 39.4922C69.2296 39.4922 70.043 39.4922 70.766 39.7834C71.6698 40.0745 72.4832 40.8509 72.4832 41.9185C72.4832 43.8595 70.2238 44.3447 68.7777 44.3447C67.3317 44.3447 65.1626 43.9565 65.1626 41.9185C65.1626 41.045 65.7049 40.3657 66.5183 40.0745C65.8856 39.7834 65.3434 39.3952 65.3434 38.6188C65.3434 37.8424 65.8856 37.2601 66.5183 37.066C66.2471 36.6778 66.1568 36.1926 66.1568 35.7073C66.1568 34.1545 67.5124 33.184 68.8681 33.184C69.1392 33.184 69.4104 33.184 69.7719 33.2811C69.7719 32.3106 70.5853 31.7283 71.3987 31.7283C72.2121 31.7283 73.0255 32.2135 73.0255 33.087C73.0255 33.5722 72.664 33.9604 72.2121 33.9604C71.9409 33.9604 71.6698 33.6693 71.6698 33.3781C71.6698 33.184 71.8506 32.9899 71.9409 32.8929C71.7602 32.6988 71.5794 32.6017 71.3083 32.6017C70.766 32.6017 70.4949 33.087 70.4949 33.6693C71.2179 34.1545 71.5794 34.9309 71.5794 35.8044C71.5794 37.4542 70.2238 38.4247 68.8681 38.4247C68.3258 38.4247 67.7836 38.2306 67.2413 38.0365C67.1509 38.0365 66.9702 37.9395 66.8798 37.9395C66.6086 37.9395 66.3375 38.3277 66.3375 38.6188C66.3375 39.3952 67.3317 39.3952 67.8739 39.3952H68.4162V39.4922Z" fill="#054D94"/>
<path d="M78.7191 36.5808C78.6287 35.3191 77.9961 34.3486 76.7308 34.3486C75.4655 34.3486 74.6521 35.3191 74.5617 36.5808H78.7191ZM74.381 37.7454C74.2906 39.2981 75.104 40.7539 76.7308 40.7539C77.7249 40.7539 78.448 40.2686 78.7191 39.2011C78.8095 38.9099 78.8999 38.5217 79.2614 38.5217C79.5325 38.5217 79.8036 38.7158 79.8036 39.104C79.8036 39.7834 79.3517 40.4627 78.9902 40.8509C78.3576 41.4332 77.4538 41.7244 76.6404 41.7244C74.381 41.7244 73.2061 39.8804 73.2061 37.6483C73.2061 36.5808 73.4772 35.5132 74.0195 34.6398C74.6521 33.7663 75.6463 33.2811 76.6404 33.2811C78.5383 33.2811 79.894 34.7368 79.894 36.8719C79.894 37.6483 79.894 37.7454 79.171 37.7454H74.381Z" fill="#054D94"/>
<path d="M82.4247 35.8044C82.4247 34.7368 82.3343 34.5427 81.9728 34.5427C81.7017 34.5427 81.5209 34.6398 81.1594 34.6398C80.8883 34.6398 80.7075 34.4457 80.7075 34.1545C80.7075 33.7663 80.9787 33.5722 81.3402 33.5722C81.6113 33.5722 81.7921 33.7663 82.1536 33.7663C82.5151 33.7663 82.6958 33.5722 82.967 33.5722C83.3285 33.5722 83.4188 33.8634 83.3285 34.5427C83.7804 33.7663 84.5034 33.3781 85.3168 33.3781C86.4917 33.3781 87.6666 34.1545 87.6666 35.5132C87.6666 36.2896 87.3051 37.066 86.4917 37.066C86.1302 37.066 85.6783 36.7749 85.6783 36.2896C85.6783 35.9985 85.9494 35.6103 86.2206 35.6103C86.3109 35.6103 86.3109 35.6103 86.4013 35.6103C86.4917 35.5132 86.4917 35.4162 86.4917 35.2221C86.4917 34.5427 85.7687 34.1545 85.2264 34.1545C84.1419 34.1545 83.4189 34.8339 83.4189 37.066V39.104C83.4189 40.2686 83.5996 40.3657 83.8707 40.3657C84.1419 40.3657 84.3226 40.2686 84.5034 40.2686C84.7745 40.2686 84.9553 40.4627 84.9553 40.7539C84.9553 41.1421 84.6841 41.3362 84.3226 41.3362C83.8707 41.3362 83.4188 41.1421 82.8766 41.1421C82.2439 41.1421 81.9728 41.3362 81.3402 41.3362C80.9787 41.3362 80.7075 41.1421 80.7075 40.7539C80.7075 40.4627 80.8883 40.2686 81.1594 40.2686C81.3402 40.2686 81.6113 40.3657 81.7921 40.3657C82.0632 40.3657 82.1536 40.1716 82.1536 39.104V35.8044H82.4247Z" fill="#054D94"/>
<path d="M98.9636 34.3486C98.9636 33.8634 98.9636 32.8929 98.8732 32.4076C98.7829 32.0194 98.5117 31.8253 98.1502 31.8253C97.8791 31.8253 97.6983 31.9224 97.4272 31.9224C97.1561 31.9224 96.9753 31.7283 96.9753 31.4371C96.9753 31.0489 97.2464 30.8548 97.5176 30.8548C98.1502 30.8548 98.6925 31.0489 99.4155 31.0489C100.139 31.0489 100.59 30.8548 101.313 30.8548C101.675 30.8548 101.946 31.0489 101.946 31.4371C101.946 31.7283 101.765 31.9224 101.494 31.9224C101.223 31.9224 101.042 31.8253 100.771 31.8253C100.41 31.8253 100.139 32.0194 100.048 32.4076C99.9578 32.8929 99.9578 33.8634 99.9578 34.3486V35.3191C99.9578 36.4837 100.048 38.7159 99.6866 39.6863C99.054 41.1421 97.6983 41.8214 96.2523 41.8214C94.4447 41.8214 92.7275 40.8509 92.7275 38.7159C92.7275 37.4542 93.6313 36.3867 94.8062 36.3867C95.5293 36.3867 96.2523 36.8719 96.2523 37.6483C96.2523 38.1336 95.8908 38.6188 95.4389 38.6188C95.0774 38.6188 94.7159 38.3277 94.7159 37.9395C94.7159 37.7454 94.8062 37.6483 94.8966 37.5513C94.8062 37.4542 94.8062 37.4542 94.6255 37.4542C94.1736 37.4542 93.8121 38.2306 93.8121 38.6188C93.8121 39.9775 94.8966 40.7539 96.0715 40.7539C96.8849 40.7539 97.7887 40.4627 98.2406 39.6863C98.6925 38.8129 98.6925 37.8424 98.6925 36.8719V34.3486H98.9636Z" fill="#054D94"/>
<path d="M105.561 40.7539C107.369 40.7539 107.911 39.104 107.911 37.4542C107.911 36.7749 107.73 35.9014 107.369 35.2221C107.007 34.5427 106.284 34.3486 105.652 34.3486C104.838 34.3486 104.206 34.6398 103.844 35.4162C103.483 35.9985 103.392 36.8719 103.392 37.5512C103.302 39.007 103.844 40.7539 105.561 40.7539ZM105.561 33.3781C106.555 33.3781 107.55 33.6693 108.182 34.5427C108.815 35.4162 109.086 36.4837 109.086 37.5512C109.086 39.8804 107.911 41.8214 105.561 41.8214C103.302 41.8214 102.127 39.8804 102.127 37.6483C102.127 35.3191 103.211 33.3781 105.561 33.3781Z" fill="#054D94"/>
<path d="M112.611 31.8253C112.611 32.3106 112.249 32.6988 111.797 32.6988C111.345 32.6988 110.984 32.3106 110.984 31.8253C110.984 31.3401 111.345 30.9519 111.797 30.9519C112.249 30.9519 112.611 31.3401 112.611 31.8253ZM111.526 35.8044C111.526 34.7368 111.436 34.5427 111.074 34.5427C110.803 34.5427 110.622 34.6398 110.442 34.6398C110.171 34.6398 109.99 34.4457 109.99 34.1545C109.99 33.7663 110.261 33.5722 110.532 33.5722C110.894 33.5722 111.165 33.7663 111.436 33.7663C111.797 33.7663 111.978 33.5722 112.249 33.5722C112.611 33.5722 112.611 33.9604 112.611 34.2516V39.9775C112.611 40.3657 112.701 40.6568 112.972 40.6568C113.153 40.6568 113.334 40.5598 113.515 40.5598C113.786 40.5598 113.966 40.7539 113.966 41.045C113.966 41.4332 113.695 41.6273 113.334 41.6273C112.882 41.6273 112.43 41.4332 111.888 41.4332C111.255 41.4332 110.894 41.6273 110.351 41.6273C110.08 41.6273 109.899 41.3362 109.899 41.045C109.899 40.7539 110.08 40.5598 110.351 40.5598C110.532 40.5598 110.803 40.6568 110.984 40.6568C111.345 40.6568 111.436 40.3657 111.436 39.3952V35.8044H111.526Z" fill="#054D94"/>
<path d="M116.045 35.8044C116.045 34.7368 115.954 34.5427 115.593 34.5427C115.322 34.5427 115.141 34.6398 114.96 34.6398C114.689 34.6398 114.508 34.4457 114.508 34.1545C114.508 33.8634 114.78 33.5722 115.051 33.5722C115.322 33.5722 115.412 33.7663 115.864 33.7663C116.316 33.7663 116.406 33.5722 116.768 33.5722C117.039 33.5722 117.039 33.8634 117.039 34.5427C117.581 33.7663 118.575 33.3781 119.389 33.3781C120.112 33.3781 120.925 33.6693 121.467 34.2516C122.1 34.8339 122.1 35.6103 122.1 36.4837V39.2981C122.1 40.2686 122.191 40.5598 122.552 40.5598C122.823 40.5598 123.004 40.4627 123.185 40.4627C123.456 40.4627 123.637 40.6568 123.637 40.948C123.637 41.3362 123.365 41.5303 123.004 41.5303C122.552 41.5303 122.191 41.3362 121.558 41.3362C120.835 41.3362 120.564 41.5303 120.021 41.5303C119.66 41.5303 119.389 41.3362 119.389 40.948C119.389 40.6568 119.57 40.4627 119.841 40.4627C120.021 40.4627 120.293 40.5598 120.473 40.5598C120.835 40.5598 120.925 40.2686 120.925 39.2981V37.066C120.925 36.0955 120.925 35.8044 120.654 35.3191C120.383 34.7368 119.66 34.4457 119.118 34.4457C118.485 34.4457 117.762 34.7368 117.4 35.3191C117.22 35.6103 117.039 35.9985 117.039 37.4542V39.2981C117.039 40.2686 117.129 40.5598 117.491 40.5598C117.762 40.5598 117.943 40.4627 118.123 40.4627C118.395 40.4627 118.575 40.6568 118.575 40.948C118.575 41.3362 118.304 41.5303 117.943 41.5303C117.491 41.5303 117.129 41.3362 116.497 41.3362C115.774 41.3362 115.503 41.5303 114.96 41.5303C114.599 41.5303 114.328 41.3362 114.328 40.948C114.328 40.6568 114.508 40.4627 114.78 40.4627C114.96 40.4627 115.231 40.5598 115.412 40.5598C115.774 40.5598 115.864 40.2686 115.864 39.2981V35.8044H116.045Z" fill="#054D94"/>
<path d="M124.992 35.2221C124.992 34.7368 124.902 34.6398 124.45 34.6398C123.908 34.6398 123.637 34.5427 123.637 34.0575C123.637 33.7663 123.908 33.4752 124.179 33.4752H124.721C124.992 33.4752 124.992 33.3781 124.992 32.9899V31.7283C124.992 31.3401 125.083 30.9519 125.535 30.9519C125.987 30.9519 126.077 31.3401 126.077 31.7283V33.2811C126.077 33.4752 126.077 33.5722 126.348 33.5722H127.794C128.336 33.5722 128.517 33.7663 128.517 34.1545C128.517 34.4457 128.427 34.7368 127.704 34.7368H126.438C126.077 34.7368 126.077 34.7368 126.077 35.028V38.7158C126.077 40.0745 126.348 40.5598 127.161 40.5598C128.065 40.5598 128.156 39.7834 128.156 39.007V38.5217C128.156 37.8424 128.336 37.5513 128.698 37.5513C129.059 37.5513 129.24 37.9395 129.24 38.3277C129.24 40.0745 128.969 41.6273 126.981 41.6273C126.348 41.6273 125.625 41.3362 125.264 40.6568C125.083 40.1716 124.992 39.8804 124.992 38.6188V35.2221Z" fill="#054D94"/>
</svg>
